<?xml version="1.0" encoding="utf-8"?>
<!-- Generator: Adobe Illustrator 17.0.0, SVG Export Plug-In . SVG Version: 6.00 Build 0)  -->
<!DOCTYPE svg PUBLIC "-//W3C//DTD SVG 1.1//EN" "http://www.w3.org/Graphics/SVG/1.1/DTD/svg11.dtd">
<svg version="1.1" xmlns="http://www.w3.org/2000/svg" xmlns:xlink="http://www.w3.org/1999/xlink" x="0px" y="0px" width="260px"
	 height="166px" viewBox="0 0 260 166" enable-background="new 0 0 260 166" xml:space="preserve">
<g id="Layer_2_1_">
	<rect x="-101.5" y="-69.5" stroke="#FFFFFF" stroke-miterlimit="10" width="560" height="299"/>
</g>
<g id="Layer_1">
	<g id="Layer_1_1_" display="none">
		<rect x="-419.023" y="-247.89" display="inline" fill="#FF02FF" width="1911.191" height="1569.157"/>
	</g>
	<g>
		<g>
			<path fill="none" stroke="#FFFFFF" stroke-width="4" stroke-miterlimit="10" d="M181,158c0,3.3-2.7,6-6,6h-52c-3.3,0-6-2.7-6-6
				V54c0-3.3,2.7-6,6-6h52c3.3,0,6,2.7,6,6V158z"/>
		</g>
		<rect x="126" y="65" fill="none" stroke="#FFFFFF" stroke-width="2" stroke-miterlimit="10" width="46" height="80"/>
		<line fill="none" stroke="#FFFFFF" stroke-width="2" stroke-miterlimit="10" x1="144" y1="57" x2="154" y2="57"/>
		<circle fill="none" stroke="#FFFFFF" stroke-width="2" stroke-miterlimit="10" cx="149" cy="154.1" r="4"/>
	</g>
	<g>
		<circle fill="none" stroke="#FFFFFF" stroke-width="2" stroke-miterlimit="10" cx="204" cy="150.1" r="4"/>
		<circle fill="#FFFFFF" cx="204" cy="20.099" r="2"/>
		<g>
			<path fill="none" stroke="#FFFFFF" stroke-width="4" stroke-miterlimit="10" d="M258,158c0,3.314-2.686,6-6,6h-97
				c-3.314,0-6-2.686-6-6V15c0-3.314,2.686-6,6-6h97c3.314,0,6,2.686,6,6V158z"/>
		</g>
		<rect x="164" y="31" fill="none" stroke="#FFFFFF" stroke-width="2" stroke-miterlimit="10" width="79" height="107"/>
	</g>
	<g>
		<rect x="-6.765" y="9" fill="none" stroke="#FFFFFF" stroke-width="4" stroke-miterlimit="10" width="227.941" height="136.765"/>
		
			<rect x="-29.559" y="145.765" fill="none" stroke="#FFFFFF" stroke-width="4" stroke-miterlimit="10" width="273.529" height="18.235"/>
		
			<rect x="6.911" y="23.816" fill="none" stroke="#FFFFFF" stroke-width="2" stroke-miterlimit="10" width="200.588" height="109.412"/>
		<rect x="82.132" y="146.904" fill="#FFFFFF" width="45.588" height="4.559"/>
	</g>
</g>
</svg>
