<?xml version="1.0" encoding="utf-8"?>
<!-- Generator: Adobe Illustrator 17.0.0, SVG Export Plug-In . SVG Version: 6.00 Build 0)  -->
<!DOCTYPE svg PUBLIC "-//W3C//DTD SVG 1.1//EN" "http://www.w3.org/Graphics/SVG/1.1/DTD/svg11.dtd">
<svg version="1.1" id="Laag_1" xmlns="http://www.w3.org/2000/svg" xmlns:xlink="http://www.w3.org/1999/xlink" x="0px" y="0px"
	 width="322px" height="140px" viewBox="0 0 322 140" enable-background="new 0 0 322 140" xml:space="preserve">
<rect x="-4571.377" y="558.197" fill="#1D0B00" width="1279.436" height="395.98"/>
<path fill="#002F66" d="M216.102,30.63L188.12,69.448l-5.465,2.501l13.185,31.832c6.94-4.284,13.479-8.597,14.657-10.465
	c2.159-3.422,23.595-33.033,28.256-36.387c6.694-4.818,50.739-25.471,55.292-27.809c0.948-0.487,3.111-4.531,5.485-9.369
	L264.632,5.295L216.102,30.63z"/>
<path fill="#EE6644" d="M257.429,137.688l43.917-18.191l10.003-24.15c-8.207,3.003-17.217,6.929-27.292,14.179
	C271.588,118.5,263.604,128.375,257.429,137.688z"/>
<polygon fill="#001A66" points="216.102,30.63 264.632,5.295 251.848,0 202.351,20.503 181.848,70 182.655,71.949 188.12,69.448 "/>
<path fill="#004566" d="M294.045,29.12c-4.553,2.338-48.598,22.992-55.292,27.809c-4.661,3.354-26.097,32.965-28.256,36.387
	c-1.178,1.868-7.717,6.181-14.657,10.465l6.51,15.717l20.752,8.595c4.095-3.845,7.787-7.761,9.773-10.909
	c4.317-6.844,19.208-27.248,28.53-33.956c13.388-9.635,43.346-20.595,52.452-25.271c0.688-0.353,1.456-0.98,2.268-1.773
	l-14.78-35.681l-1.815-0.752C297.157,24.589,294.993,28.634,294.045,29.12z"/>
<path fill="#005A66" d="M261.405,83.228c-9.322,6.708-24.213,27.112-28.53,33.956c-1.986,3.147-5.678,7.064-9.773,10.909
	L251.848,140l5.581-2.312c6.176-9.313,14.159-19.188,26.628-28.162c10.075-7.25,19.085-11.176,27.292-14.179L321.848,70
	l-5.723-13.816c-0.812,0.793-1.58,1.42-2.268,1.773C304.751,62.633,274.793,73.593,261.405,83.228z"/>
<path fill="none" d="M107.945,41.141c-2.66,0-4.578,0.898-5.758,2.697c-1.176,1.799-1.766,4.52-1.766,8.16
	c0,3.619,0.594,6.355,1.783,8.208c1.189,1.854,3.123,2.78,5.805,2.78c2.66,0,4.572-0.921,5.74-2.764
	c1.166-1.842,1.75-4.583,1.75-8.225c0-3.619-0.59-6.334-1.766-8.144C112.554,42.046,110.625,41.141,107.945,41.141z"/>
<path fill="none" d="M23.273,29.759c-0.719,2.791-2.779,9.692-6.18,20.702h12.459c-3.205-10.312-5.01-16.145-5.412-17.497
	C23.738,31.613,23.449,30.545,23.273,29.759z"/>
<path fill="none" d="M147.746,60.698h0.195c0.24-2.245,0.709-4.36,1.406-6.345l0.387-1.176c-1.094,0.307-2.188,0.608-3.283,0.928
	l0.083,0.248C147.125,56.141,147.527,58.257,147.746,60.698z"/>
<path fill="#EE6644" d="M46.363,70.345l-16.941-48.01H17.027L0.152,70.345h10.922l3.469-11.381h17.43l3.467,11.381H46.363z
	 M17.093,50.462c3.4-11.01,5.461-17.911,6.18-20.702c0.176,0.785,0.465,1.854,0.867,3.205c0.402,1.353,2.207,7.185,5.412,17.497
	H17.093z"/>
<rect x="51.595" y="19.458" fill="#EE6644" width="9.975" height="50.888"/>
<rect x="72.035" y="19.458" fill="#EE6644" width="9.977" height="50.888"/>
<path fill="#001A66" d="M107.879,71c5.604,0,9.977-1.679,13.113-5.036c1.166-1.247,2.114-2.674,2.847-4.278
	c-6.962,2.644-13.865,5.57-20.648,8.794C104.662,70.822,106.223,71,107.879,71z"/>
<path fill="#EE6644" d="M123.545,41.959c-1.439-2.856-3.5-5.048-6.182-6.574c-2.682-1.525-5.777-2.289-9.289-2.289
	c-5.645,0-10.027,1.657-13.145,4.972c-3.119,3.313-4.678,7.958-4.678,13.932c0,3.837,0.721,7.194,2.158,10.072
	c1.439,2.878,3.5,5.086,6.182,6.623c1.416,0.812,2.951,1.403,4.599,1.786c6.784-3.225,13.686-6.151,20.648-8.794
	c1.241-2.717,1.864-5.945,1.864-9.687C125.703,48.162,124.984,44.815,123.545,41.959z M113.75,60.223
	c-1.168,1.843-3.08,2.764-5.74,2.764c-2.682,0-4.615-0.927-5.805-2.78c-1.189-1.853-1.783-4.589-1.783-8.208
	c0-3.641,0.59-6.361,1.766-8.16c1.18-1.799,3.098-2.697,5.758-2.697c2.68,0,4.609,0.904,5.789,2.714
	c1.176,1.81,1.766,4.524,1.766,8.144C115.5,55.64,114.916,58.382,113.75,60.223z"/>
<path fill="#EE6644" d="M166.812,33.783h-10.695l-6.383,19.394c3.631-1.018,7.256-1.964,10.869-2.841L166.812,33.783z"/>
<path fill="#EE6644" d="M139.634,33.783h-10.924l9.187,22.966c2.85-0.922,5.702-1.811,8.554-2.644L139.634,33.783z"/>
<path fill="#001A66" d="M149.734,53.177l-0.387,1.176c-0.697,1.984-1.166,4.1-1.406,6.345h-0.195
	c-0.219-2.441-0.621-4.557-1.211-6.345l-0.083-0.248c-2.852,0.833-5.704,1.721-8.554,2.644l5.334,13.335l-0.588,1.799
	c-0.742,2.18-1.773,3.81-3.09,4.89c-1.32,1.079-2.863,1.618-4.629,1.618c-1.418,0-2.727-0.142-3.926-0.425v7.914
	c1.658,0.371,3.348,0.556,5.07,0.556c3.51,0,6.578-0.948,9.207-2.845c2.625-1.896,4.648-4.753,6.066-8.568l9.26-24.686
	C156.99,51.213,153.365,52.159,149.734,53.177z"/>
</svg>
