<?xml version="1.0" encoding="utf-8"?>
<!-- Generator: Adobe Illustrator 17.0.0, SVG Export Plug-In . SVG Version: 6.00 Build 0)  -->
<!DOCTYPE svg PUBLIC "-//W3C//DTD SVG 1.1//EN" "http://www.w3.org/Graphics/SVG/1.1/DTD/svg11.dtd">
<svg version="1.1" id="Laag_1" xmlns="http://www.w3.org/2000/svg" xmlns:xlink="http://www.w3.org/1999/xlink" x="0px" y="0px"
	 width="865px" height="565px" viewBox="0 0 865 565" enable-background="new 0 0 865 565" xml:space="preserve">
<g>
	<circle fill="#99FFFF" cx="393.996" cy="155.267" r="3.456"/>
	<circle fill="#F97B62" cx="412.436" cy="128.387" r="14.343"/>
	<circle fill="#99FFFF" cx="472.533" cy="112.139" r="23.372"/>
	<circle fill="#F97B62" cx="506.173" cy="76.001" r="10.542"/>
	<circle fill="#99FFFF" cx="527.145" cy="119.696" r="9.073"/>
	<circle fill="#99FFFF" cx="427.787" cy="96.606" r="3.802"/>
</g>
<g>
	<circle fill="#99FFFF" cx="436.912" cy="85.839" r="3.902"/>
	<circle fill="#99FFFF" cx="450.547" cy="51.659" r="16.193"/>
	<circle fill="#F97B62" cx="359.56" cy="69.341" r="26.385"/>
	<circle fill="#99FFFF" cx="339.419" cy="121.314" r="11.901"/>
	<circle fill="#F97B62" cx="299.139" cy="84.281" r="10.243"/>
	<circle fill="#99FFFF" cx="412.978" cy="66.894" r="4.292"/>
</g>
<g>
	<rect x="84.255" y="65.375" fill="#F97B62" width="76.363" height="39.227"/>
	<circle fill="#F97B62" cx="84.255" cy="84.989" r="19.613"/>
	<circle fill="#F97B62" cx="160.618" cy="84.989" r="19.613"/>
	<circle fill="#F97B62" cx="129.895" cy="58.612" r="19.613"/>
	<circle fill="#F97B62" cx="99.469" cy="62.895" r="19.613"/>
	<circle fill="#F97B62" cx="113.83" cy="42.718" r="11.61"/>
	<circle fill="#F97B62" cx="155.755" cy="62.895" r="11.61"/>
</g>
<g>
	<rect x="545.676" y="81.089" fill="#F97B62" width="58.008" height="29.798"/>
	<circle fill="#F97B62" cx="545.676" cy="95.988" r="14.899"/>
	<circle fill="#F97B62" cx="603.684" cy="95.988" r="14.899"/>
	<circle fill="#F97B62" cx="580.346" cy="75.952" r="14.899"/>
	<circle fill="#F97B62" cx="557.234" cy="79.205" r="14.899"/>
	<circle fill="#F97B62" cx="568.142" cy="63.878" r="8.819"/>
	<circle fill="#F97B62" cx="599.99" cy="79.205" r="8.819"/>
</g>
<g>
	<rect x="97.839" y="279.901" fill="#F97B62" width="55.203" height="28.357"/>
	<circle fill="#F97B62" cx="97.839" cy="294.079" r="14.179"/>
	<circle fill="#F97B62" cx="153.042" cy="294.079" r="14.179"/>
	<circle fill="#F97B62" cx="130.832" cy="275.012" r="14.179"/>
	<circle fill="#F97B62" cx="108.837" cy="278.108" r="14.179"/>
	<circle fill="#F97B62" cx="119.219" cy="263.522" r="8.393"/>
	<circle fill="#F97B62" cx="149.527" cy="278.108" r="8.393"/>
</g>
<g>
	<rect x="780.857" y="264.844" fill="#F97B62" width="41.934" height="21.541"/>
	<circle fill="#F97B62" cx="780.857" cy="275.614" r="10.771"/>
	<circle fill="#F97B62" cx="822.791" cy="275.614" r="10.771"/>
	<circle fill="#F97B62" cx="805.92" cy="261.13" r="10.771"/>
	<circle fill="#F97B62" cx="789.212" cy="263.482" r="10.771"/>
	<circle fill="#F97B62" cx="797.098" cy="252.402" r="6.376"/>
	<circle fill="#F97B62" cx="820.121" cy="263.482" r="6.376"/>
</g>
<g>
	<path fill="#99FFFF" d="M311.379,132.825l-24.665,12.451v-27.63c-15.263,0-27.63,12.365-27.63,27.63
		c0,15.264,12.367,27.63,27.63,27.63c15.263,0,27.63-12.366,27.63-27.63C314.344,140.794,313.271,136.567,311.379,132.825z"/>
	<path fill="#F97B62" d="M311.379,132.825c-4.553-9.005-13.883-15.179-24.665-15.179v27.63L311.379,132.825z"/>
</g>
<g>
	<rect x="637.382" y="384.136" fill="#F97B62" width="5.628" height="42.013"/>
	<rect x="645.334" y="393.325" fill="#99FFFF" width="5.628" height="32.824"/>
	<rect x="653.286" y="397.796" fill="#99FFFF" width="5.628" height="28.353"/>
	<rect x="661.239" y="417.139" fill="#99FFFF" width="5.628" height="9.009"/>
	<rect x="629.429" y="390.111" fill="#99FFFF" width="5.628" height="36.038"/>
	<rect x="621.477" y="401.732" fill="#99FFFF" width="5.628" height="24.417"/>
	<rect x="613.525" y="408.13" fill="#99FFFF" width="5.628" height="18.019"/>
	<rect x="605.572" y="411.745" fill="#99FFFF" width="5.628" height="14.404"/>
</g>
<rect x="649.613" y="79.075" fill="none" stroke="#85DADA" stroke-width="4" stroke-miterlimit="10" stroke-dasharray="12" width="106.36" height="59.089"/>
<rect x="669.668" y="32.508" fill="none" stroke="#85DADA" stroke-width="4" stroke-miterlimit="10" stroke-dasharray="12" width="59.089" height="59.089"/>
<rect x="729.517" y="111.301" fill="none" stroke="#85DADA" stroke-width="4" stroke-miterlimit="10" stroke-dasharray="12" width="59.708" height="122.642"/>
<g>
	<rect x="602.22" y="437.008" fill="#5C8F8F" width="162.713" height="100.202"/>
	<rect x="641.557" y="453.607" fill="#476969" width="106.83" height="70.733"/>
	<rect x="617.55" y="506.657" fill="#70B4B4" width="24.007" height="17.683"/>
	<rect x="617.55" y="453.607" fill="#85DADA" width="24.007" height="17.683"/>
	<rect x="617.55" y="488.974" fill="#85DADA" width="24.007" height="17.683"/>
	<rect x="617.55" y="471.29" fill="#70B4B4" width="24.007" height="17.683"/>
</g>
<g>
	<g>
		<polyline fill="none" stroke="#70B4B4" stroke-width="4" stroke-miterlimit="10" points="187.936,237.85 182.393,240.147 
			176.849,237.85 		"/>
		<polyline fill="none" stroke="#70B4B4" stroke-width="4" stroke-miterlimit="10" stroke-dasharray="10.1456,10.1456" points="
			167.476,233.968 144.043,224.262 132.395,196.142 		"/>
		<polyline fill="none" stroke="#70B4B4" stroke-width="4" stroke-miterlimit="10" points="130.454,191.455 128.158,185.912 
			130.454,180.368 		"/>
		
			<line fill="none" stroke="#70B4B4" stroke-width="4" stroke-miterlimit="10" stroke-dasharray="9.8365,9.8365" x1="134.218" y1="171.281" x2="139.865" y2="157.649"/>
		<polyline fill="none" stroke="#70B4B4" stroke-width="4" stroke-miterlimit="10" points="141.747,153.105 144.043,147.562 
			149.586,145.266 		"/>
		<polyline fill="none" stroke="#70B4B4" stroke-width="4" stroke-miterlimit="10" stroke-dasharray="10.1456,10.1456" points="
			158.959,141.383 182.393,131.677 210.513,143.325 		"/>
		<polyline fill="none" stroke="#70B4B4" stroke-width="4" stroke-miterlimit="10" points="215.199,145.266 220.742,147.562 
			223.038,153.105 		"/>
		<polyline fill="none" stroke="#70B4B4" stroke-width="4" stroke-miterlimit="10" stroke-dasharray="10.1456,10.1456" points="
			226.921,162.478 236.627,185.912 224.98,214.032 		"/>
		<polyline fill="none" stroke="#70B4B4" stroke-width="4" stroke-miterlimit="10" points="223.038,218.718 220.742,224.262 
			215.199,226.558 		"/>
		
			<line fill="none" stroke="#70B4B4" stroke-width="4" stroke-miterlimit="10" stroke-dasharray="9.8365,9.8365" x1="206.111" y1="230.322" x2="192.48" y2="235.968"/>
	</g>
</g>
<g>
	
		<text transform="matrix(1 0 0 1 212.7355 98.0795)" fill="#85DADA" font-family="'OpenSans-Bold'" font-size="69.1828" letter-spacing="8">A</text>
	<g>
		<polyline fill="none" stroke="#70B4B4" stroke-width="4" stroke-miterlimit="10" points="193.472,91.99 193.472,116.095 
			217.577,116.095 		"/>
		<polyline fill="none" stroke="#70B4B4" stroke-width="4" stroke-miterlimit="10" points="278.459,55.213 278.459,31.108 
			254.354,31.108 		"/>
	</g>
</g>
<g>
	
		<text transform="matrix(1 0 0 1 62.8567 379.0844)" fill="#85DADA" font-family="'OpenSans-Bold'" font-size="56.4668" letter-spacing="7">l</text>
	<g>
		<polyline fill="none" stroke="#70B4B4" stroke-width="4" stroke-miterlimit="10" points="36.271,374.115 36.271,393.789 
			55.946,393.789 		"/>
		<polyline fill="none" stroke="#70B4B4" stroke-width="4" stroke-miterlimit="10" points="105.637,344.097 105.637,324.423 
			85.963,324.423 		"/>
	</g>
</g>
<g>
	
		<text transform="matrix(1 0 0 1 796.4913 85.3261)" fill="#85DADA" font-family="'OpenSans-Bold'" font-size="37.1964" letter-spacing="4">l</text>
	<g>
		<polyline fill="none" stroke="#70B4B4" stroke-width="4" stroke-miterlimit="10" points="778.977,82.051 778.977,95.011 
			791.937,95.011 		"/>
		<polyline fill="none" stroke="#70B4B4" stroke-width="4" stroke-miterlimit="10" points="824.671,62.278 824.671,49.318 
			811.711,49.318 		"/>
	</g>
</g>
<g>
	
		<text transform="matrix(1 0 0 1 796.4249 429.8447)" fill="#85DADA" font-family="'OpenSans-Bold'" font-size="43.3431" letter-spacing="5">o</text>
	<g>
		<polyline fill="none" stroke="#70B4B4" stroke-width="4" stroke-miterlimit="10" points="782.821,426.028 782.821,441.13 
			797.923,441.13 		"/>
		<polyline fill="none" stroke="#70B4B4" stroke-width="4" stroke-miterlimit="10" points="836.065,402.987 836.065,387.886 
			820.964,387.886 		"/>
	</g>
</g>
<g>
	
		<text transform="matrix(1 0 0 1 83.8858 160.0112)" fill="#85DADA" font-family="'OpenSans-Bold'" font-size="43.3431" letter-spacing="5">y</text>
	<g>
		<polyline fill="none" stroke="#70B4B4" stroke-width="4" stroke-miterlimit="10" points="69.192,156.196 69.192,171.297 
			84.294,171.297 		"/>
		<polyline fill="none" stroke="#70B4B4" stroke-width="4" stroke-miterlimit="10" points="122.436,133.155 122.436,118.053 
			107.335,118.053 		"/>
	</g>
</g>
<g>
	<g>
		<g>
			<path fill="none" stroke="#70B4B4" stroke-width="4" stroke-miterlimit="10" d="M209.125,394.464
				c0,24.333-19.726,44.059-44.059,44.059s-44.059-19.726-44.059-44.059s19.726-44.059,44.059-44.059"/>
			<g>
				<polygon fill="#70B4B4" points="162.148,360.378 179.417,350.405 162.148,340.433 				"/>
			</g>
		</g>
	</g>
	<rect x="203.824" y="389.163" fill="#85DADA" width="10.601" height="10.601"/>
	<rect x="159.765" y="433.222" fill="#85DADA" width="10.601" height="10.601"/>
	<rect x="115.706" y="389.163" fill="#85DADA" width="10.601" height="10.601"/>
</g>
<g>
	<polygon fill="none" points="93.246,523.944 93.234,522.067 93.236,523.938 	"/>
	<polygon fill="none" points="83.65,494.37 93.222,500.039 93.222,499.91 	"/>
	<polygon fill="#85DADA" points="138.623,493.787 131.974,497.775 138.623,493.803 	"/>
	<polygon fill="#85DADA" points="123.784,502.406 117.136,506.395 123.784,502.423 	"/>
	<polygon fill="#70B4B4" points="67.452,490.415 74.1,494.387 67.452,490.399 	"/>
	<polygon fill="#70B4B4" points="83.65,514.611 83.65,514.634 83.688,514.633 	"/>
	<polygon fill="#70B4B4" points="50.22,480.559 56.868,484.531 50.22,480.542 	"/>
	<polygon fill="#99FFFF" points="128.514,447.233 62.746,409.262 40.009,450.207 105.778,488.178 	"/>
	<polygon fill="#85DADA" points="83.65,514.611 83.65,494.37 80.419,492.456 80.419,516.51 83.65,514.634 	"/>
	<polygon fill="#FFFFFF" points="93.234,522.067 93.222,514.24 93.222,520.353 	"/>
	<polygon fill="#70B4B4" points="93.222,500.039 93.246,500.053 93.246,499.924 93.222,499.91 	"/>
	<polygon fill="#85DADA" points="50.22,480.542 50.22,470.065 47.975,468.736 47.975,481.862 50.22,480.559 	"/>
	<polygon fill="#99FFFF" points="47.975,481.862 56.885,487.025 56.868,484.531 50.22,480.559 	"/>
	<polygon fill="#85DADA" points="67.452,490.399 67.452,479.922 65.207,478.593 65.207,491.719 67.452,490.415 	"/>
	<polygon fill="#99FFFF" points="65.207,491.719 74.117,496.882 74.1,494.387 67.452,490.415 	"/>
	<path fill="#70B4B4" d="M40.009,450.207v43.014l40.487,23.375l-0.078-0.086v-24.054l3.232,1.914l9.571,5.54l0.025,0.014v0.129
		l-0.025-0.015v14.201l0.012,7.827l0.013,1.877l-0.01-0.006v0.014l12.541,7.241v-43.014L40.009,450.207z M47.975,481.862v-13.126
		l2.245,1.33l6.648,3.937v10.528l0.017,2.495L47.975,481.862z M65.207,491.719v-13.126l2.245,1.329l6.648,3.937v10.528l0.017,2.495
		L65.207,491.719z"/>
	<polygon fill="#70B4B4" points="123.784,502.406 123.784,502.423 126.029,503.726 126.029,490.6 123.784,491.93 	"/>
	<polygon fill="#99FFFF" points="117.136,506.395 117.119,508.889 126.029,503.726 123.784,502.423 	"/>
	<polygon fill="#70B4B4" points="138.623,493.787 138.623,493.803 140.867,495.106 140.867,481.98 138.623,483.31 	"/>
	<polygon fill="#99FFFF" points="131.974,497.775 131.957,500.27 140.867,495.106 138.623,493.803 	"/>
	<path fill="#85DADA" d="M128.514,447.233l-22.736,40.945v43.014l45.473-26.254v-43.014L128.514,447.233z M126.029,503.726
		l-8.91,5.163l0.017-2.494v-10.528l6.648-3.937l2.245-1.33V503.726z M140.867,495.106l-8.91,5.163l0.017-2.494v-10.528l6.648-3.937
		l2.245-1.33V495.106z"/>
</g>
<g>
	<circle fill="#85DADA" cx="217.509" cy="475.023" r="23.829"/>
	<circle fill="#5C8F8F" cx="200.828" cy="505.801" r="23.829"/>
	
		<rect x="185.34" y="472.908" transform="matrix(0.8792 0.4765 -0.4765 0.8792 258.9467 -40.4154)" fill="#5C8F8F" width="47.658" height="35.008"/>
	<polyline fill="none" stroke="#99FFFF" stroke-width="2" stroke-miterlimit="10" points="228.864,454.073 217.509,475.023 
		196.559,463.668 	"/>
	
		<rect x="214.348" y="466.882" transform="matrix(0.8792 0.4765 -0.4765 0.8792 252.6216 -46.2489)" fill="#F97B62" width="6.323" height="16.281"/>
</g>
<g>
	<g>
		<path fill="#70B4B4" d="M566.76,526.833c-0.102,2.748-2.436,5.002-5.186,5.01l-291.928,0.764c-2.75,0.007-5-2.237-5-4.987v-88.64
			c0-2.75,2.25-4.961,4.999-4.914l295.378,5.066c2.75,0.047,4.916,2.334,4.813,5.082L566.76,526.833z"/>
	</g>
	<g>
		<rect x="272.663" y="448.714" fill="#85DADA" width="14.62" height="13.924"/>
		<rect x="289.749" y="448.714" fill="#85DADA" width="14.62" height="13.924"/>
		<rect x="306.835" y="448.714" fill="#85DADA" width="14.62" height="13.924"/>
		<rect x="323.92" y="448.714" fill="#85DADA" width="14.62" height="13.924"/>
		<rect x="341.006" y="448.714" fill="#85DADA" width="14.62" height="13.924"/>
		<rect x="358.092" y="448.714" fill="#85DADA" width="14.62" height="13.924"/>
		<rect x="375.177" y="448.714" fill="#85DADA" width="14.62" height="13.924"/>
		<rect x="392.263" y="448.714" fill="#85DADA" width="14.62" height="13.924"/>
		<rect x="409.349" y="448.714" fill="#85DADA" width="14.62" height="13.924"/>
	</g>
	<g>
		<rect x="441.924" y="448.714" fill="#85DADA" width="14.62" height="13.924"/>
		<rect x="459.01" y="448.714" fill="#85DADA" width="14.62" height="13.924"/>
		<rect x="476.096" y="448.714" fill="#85DADA" width="14.62" height="13.924"/>
		<rect x="510.267" y="448.714" fill="#85DADA" width="14.62" height="13.924"/>
		<rect x="527.353" y="448.714" fill="#85DADA" width="14.62" height="13.924"/>
		<rect x="544.439" y="448.714" fill="#85DADA" width="14.62" height="13.924"/>
	</g>
	<g>
		<rect x="441.924" y="467.975" fill="#85DADA" width="14.62" height="13.924"/>
		<rect x="459.01" y="467.975" fill="#85DADA" width="14.62" height="13.924"/>
		<rect x="476.096" y="467.975" fill="#85DADA" width="14.62" height="13.924"/>
		<rect x="510.267" y="467.975" fill="#85DADA" width="14.62" height="13.924"/>
		<rect x="527.353" y="467.975" fill="#85DADA" width="14.62" height="13.924"/>
		<rect x="544.439" y="467.975" fill="#85DADA" width="14.62" height="13.924"/>
	</g>
	<g>
		<rect x="459.01" y="487.004" fill="#85DADA" width="14.62" height="13.924"/>
		<rect x="510.267" y="487.004" fill="#85DADA" width="14.62" height="13.924"/>
		<rect x="527.353" y="487.004" fill="#85DADA" width="14.62" height="13.924"/>
		<rect x="544.439" y="487.004" fill="#85DADA" width="14.62" height="13.924"/>
	</g>
	<g>
		<rect x="441.924" y="506.498" fill="#85DADA" width="14.62" height="13.924"/>
		<rect x="459.01" y="506.498" fill="#85DADA" width="14.62" height="13.924"/>
		<rect x="476.096" y="506.498" fill="#85DADA" width="14.62" height="13.924"/>
		<rect x="510.267" y="506.498" fill="#85DADA" width="14.62" height="13.924"/>
		<rect x="527.353" y="506.498" fill="#85DADA" width="31.706" height="13.924"/>
	</g>
	<g>
		<rect x="272.663" y="467.975" fill="#85DADA" width="14.62" height="13.924"/>
		<rect x="289.749" y="467.975" fill="#85DADA" width="14.62" height="13.924"/>
		<rect x="306.835" y="467.975" fill="#85DADA" width="14.62" height="13.924"/>
		<rect x="323.92" y="467.975" fill="#85DADA" width="14.62" height="13.924"/>
		<rect x="341.006" y="467.975" fill="#85DADA" width="14.62" height="13.924"/>
		<rect x="358.092" y="467.975" fill="#85DADA" width="14.62" height="13.924"/>
		<rect x="375.177" y="467.975" fill="#85DADA" width="14.62" height="13.924"/>
		<rect x="392.263" y="467.975" fill="#85DADA" width="14.62" height="13.924"/>
		<rect x="409.349" y="467.975" fill="#85DADA" width="14.62" height="13.924"/>
	</g>
	<g>
		<rect x="272.663" y="487.004" fill="#85DADA" width="14.62" height="13.924"/>
		<rect x="289.749" y="487.004" fill="#85DADA" width="14.62" height="13.924"/>
		<rect x="306.835" y="487.004" fill="#85DADA" width="14.62" height="13.924"/>
		<rect x="323.92" y="487.004" fill="#85DADA" width="14.62" height="13.924"/>
		<rect x="341.006" y="487.004" fill="#85DADA" width="14.62" height="13.924"/>
		<rect x="358.092" y="487.004" fill="#85DADA" width="14.62" height="13.924"/>
		<rect x="375.177" y="487.004" fill="#85DADA" width="14.62" height="13.924"/>
		<rect x="392.263" y="487.004" fill="#85DADA" width="14.62" height="13.924"/>
		<rect x="409.349" y="487.004" fill="#85DADA" width="14.62" height="13.924"/>
	</g>
	<g>
		<rect x="272.663" y="506.498" fill="#85DADA" width="14.62" height="13.924"/>
		<rect x="289.749" y="506.498" fill="#85DADA" width="14.62" height="13.924"/>
		<rect x="306.834" y="506.498" fill="#85DADA" width="82.963" height="13.924"/>
		<rect x="392.263" y="506.498" fill="#85DADA" width="14.62" height="13.924"/>
		<rect x="409.349" y="506.498" fill="#85DADA" width="14.62" height="13.924"/>
	</g>
</g>
<g>
	<rect x="44.322" y="200.229" fill="#70B4B4" width="74.101" height="96.051"/>
	<g>
		<g>
			<path fill="#85DADA" d="M56.838,197.661c0-1.038-0.743-1.888-1.65-1.888c-0.908,0-1.65,0.849-1.65,1.888v5.137
				c0,1.038,0.743,1.888,1.65,1.888c0.908,0,1.65-0.849,1.65-1.888V197.661z"/>
		</g>
		<g>
			<path fill="#85DADA" d="M64.319,197.661c0-1.038-0.743-1.888-1.65-1.888s-1.65,0.849-1.65,1.888v5.137
				c0,1.038,0.743,1.888,1.65,1.888c0.908,0,1.65-0.849,1.65-1.888V197.661z"/>
		</g>
		<g>
			<path fill="#85DADA" d="M71.801,197.661c0-1.038-0.743-1.888-1.65-1.888s-1.65,0.849-1.65,1.888v5.137
				c0,1.038,0.743,1.888,1.65,1.888s1.65-0.849,1.65-1.888V197.661z"/>
		</g>
		<g>
			<path fill="#85DADA" d="M79.283,197.661c0-1.038-0.743-1.888-1.65-1.888c-0.908,0-1.65,0.849-1.65,1.888v5.137
				c0,1.038,0.743,1.888,1.65,1.888c0.908,0,1.65-0.849,1.65-1.888V197.661z"/>
		</g>
		<g>
			<path fill="#85DADA" d="M86.764,197.661c0-1.038-0.743-1.888-1.65-1.888s-1.65,0.849-1.65,1.888v5.137
				c0,1.038,0.743,1.888,1.65,1.888s1.65-0.849,1.65-1.888V197.661z"/>
		</g>
		<g>
			<path fill="#85DADA" d="M94.246,197.661c0-1.038-0.743-1.888-1.65-1.888c-0.908,0-1.65,0.849-1.65,1.888v5.137
				c0,1.038,0.743,1.888,1.65,1.888c0.908,0,1.65-0.849,1.65-1.888V197.661z"/>
		</g>
		<g>
			<path fill="#85DADA" d="M101.727,197.661c0-1.038-0.743-1.888-1.65-1.888s-1.65,0.849-1.65,1.888v5.137
				c0,1.038,0.743,1.888,1.65,1.888s1.65-0.849,1.65-1.888V197.661z"/>
		</g>
		<g>
			<path fill="#85DADA" d="M109.209,197.661c0-1.038-0.743-1.888-1.65-1.888c-0.908,0-1.65,0.849-1.65,1.888v5.137
				c0,1.038,0.743,1.888,1.65,1.888c0.908,0,1.65-0.849,1.65-1.888V197.661z"/>
		</g>
		<g>
			<path fill="#85DADA" d="M116.691,197.661c0-1.038-0.743-1.888-1.65-1.888s-1.65,0.849-1.65,1.888v5.137
				c0,1.038,0.743,1.888,1.65,1.888s1.65-0.849,1.65-1.888V197.661z"/>
		</g>
		<g>
			<path fill="#85DADA" d="M49.356,197.661c0-1.038-0.743-1.888-1.65-1.888c-0.908,0-1.65,0.849-1.65,1.888v5.137
				c0,1.038,0.743,1.888,1.65,1.888c0.908,0,1.65-0.849,1.65-1.888V197.661z"/>
		</g>
	</g>
	<g>
		
			<line fill="none" stroke="#85DADA" stroke-width="4.4042" stroke-miterlimit="10" x1="53.592" y1="219.538" x2="109.154" y2="219.538"/>
		
			<line fill="none" stroke="#85DADA" stroke-width="4.4042" stroke-miterlimit="10" x1="53.592" y1="227.295" x2="109.154" y2="227.295"/>
		
			<line fill="none" stroke="#85DADA" stroke-width="4.4042" stroke-miterlimit="10" x1="53.592" y1="235.052" x2="109.154" y2="235.052"/>
		
			<line fill="none" stroke="#85DADA" stroke-width="4.4042" stroke-miterlimit="10" x1="53.592" y1="242.808" x2="109.154" y2="242.808"/>
		
			<line fill="none" stroke="#85DADA" stroke-width="4.4042" stroke-miterlimit="10" x1="53.592" y1="250.565" x2="109.154" y2="250.565"/>
		
			<line fill="none" stroke="#85DADA" stroke-width="4.4042" stroke-miterlimit="10" x1="53.592" y1="266.078" x2="109.154" y2="266.078"/>
		
			<line fill="none" stroke="#85DADA" stroke-width="4.4042" stroke-miterlimit="10" x1="53.592" y1="258.322" x2="109.154" y2="258.322"/>
		
			<line fill="none" stroke="#85DADA" stroke-width="4.4042" stroke-miterlimit="10" x1="53.592" y1="273.835" x2="109.154" y2="273.835"/>
	</g>
</g>
<g>
	<path fill="#85DADA" d="M783.606,341.751c-0.7-2.407-3.261-3.873-5.692-3.257l-5.853,1.482c-2.43,0.615-3.985,3.124-3.455,5.574
		l0.638,2.953l15.204-3.851L783.606,341.751z"/>
	<path fill="#5C8F8F" d="M769.246,348.503l11.194,51.748c0.53,2.45,2.952,3.951,5.382,3.336l10.271-2.601
		c2.43-0.616,3.846-3.088,3.145-5.495l-14.788-50.837L769.246,348.503z"/>
	<circle fill="#70B4B4" cx="766.458" cy="305.554" r="36.548"/>
	<path fill="#85DADA" d="M796.759,297.879c-4.239-16.735-21.241-26.865-37.976-22.627c-8.736,2.213-15.665,7.907-19.697,15.221
		c4.133-6.435,10.617-11.381,18.616-13.407c16.735-4.239,33.737,5.892,37.976,22.627c2.026,7.999,0.763,16.055-2.929,22.753
		C797.262,315.419,798.971,306.615,796.759,297.879z"/>
	<path fill="#99FFFF" d="M757.702,277.067c-7.999,2.026-14.483,6.972-18.616,13.407c-3.692,6.698-4.956,14.755-2.93,22.755
		c4.239,16.735,21.241,26.865,37.976,22.627c7.999-2.026,14.483-6.973,18.617-13.408c3.692-6.698,4.955-14.754,2.929-22.753
		C791.439,282.958,774.437,272.828,757.702,277.067z"/>
</g>
<g>
	<g>
		<path fill="#5C8F8F" d="M492.323,65.319c-3.499-4.243-10.86-7.842-16.358-7.998l-61.815-1.749
			c-5.498-0.156-10.218,4.212-10.489,9.705l-2.101,42.537c-0.271,5.493,4.005,9.856,9.502,9.694l111.362-3.272
			c5.498-0.162,7.133-3.765,3.633-8.009L492.323,65.319z"/>
	</g>
	
		<text transform="matrix(1 0 0 1 415.7083 94.9495)" fill="#85DADA" font-family="'OpenSans-Bold'" font-size="27.7082" letter-spacing="3">CSS3</text>
</g>
<g>
	<polygon fill="#5C8F8F" points="565.587,368.733 534.067,368.733 502.546,368.733 495.323,405.725 534.067,405.725 572.81,405.725 
			"/>
	<path fill="#85DADA" d="M574.78,402.442c-4.816,0-40.713,0-40.713,0s-35.898,0-40.713,0c-4.816,0-5.691,1.97-5.691,6.567h46.405
		h46.405C580.471,404.412,579.596,402.442,574.78,402.442z"/>
	<path fill="#476969" d="M703.301,138.814c0-6.469-5.293-11.762-11.762-11.762H375.719c-6.469,0-11.762,5.293-11.762,11.762v202.606
		h339.344V138.814z"/>
	<rect x="378.66" y="140.579" fill="#70B4B4" width="311.114" height="186.727"/>
	<path fill="#85DADA" d="M363.957,341.421v20.584c0,6.469,5.293,11.762,11.762,11.762h315.819c6.469,0,11.762-5.293,11.762-11.762
		v-20.584H363.957z"/>
	<rect x="378.595" y="140.579" fill="#70B4B4" width="311.178" height="186.298"/>
	<g>
		<rect x="556.898" y="164.759" fill="#85DADA" width="51.863" height="39.123"/>
		<line fill="none" stroke="#FFFFFF" stroke-miterlimit="10" x1="556.898" y1="203.882" x2="608.761" y2="164.759"/>
		<line fill="none" stroke="#FFFFFF" stroke-miterlimit="10" x1="556.898" y1="164.759" x2="608.761" y2="203.882"/>
	</g>
	<g>
		<rect x="556.898" y="229.051" fill="#85DADA" width="117.498" height="86.939"/>
		<line fill="none" stroke="#FFFFFF" stroke-miterlimit="10" x1="556.898" y1="315.99" x2="674.396" y2="229.051"/>
		<line fill="none" stroke="#FFFFFF" stroke-miterlimit="10" x1="556.898" y1="229.051" x2="674.396" y2="315.99"/>
	</g>
	<g>
		<rect x="622.533" y="164.759" fill="#99FFFF" width="51.863" height="39.123"/>
		<line fill="none" stroke="#FFFFFF" stroke-miterlimit="10" x1="622.533" y1="203.882" x2="674.396" y2="164.759"/>
		<line fill="none" stroke="#FFFFFF" stroke-miterlimit="10" x1="622.533" y1="164.759" x2="674.396" y2="203.882"/>
	</g>
	
		<text transform="matrix(1 0 0 1 399.3653 206.1738)" fill="#85DADA" font-family="'OpenSans'" font-size="45.5781" letter-spacing="5">Title</text>
	
		<line fill="none" stroke="#85DADA" stroke-width="3" stroke-miterlimit="10" x1="399.366" y1="233.728" x2="534.185" y2="233.728"/>
	
		<line fill="none" stroke="#85DADA" stroke-width="3" stroke-miterlimit="10" x1="399.366" y1="253.124" x2="534.185" y2="253.124"/>
	
		<line fill="none" stroke="#85DADA" stroke-width="3" stroke-miterlimit="10" x1="399.366" y1="272.521" x2="534.185" y2="272.521"/>
	
		<line fill="none" stroke="#85DADA" stroke-width="3" stroke-miterlimit="10" x1="399.366" y1="291.917" x2="534.185" y2="291.917"/>
	
		<line fill="none" stroke="#85DADA" stroke-width="3" stroke-miterlimit="10" x1="399.366" y1="311.313" x2="496.177" y2="311.313"/>
</g>
<g>
	<polygon fill="#85DADA" points="750.782,166.029 777.26,170.957 753.236,198.894 761.078,205.638 829.962,125.536 	"/>
	<polygon fill="#70B4B4" points="829.962,125.536 761.078,205.638 768.921,212.382 792.946,184.445 801.789,209.893 	"/>
</g>
<g>
	<polygon fill="#99FFFF" points="340.65,368.733 309.13,368.733 277.609,368.733 270.386,405.725 309.13,405.725 347.873,405.725 	
		"/>
	<path fill="#85DADA" d="M349.843,402.442c-4.816,0-40.713,0-40.713,0s-35.898,0-40.713,0c-4.816,0-5.691,1.97-5.691,6.567h46.405
		h46.405C355.534,404.412,354.659,402.442,349.843,402.442z"/>
	<path fill="#99FFFF" d="M434.991,198.875c0-4.816-3.94-8.756-8.756-8.756H191.148c-4.816,0-8.756,3.94-8.756,8.756v150.815h252.598
		V198.875z"/>
	<rect x="193.337" y="200.188" fill="#70B4B4" width="231.585" height="138.995"/>
	<path fill="#70B4B4" d="M182.393,349.689v15.322c0,4.816,3.94,8.756,8.756,8.756h235.087c4.816,0,8.756-3.94,8.756-8.756v-15.322
		H182.393z"/>
	<g>
		<rect x="193.337" y="200.188" fill="#5C8F8F" width="231.585" height="138.995"/>
		<g>
			
				<line fill="none" stroke="#F97B62" stroke-width="3" stroke-miterlimit="10" x1="210.862" y1="215.649" x2="300.266" y2="215.649"/>
			
				<line fill="none" stroke="#F97B62" stroke-width="3" stroke-miterlimit="10" x1="210.862" y1="323.721" x2="300.266" y2="323.721"/>
			
				<line fill="none" stroke="#70B4B4" stroke-width="3" stroke-miterlimit="10" x1="226.897" y1="221.653" x2="316.301" y2="221.653"/>
			
				<line fill="none" stroke="#70B4B4" stroke-width="3" stroke-miterlimit="10" x1="226.897" y1="245.669" x2="245.563" y2="245.669"/>
			
				<line fill="none" stroke="#70B4B4" stroke-width="3" stroke-miterlimit="10" x1="226.897" y1="251.673" x2="271.599" y2="251.673"/>
			
				<line fill="none" stroke="#70B4B4" stroke-width="3" stroke-miterlimit="10" x1="226.897" y1="281.693" x2="271.599" y2="281.693"/>
			
				<line fill="none" stroke="#85DADA" stroke-width="3" stroke-miterlimit="10" x1="242.933" y1="293.701" x2="287.635" y2="293.701"/>
			
				<line fill="none" stroke="#85DADA" stroke-width="3" stroke-miterlimit="10" x1="242.933" y1="311.713" x2="287.635" y2="311.713"/>
			
				<line fill="none" stroke="#99FFFF" stroke-width="3" stroke-miterlimit="10" x1="258.968" y1="299.705" x2="303.67" y2="299.705"/>
			
				<line fill="none" stroke="#99FFFF" stroke-width="3" stroke-miterlimit="10" x1="258.968" y1="305.709" x2="303.67" y2="305.709"/>
			
				<line fill="none" stroke="#70B4B4" stroke-width="3" stroke-miterlimit="10" x1="226.897" y1="287.697" x2="284.602" y2="287.697"/>
			
				<line fill="none" stroke="#70B4B4" stroke-width="3" stroke-miterlimit="10" x1="226.897" y1="317.717" x2="284.602" y2="317.717"/>
			
				<line fill="none" stroke="#85DADA" stroke-width="3" stroke-miterlimit="10" x1="242.933" y1="227.657" x2="338.822" y2="227.657"/>
			
				<line fill="none" stroke="#85DADA" stroke-width="3" stroke-miterlimit="10" x1="242.933" y1="233.661" x2="360.511" y2="233.661"/>
			
				<line fill="none" stroke="#85DADA" stroke-width="3" stroke-miterlimit="10" x1="242.933" y1="239.665" x2="349.908" y2="239.665"/>
			
				<line fill="none" stroke="#85DADA" stroke-width="3" stroke-miterlimit="10" x1="242.933" y1="257.677" x2="329.906" y2="257.677"/>
			<g>
				
					<line fill="none" stroke="#85DADA" stroke-width="3" stroke-miterlimit="10" x1="242.933" y1="263.681" x2="371.114" y2="263.681"/>
				
					<line fill="none" stroke="#85DADA" stroke-width="3" stroke-miterlimit="10" x1="380.533" y1="263.681" x2="405.574" y2="263.681"/>
			</g>
			
				<line fill="none" stroke="#85DADA" stroke-width="3" stroke-miterlimit="10" x1="242.933" y1="269.685" x2="400.513" y2="269.685"/>
			<g>
				
					<line fill="none" stroke="#85DADA" stroke-width="3" stroke-miterlimit="10" x1="242.933" y1="275.689" x2="318.58" y2="275.689"/>
				
					<line fill="none" stroke="#85DADA" stroke-width="3" stroke-miterlimit="10" x1="322.687" y1="275.689" x2="398.334" y2="275.689"/>
			</g>
		</g>
	</g>
	<g>
		<rect x="193.337" y="200.188" fill="#85DADA" width="231.585" height="138.995"/>
		<g>
			<rect x="206.788" y="266.196" fill="#99FFFF" width="204.683" height="64.864"/>
		</g>
		
			<text transform="matrix(0.9256 0 0 1 257.6388 249.1274)" fill="#99FFFF" font-family="'OpenSans'" font-size="36.0582" letter-spacing="4.321">Title</text>
	</g>
</g>
<g>
	<polygon fill="#85DADA" points="735.892,450.647 728.449,467.639 720.036,451.106 	"/>
	<path fill="#70B4B4" d="M727.964,450.862l7.928-0.229c-6.357-7.079-3.373-118.418-11.356-118.187s1.436,111.211-4.501,118.646
		L727.964,450.862z"/>
</g>
<g>
	<path fill="#F97B62" d="M442.961,399.773c-0.745-6.178,7.702-13.135,8.944-15.122c1.242-1.988,1.242-1.988,1.242-1.988
		s43.977-39.008,47.704-42.238c3.727-3.23,15.404,1.739,8.944,9.441s-6.46,7.702-6.46,7.702l-37.268,42.204
		c0,0-11.912,9.203-16.018,8.469C445.943,407.509,442.961,399.773,442.961,399.773z"/>
	<path fill="#70B4B4" d="M446.937,403.037c5.384,5.058,5.253,17.392-6.957,19.131c-12.21,1.739-18.137-0.248-18.137-0.248
		s6.46,0.248,6.957-8.696C429.545,402.291,438.737,395.335,446.937,403.037z"/>
	<g>
		<path fill="#70B4B4" d="M469.212,397.031c0.778,0.778,0.853,1.975,0.168,2.66s-1.883,0.61-2.66-0.168l-14.694-14.694
			c-0.778-0.778-0.853-1.975-0.168-2.66c0.685-0.685,1.883-0.61,2.66,0.168L469.212,397.031z"/>
	</g>
</g>
</svg>
