<?xml version="1.0" encoding="UTF-8" standalone="no"?>
<svg width="250px" height="251px" viewBox="0 0 250 251" version="1.1" xmlns="http://www.w3.org/2000/svg" xmlns:xlink="http://www.w3.org/1999/xlink" xmlns:sketch="http://www.bohemiancoding.com/sketch/ns">
    <!-- Generator: Sketch 3.3.3 (12081) - http://www.bohemiancoding.com/sketch -->
    <title>Artboard 1 Copy 7</title>
    <desc>Created with Sketch.</desc>
    <defs></defs>
    <g id="Page-1" stroke="none" stroke-width="1" fill="none" fill-rule="evenodd" sketch:type="MSPage">
        <g id="Artboard-1-Copy-7" sketch:type="MSArtboardGroup" transform="translate(0.000000, 0.042969)">
            <path d="M48.3027804,31.7260598 C56.459077,28.3476112 67.2174954,23.8913283 78.0875531,19.388803 C101.289462,9.77825747 125,-0.04296875 125,-0.04296875 C125,-0.04296875 149.631822,10.159866 173.172136,19.9105832 C183.443977,24.165319 193.507992,28.3339706 201.22703,31.5313009 C205.280803,33.2104285 213.388348,36.5686836 213.388348,36.5686836 L250,124.957031 L213.388348,213.345379 L125,249.957031 L36.6116524,213.345379 L0,124.957031 C0,124.957031 19.0377497,78.9958376 28.5566246,56.0152408 C31.2416339,49.5330551 36.6116524,36.5686836 36.6116524,36.5686836 L48.3027804,31.7260598 Z" id="Polygon-1-Copy-3" stroke="#FFFFFF" stroke-width="2" sketch:type="MSShapeGroup"></path>
            <path d="M209.605745,167.964273 C209.605745,170.671636 211.793191,172.866 214.489574,172.866 L235.003617,172.866 C237.704894,172.866 239.887447,170.669182 239.887447,167.964273 L239.887447,122.889 C239.887447,120.184091 237.702447,117.987273 235.003617,117.987273 L214.489574,117.987273 C211.790745,117.987273 209.605745,120.186545 209.605745,122.889 L209.605745,167.964273 Z M212,124 L237,124 L237,167 L212,167 L212,124 Z" id="Shape" fill="#FFFFFF" sketch:type="MSShapeGroup"></path>
            <rect id="Rectangle-64" fill-opacity="0.3" fill="#FFFFFF" sketch:type="MSShapeGroup" x="212" y="124" width="25" height="43"></rect>
            <rect id="Rectangle-64-Copy" fill-opacity="0.5" fill="#FFFFFF" sketch:type="MSShapeGroup" x="224" y="124" width="13" height="43"></rect>
            <path d="M205.455957,162 L205.455957,167.964273 C205.455957,168.877364 205.595426,169.788 205.867021,170.656909 L205.867021,170.656909 L157.833723,170.656909 C155.817553,170.656909 154.170851,169.009909 154.170851,166.984909 L154.170851,86.6304545 C154.170851,84.603 155.817553,82.956 157.833723,82.956 L219.375851,82.956 C221.392021,82.956 223.036277,84.6054545 223.036277,86.6304545 L223.036277,113.824364 L215,113.824364 L215,92 L163,92 L163,162 L205.455957,162 Z" id="Shape" fill="#FFFFFF" sketch:type="MSShapeGroup"></path>
            <rect id="Rectangle-61" fill-opacity="0.3" fill="#FFFFFF" sketch:type="MSShapeGroup" x="163" y="92" width="52" height="70"></rect>
            <rect id="Rectangle-61-Copy" fill-opacity="0.5" fill="#FFFFFF" sketch:type="MSShapeGroup" x="189" y="92" width="26" height="70"></rect>
            <path d="M200,78.7930909 L211.338085,78.7930909 L211.338085,18.0357273 C211.338085,15.3283636 209.155532,13.1364545 206.454255,13.1364545 L14.9939362,13.1364545 C12.2951064,13.1364545 10.1125532,15.3283636 10.1125532,18.0332727 L10.1125532,141.506727 C10.1125532,144.209182 12.2951064,146.406 14.9939362,146.406 L92.0904255,146.406 L83.5926596,168.563182 C83.5926596,170.401636 85.0778723,171.884182 86.9031915,171.884182 L134.547447,171.884182 C136.380106,171.884182 137.860426,170.399182 137.860426,168.563182 L129.360213,146.406 L150.021064,146.406 L150.021064,125 L22,125 L22,25 L200,25 L200,78.7930909 Z" id="Shape" fill="#FFFFFF" sketch:type="MSShapeGroup"></path>
            <rect id="Rectangle-58" fill-opacity="0.3" fill="#FFFFFF" sketch:type="MSShapeGroup" x="22" y="24" width="178" height="101"></rect>
            <rect id="Rectangle-58-Copy" fill-opacity="0.5" fill="#FFFFFF" sketch:type="MSShapeGroup" x="111" y="24" width="89" height="101"></rect>
        </g>
    </g>
</svg>