<?xml version="1.0" encoding="UTF-8" standalone="no"?>
<svg width="250px" height="250px" viewBox="0 0 250 250" version="1.1" xmlns="http://www.w3.org/2000/svg" xmlns:xlink="http://www.w3.org/1999/xlink" xmlns:sketch="http://www.bohemiancoding.com/sketch/ns">
    <!-- Generator: Sketch 3.3.3 (12081) - http://www.bohemiancoding.com/sketch -->
    <title>Artboard 1</title>
    <desc>Created with Sketch.</desc>
    <defs></defs>
    <g id="Page-1" stroke="none" stroke-width="1" fill="none" fill-rule="evenodd" sketch:type="MSPage">
        <g id="Artboard-1" sketch:type="MSArtboardGroup">
            <polygon id="Polygon-1" stroke="#FFFFFF" stroke-width="2" sketch:type="MSShapeGroup" points="125 0 213.388348 36.6116524 250 125 213.388348 213.388348 125 250 36.6116524 213.388348 0 125 36.6116524 36.6116524 "></polygon>
            <rect id="Rectangle-47" fill-opacity="0.2" fill="#FFFFFF" sketch:type="MSShapeGroup" x="34" y="67" width="183" height="114"></rect>
            <rect id="Rectangle-47-Copy" fill-opacity="0.5" fill="#FFFFFF" sketch:type="MSShapeGroup" x="125" y="67" width="92" height="114"></rect>
            <g id="Group-Copy" sketch:type="MSLayerGroup" transform="translate(34.000000, 24.000000)">
                <rect id="Rectangle-path-Copy-2" stroke="#FFFFFF" stroke-width="3" sketch:type="MSShapeGroup" x="0" y="0" width="183" height="156.855072"></rect>
                <path d="M0,42.2173913 L183,42.2173913" id="Shape-Copy" stroke="#FFFFFF" stroke-width="3" sketch:type="MSShapeGroup"></path>
                <path d="M0,129.231884 L183,129.231884" id="Shape-Copy-2" stroke="#FFFFFF" stroke-width="3" sketch:type="MSShapeGroup"></path>
                <rect id="Rectangle-path-Copy" fill="#FFFFFF" sketch:type="MSShapeGroup" x="68.625" y="92.5942029" width="45.75" height="13.2811594"></rect>
                <path d="M0,0 L183,0 L183,42 L0,42 L0,0 Z M57.1875,23.1086957 L80.0625,23.1086957 L80.0625,20.1086957 L57.1875,20.1086957 L57.1875,23.1086957 Z M86.925,23.1086957 L109.8,23.1086957 L109.8,20.1086957 L86.925,20.1086957 L86.925,23.1086957 L86.925,23.1086957 Z M116.6625,23.1086957 L139.5375,23.1086957 L139.5375,20.1086957 L116.6625,20.1086957 L116.6625,23.1086957 L116.6625,23.1086957 Z M146.4,23.1086957 L169.275,23.1086957 L169.275,20.1086957 L146.4,20.1086957 L146.4,23.1086957 L146.4,23.1086957 Z M26.9925,10.1594203 L30.195,17.0289855 L37.9725,18.173913 L32.4825,23.4405797 L33.62625,30.9971014 L26.9925,27.3333333 L20.13,30.9971014 L21.5025,23.4405797 L16.0125,18.173913 L23.56125,17.0289855 L26.9925,10.1594203 L26.9925,10.1594203 Z" id="Rectangle-48" fill="#FFFFFF" sketch:type="MSShapeGroup"></path>
                <g id="Group" transform="translate(16.000000, 10.000000)"></g>
                <path d="M59.475,83.4347826 L123.525,83.4347826" id="Shape-Copy-8" stroke="#FFFFFF" stroke-width="3" sketch:type="MSShapeGroup"></path>
                <path d="M50.325,69.6956522 L132.675,69.6956522" id="Shape-Copy-9" stroke="#FFFFFF" stroke-width="3" sketch:type="MSShapeGroup"></path>
            </g>
        </g>
    </g>
</svg>