<?xml version="1.0" encoding="UTF-8" standalone="no"?>
<svg width="250px" height="251px" viewBox="0 0 250 251" version="1.1" xmlns="http://www.w3.org/2000/svg" xmlns:xlink="http://www.w3.org/1999/xlink" xmlns:sketch="http://www.bohemiancoding.com/sketch/ns">
    <!-- Generator: Sketch 3.3.3 (12081) - http://www.bohemiancoding.com/sketch -->
    <title>Artboard 1 Copy 5</title>
    <desc>Created with Sketch.</desc>
    <defs></defs>
    <g id="Page-1" stroke="none" stroke-width="1" fill="none" fill-rule="evenodd" sketch:type="MSPage">
        <g id="Artboard-1-Copy-5" sketch:type="MSArtboardGroup" transform="translate(0.000000, 0.042969)">
            <path d="M48.3027804,31.7260598 C56.459077,28.3476112 67.2174954,23.8913283 78.0875531,19.388803 C101.289462,9.77825747 125,-0.04296875 125,-0.04296875 C125,-0.04296875 149.631822,10.159866 173.172136,19.9105832 C183.443977,24.165319 193.507992,28.3339706 201.22703,31.5313009 C205.280803,33.2104285 213.388348,36.5686836 213.388348,36.5686836 L250,124.957031 L213.388348,213.345379 L125,249.957031 L36.6116524,213.345379 L0,124.957031 C0,124.957031 19.0377497,78.9958376 28.5566246,56.0152408 C31.2416339,49.5330551 36.6116524,36.5686836 36.6116524,36.5686836 L48.3027804,31.7260598 Z" id="Polygon-1-Copy-3" stroke="#FFFFFF" stroke-width="2" sketch:type="MSShapeGroup"></path>
            <path d="M41.8619313,24 L208.138069,24 L208.138069,149.630859 L41.8619313,149.630859 L41.8619313,24 Z M148.093908,86.8154297 L113.453046,66.8155187 L113.453046,106.815341 L148.093908,86.8154297 Z" id="Rectangle-53" fill-opacity="0.3" fill="#FFFFFF" sketch:type="MSShapeGroup"></path>
            <rect id="Rectangle-53-Copy-2" fill="#FFFFFF" sketch:type="MSShapeGroup" x="41.8619313" y="24" width="166.276137" height="11.0850758"></rect>
            <rect id="Rectangle-53-Copy-3" fill="#FFFFFF" sketch:type="MSShapeGroup" x="41.8619313" y="138.545784" width="166.276137" height="11.0850758"></rect>
            <path d="M125,100.148704 L125,149.630859 L208.138069,149.630859 L208.138069,24 L125,24 L125,73.4821557 L148.093908,86.8154297 L125,100.148704 Z" id="Rectangle-53-Copy" fill-opacity="0.5" fill="#FFFFFF" sketch:type="MSShapeGroup"></path>
            <path d="M215,191 C229.359403,191 241,179.359403 241,165 C241,150.640597 229.359403,139 215,139 C200.640597,139 189,150.640597 189,165 C189,179.359403 200.640597,191 215,191 Z M228.989466,161.732537 C228.87,161.789713 228.750533,161.789713 228.688666,161.789713 C227.848133,161.967596 227.248666,162.795596 227.370266,163.623596 C227.850266,168.530184 225.450266,173.43889 220.8892,176.041478 C216.688666,178.466184 211.709466,178.229007 207.809733,175.982184 C208.948933,175.272772 208.471066,173.201713 207.1484,172.966654 L203.127066,172.314419 C202.947866,172.257243 202.766533,172.257243 202.587333,172.314419 C201.687066,172.433007 201.027866,173.320301 201.147333,174.207596 L201.866266,178.169713 C201.926,178.938419 202.647066,179.588537 203.425733,179.647831 C204.206533,179.707125 204.9852,179.116301 205.166533,178.347596 C210.205466,181.71889 216.9852,182.131831 222.566,178.938419 C228.326,175.685713 231.265733,169.476772 230.666266,163.327125 C230.6108,162.499125 229.83,161.732537 228.989466,161.732537 Z M215.038151,149.026654 C212.337351,149.083831 209.638685,149.736066 207.178951,151.15489 C201.418951,154.407596 198.477085,160.675831 199.076551,166.825478 C199.018951,167.769949 199.976818,168.657243 200.936818,168.540772 C201.896818,168.481478 202.675485,167.418419 202.436551,166.469713 C201.956551,161.620301 204.296818,156.713713 208.857885,154.051831 C213.058418,151.686419 218.037618,151.864301 221.939485,154.111125 C220.798151,154.879831 221.278151,157.008066 222.658418,157.185949 L226.679751,157.836066 C227.699485,158.013949 228.778951,156.948772 228.597618,155.885713 L227.938418,151.923596 C227.816818,151.095596 226.978418,150.445478 226.137885,150.504772 C225.416818,150.561949 224.757618,151.15489 224.578418,151.864301 C222.479218,150.445478 220.138951,149.49889 217.679218,149.202419 C216.781085,149.085949 215.880818,149.026654 215.038151,149.026654 Z" id="Oval-1" fill="#FFFFFF" sketch:type="MSShapeGroup"></path>
        </g>
    </g>
</svg>