<?xml version="1.0" encoding="UTF-8" standalone="no"?>
<svg width="250px" height="250px" viewBox="0 0 250 250" version="1.1" xmlns="http://www.w3.org/2000/svg" xmlns:xlink="http://www.w3.org/1999/xlink" xmlns:sketch="http://www.bohemiancoding.com/sketch/ns">
    <!-- Generator: Sketch 3.3.3 (12081) - http://www.bohemiancoding.com/sketch -->
    <title>Artboard 1 Copy 2</title>
    <desc>Created with Sketch.</desc>
    <defs>
        <path d="M5.91587816,0.851766552 C4.43170711,0.830696871 2.96117295,1.46527345 1.9042212,2.50737101 C0.847234413,3.54950321 0.248616745,4.97103882 0.248616745,6.45535087 C0.248616745,7.93966293 0.847234413,9.42487359 1.9042212,10.4670078 C2.96117295,11.5091054 4.43170711,12.1436104 5.91587816,12.1226123 L32.2145182,12.1226123 L37.2450087,23.7755206 L44.185812,94.7118039 L44.2494891,114.196995 C44.2580113,117.288232 46.7618361,119.792057 49.8530734,119.800579 L161.224312,119.800579 C163.32581,119.957057 165.338203,118.924556 166.436745,117.126228 C167.535288,115.3279 167.535288,113.06609 166.436745,111.267762 C165.338203,109.469434 163.32581,108.436933 161.224312,108.593411 L55.4566577,108.593411 L55.3929806,99.1055234 L163.00727,85.1602397 C165.187403,84.8781186 167.136277,83.2044625 167.719375,81.0849057 L183.447618,23.8391977 C183.900681,22.1808526 183.534375,20.3034379 182.492461,18.9360614 C181.450539,17.5686503 179.754161,16.7105582 178.035065,16.7073631 L46.4145103,16.7073631 L41.0656343,4.22665256 C40.2018897,2.22708584 38.0859559,0.852082391 35.9077897,0.851766552 L5.91587816,0.851766552 L5.91587816,0.851766552 Z M61.4772691,124.38533 C56.2302743,124.38533 51.9421126,128.40033 51.9421126,133.278755 C51.9421126,138.157194 56.2278758,142.17218 61.4772691,142.17218 C66.7281772,142.17218 71.0432837,138.157194 71.0432837,133.278755 C71.0432837,128.40033 66.7257609,124.38533 61.4772691,124.38533 L61.4772691,124.38533 Z M149.887643,124.38533 C144.64065,124.38533 140.352487,128.401437 140.352487,133.278755 C140.352487,138.156087 144.63825,142.17218 149.887643,142.17218 C155.140066,142.17218 159.453658,138.157194 159.453658,133.278755 C159.453658,128.40033 155.137667,124.38533 149.887643,124.38533 L149.887643,124.38533 Z" id="path-1"></path>
    </defs>
    <g id="Page-1" stroke="none" stroke-width="1" fill="none" fill-rule="evenodd" sketch:type="MSPage">
        <g id="Artboard-1-Copy-2" sketch:type="MSArtboardGroup">
            <path d="M48.3027804,31.7690285 C56.459077,28.3905799 67.2174954,23.9342971 78.0875531,19.4317718 C101.289462,9.82122622 125,0 125,0 C125,0 149.631822,10.2028348 173.172136,19.953552 C183.443977,24.2082878 193.507992,28.3769394 201.22703,31.5742696 C205.280803,33.2533972 213.388348,36.6116524 213.388348,36.6116524 L250,125 L213.388348,213.388348 L125,250 L36.6116524,213.388348 L0,125 C0,125 19.0377497,79.0388064 28.5566246,56.0582096 C31.2416339,49.5760238 36.6116524,36.6116524 36.6116524,36.6116524 L48.3027804,31.7690285 Z" id="Polygon-1-Copy-2" stroke="#FFFFFF" stroke-width="2" sketch:type="MSShapeGroup"></path>
            <path d="M29.9722398,34.8283291 C28.4880687,34.8072594 27.0175346,35.441836 25.9605828,36.4839335 C24.903596,37.5260657 24.3049784,38.9476013 24.3049784,40.4319134 C24.3049784,41.9162254 24.903596,43.4014361 25.9605828,44.4435703 C27.0175346,45.4856679 28.4880687,46.1201729 29.9722398,46.0991748 L56.2708798,46.0991748 L61.3013703,57.7520831 L68.2421736,128.688366 L68.3058507,148.173557 C68.3143729,151.264795 70.8181977,153.768619 73.909435,153.777142 L185.280673,153.777142 C187.382172,153.93362 189.394564,152.901118 190.493107,151.10279 C191.59165,149.304462 191.59165,147.042652 190.493107,145.244324 C189.394564,143.445996 187.382172,142.413495 185.280673,142.569973 L79.5130193,142.569973 L79.4493422,133.082086 L187.063632,119.136802 C189.243765,118.854681 191.192638,117.181025 191.775737,115.061468 L207.503979,57.8157602 C207.957042,56.1574151 207.590737,54.2800004 206.548823,52.9126239 C205.506901,51.5452128 203.810522,50.6871207 202.091426,50.6839256 L70.4708719,50.6839256 L65.1219959,38.2032151 C64.2582513,36.2036483 62.1423175,34.8286449 59.9641513,34.8283291 L29.9722398,34.8283291 L29.9722398,34.8283291 Z M85.5336307,158.361892 C80.2866359,158.361892 75.9984743,162.376893 75.9984743,167.255317 C75.9984743,172.133757 80.2842374,176.148742 85.5336307,176.148742 C90.7845388,176.148742 95.0996453,172.133757 95.0996453,167.255317 C95.0996453,162.376893 90.7821225,158.361892 85.5336307,158.361892 L85.5336307,158.361892 Z M173.944005,158.361892 C168.697011,158.361892 164.408849,162.378 164.408849,167.255317 C164.408849,172.13265 168.694612,176.148742 173.944005,176.148742 C179.196428,176.148742 183.51002,172.133757 183.51002,167.255317 C183.51002,162.376893 179.194028,158.361892 173.944005,158.361892 L173.944005,158.361892 Z" id="Shape-Copy-10" fill-opacity="0.3" fill="#FFFFFF" sketch:type="MSShapeGroup"></path>
            <g id="Rectangle-51" sketch:type="MSLayerGroup" transform="translate(24.056362, 33.976562)">
                <mask id="mask-2" sketch:name="Mask" fill="white">
                    <use xlink:href="#path-1"></use>
                </mask>
                <use id="Mask" fill-opacity="0.3" fill="#FFFFFF" sketch:type="MSShapeGroup" xlink:href="#path-1"></use>
                <rect fill-opacity="0.5" fill="#FFFFFF" sketch:type="MSShapeGroup" mask="url(#mask-2)" x="102.159598" y="-17.0265997" width="123.726625" height="191.833023"></rect>
            </g>
        </g>
    </g>
</svg>