<?xml version="1.0" encoding="UTF-8" standalone="no"?>
<svg width="250px" height="250px" viewBox="0 0 250 250" version="1.1" xmlns="http://www.w3.org/2000/svg" xmlns:xlink="http://www.w3.org/1999/xlink" xmlns:sketch="http://www.bohemiancoding.com/sketch/ns">
    <!-- Generator: Sketch 3.3.3 (12081) - http://www.bohemiancoding.com/sketch -->
    <title>Artboard 1 Copy</title>
    <desc>Created with Sketch.</desc>
    <defs>
        <path d="M208.128959,31.5316742 L175.778281,31.5316742 C174.549774,31.5316742 173.321267,30.3031674 173.321267,29.0746606 L173.321267,17.6085973 C173.321267,7.78054299 165.540724,0 155.71267,0 L94.6968326,0 C84.8687783,0 77.0882353,7.78054299 77.0882353,17.6085973 L77.0882353,29.0746606 C77.0882353,30.3031674 75.8597285,31.5316742 74.6312217,31.5316742 L41.8710407,31.5316742 C34.5,31.5316742 28.7669683,37.2647059 28.7669683,44.6357466 L28.7669683,167.895928 C28.7669683,175.266968 34.5,181 41.8710407,181 L208.128959,181 C215.5,181 221.233032,175.266968 221.233032,167.895928 L221.233032,44.6357466 C221.233032,37.2647059 215.5,31.5316742 208.128959,31.5316742 L208.128959,31.5316742 L208.128959,31.5316742 Z M88.9638009,17.6085973 C88.9638009,14.7420814 91.4208145,12.2850679 94.2873303,12.2850679 L154.893665,12.2850679 C157.760181,12.2850679 160.217195,14.7420814 160.217195,17.6085973 L160.217195,29.0746606 C160.217195,30.3031674 158.988688,31.5316742 157.760181,31.5316742 L91.4208145,31.5316742 C90.1923077,31.5316742 88.9638009,30.3031674 88.9638009,29.0746606 L88.9638009,17.6085973 L88.9638009,17.6085973 L88.9638009,17.6085973 Z" id="path-1"></path>
        <path d="M208.128959,31.5316742 L175.778281,31.5316742 C174.549774,31.5316742 173.321267,30.3031674 173.321267,29.0746606 L173.321267,17.6085973 C173.321267,7.78054299 165.540724,0 155.71267,0 L94.6968326,0 C84.8687783,0 77.0882353,7.78054299 77.0882353,17.6085973 L77.0882353,29.0746606 C77.0882353,30.3031674 75.8597285,31.5316742 74.6312217,31.5316742 L41.8710407,31.5316742 C34.5,31.5316742 28.7669683,37.2647059 28.7669683,44.6357466 L28.7669683,167.895928 C28.7669683,175.266968 34.5,181 41.8710407,181 L208.128959,181 C215.5,181 221.233032,175.266968 221.233032,167.895928 L221.233032,44.6357466 C221.233032,37.2647059 215.5,31.5316742 208.128959,31.5316742 L208.128959,31.5316742 L208.128959,31.5316742 Z M88.9638009,17.6085973 C88.9638009,14.7420814 91.4208145,12.2850679 94.2873303,12.2850679 L154.893665,12.2850679 C157.760181,12.2850679 160.217195,14.7420814 160.217195,17.6085973 L160.217195,29.0746606 C160.217195,30.3031674 158.988688,31.5316742 157.760181,31.5316742 L91.4208145,31.5316742 C90.1923077,31.5316742 88.9638009,30.3031674 88.9638009,29.0746606 L88.9638009,17.6085973 L88.9638009,17.6085973 L88.9638009,17.6085973 Z" id="path-3"></path>
        <path d="M180.128959,31.5316742 L147.778281,31.5316742 C146.549774,31.5316742 145.321267,30.3031674 145.321267,29.0746606 L145.321267,17.6085973 C145.321267,7.78054299 137.540724,0 127.71267,0 L66.6968326,0 C56.8687783,0 49.0882353,7.78054299 49.0882353,17.6085973 L49.0882353,29.0746606 C49.0882353,30.3031674 47.8597285,31.5316742 46.6312217,31.5316742 L13.8710407,31.5316742 C6.5,31.5316742 0.766968326,37.2647059 0.766968326,44.6357466 L0.766968326,167.895928 C0.766968326,175.266968 6.5,181 13.8710407,181 L180.128959,181 C187.5,181 193.233032,175.266968 193.233032,167.895928 L193.233032,44.6357466 C193.233032,37.2647059 187.5,31.5316742 180.128959,31.5316742 L180.128959,31.5316742 L180.128959,31.5316742 Z M60.9638009,17.6085973 C60.9638009,14.7420814 63.4208145,12.2850679 66.2873303,12.2850679 L126.893665,12.2850679 C129.760181,12.2850679 132.217195,14.7420814 132.217195,17.6085973 L132.217195,29.0746606 C132.217195,30.3031674 130.988688,31.5316742 129.760181,31.5316742 L63.4208145,31.5316742 C62.1923077,31.5316742 60.9638009,30.3031674 60.9638009,29.0746606 L60.9638009,17.6085973 L60.9638009,17.6085973 L60.9638009,17.6085973 Z" id="path-5"></path>
    </defs>
    <g id="Page-1" stroke="none" stroke-width="1" fill="none" fill-rule="evenodd" sketch:type="MSPage">
        <g id="Artboard-1-Copy" sketch:type="MSArtboardGroup">
            <path d="M48.3027804,31.7690285 C56.459077,28.3905799 67.2174954,23.9342971 78.0875531,19.4317718 C101.289462,9.82122622 125,0 125,0 C125,0 149.631822,10.2028348 173.172136,19.953552 C183.443977,24.2082878 193.507992,28.3769394 201.22703,31.5742696 C205.280803,33.2533972 213.388348,36.6116524 213.388348,36.6116524 L250,125 L213.388348,213.388348 L125,250 L36.6116524,213.388348 L0,125 C0,125 19.0377497,79.0388064 28.5566246,56.0582096 C31.2416339,49.5760238 36.6116524,36.6116524 36.6116524,36.6116524 L48.3027804,31.7690285 Z" id="Polygon-1-Copy" stroke="#FFFFFF" stroke-width="2" sketch:type="MSShapeGroup"></path>
            <mask id="mask-2" sketch:name="Mask Copy" fill="white">
                <use xlink:href="#path-1"></use>
            </mask>
            <use id="Mask-Copy" stroke="#FFFFFF" stroke-width="2" fill-opacity="0.3" fill="#FFFFFF" sketch:type="MSShapeGroup" xlink:href="#path-1"></use>
            <mask id="mask-4" sketch:name="Mask Copy 2" fill="white">
                <use xlink:href="#path-3"></use>
            </mask>
            <use id="Mask-Copy-2" stroke="#FFFFFF" stroke-width="2" fill-opacity="0.3" fill="#FFFFFF" sketch:type="MSShapeGroup" xlink:href="#path-3"></use>
            <g id="Rectangle-50" sketch:type="MSLayerGroup" mask="url(#mask-4)">
                <g transform="translate(28.000000, 0.000000)">
                    <mask id="mask-6" sketch:name="Mask" fill="white">
                        <use xlink:href="#path-5"></use>
                    </mask>
                    <use id="Mask" stroke="none" fill-opacity="0.3" fill="#FFFFFF" fill-rule="evenodd" sketch:type="MSShapeGroup" xlink:href="#path-5"></use>
                    <rect id="Rectangle-50" stroke="none" fill-opacity="0.5" fill="#FFFFFF" fill-rule="evenodd" sketch:type="MSShapeGroup" mask="url(#mask-6)" x="97" y="-25" width="150" height="230"></rect>
                </g>
            </g>
        </g>
    </g>
</svg>