<?xml version="1.0" encoding="UTF-8" standalone="no"?>
<svg width="250px" height="251px" viewBox="0 0 250 251" version="1.1" xmlns="http://www.w3.org/2000/svg" xmlns:xlink="http://www.w3.org/1999/xlink" xmlns:sketch="http://www.bohemiancoding.com/sketch/ns">
    <!-- Generator: Sketch 3.3.3 (12081) - http://www.bohemiancoding.com/sketch -->
    <title>Artboard 1 Copy 4</title>
    <desc>Created with Sketch.</desc>
    <defs></defs>
    <g id="Page-1" stroke="none" stroke-width="1" fill="none" fill-rule="evenodd" sketch:type="MSPage">
        <g id="Artboard-1-Copy-4" sketch:type="MSArtboardGroup" transform="translate(0.000000, 0.042969)">
            <path d="M48.3027804,31.7260598 C56.459077,28.3476112 67.2174954,23.8913283 78.0875531,19.388803 C101.289462,9.77825747 125,-0.04296875 125,-0.04296875 C125,-0.04296875 149.631822,10.159866 173.172136,19.9105832 C183.443977,24.165319 193.507992,28.3339706 201.22703,31.5313009 C205.280803,33.2104285 213.388348,36.5686836 213.388348,36.5686836 L250,124.957031 L213.388348,213.345379 L125,249.957031 L36.6116524,213.345379 L0,124.957031 C0,124.957031 19.0377497,78.9958376 28.5566246,56.0152408 C31.2416339,49.5330551 36.6116524,36.5686836 36.6116524,36.5686836 L48.3027804,31.7260598 Z" id="Polygon-1-Copy-3" stroke="#FFFFFF" stroke-width="2" sketch:type="MSShapeGroup"></path>
            <path d="M106.722222,15 L34,15 L34,160 L221,160 L221,35.7142857 L127.5,35.7142857 L106.722222,15 L106.722222,15 Z M100.006844,114.909143 L92.6619,122.231643 L68.2085333,97.8571429 L92.6598222,73.4805714 L100.004767,80.8030714 L82.9025778,97.8571429 L100.006844,114.909143 L100.006844,114.909143 Z M154.993156,80.8051429 L162.3381,73.4826429 L186.791467,97.8571429 L162.340178,122.233714 L154.995233,114.911214 L172.097422,97.8571429 L154.993156,80.8051429 L154.993156,80.8051429 Z M142.817378,68.4242143 L122.0396,130.567071 L112.1847,127.290071 L132.962478,65.1472143 L142.817378,68.4242143 L142.817378,68.4242143 Z" id="Shape-Copy-11" fill="#FFFFFF" sketch:type="MSShapeGroup"></path>
        </g>
    </g>
</svg>