<?xml version="1.0" encoding="utf-8"?>
<!DOCTYPE svg PUBLIC "-//W3C//DTD SVG 1.1//EN" "http://www.w3.org/Graphics/SVG/1.1/DTD/svg11.dtd">
<svg version="1.1" id="Laag_1" xmlns="http://www.w3.org/2000/svg" xmlns:xlink="http://www.w3.org/1999/xlink" x="0px" y="0px"
	 width="322px" height="140px" viewBox="0 0 322 140" enable-background="new 0 0 322 140" xml:space="preserve">
<g>
	<g>
		<polygon fill="#001A66" points="226.153,40.53 280.877,11.961 252,0 202.503,20.503 182,70 187.832,84.079 198.172,79.347 		"/>
		<path fill="#002F66" d="M280.877,11.961L226.153,40.53l-27.982,38.818l-10.34,4.732l14.671,35.418l1.594,0.66
			c7.344-5.211,15.543-11.423,17.742-14.908c3.238-5.133,21.402-30.141,28.393-35.172c10.041-7.226,47.042-23.033,53.872-26.54
			c1.105-0.568,2.748-2.787,4.574-5.702l-7.18-17.334L280.877,11.961z"/>
		<path fill="#004566" d="M304.103,43.539c-6.83,3.507-43.831,19.314-53.872,26.54c-6.991,5.031-25.155,30.039-28.393,35.172
			c-2.198,3.485-10.397,9.697-17.742,14.908l38.392,15.903c6.936-11.515,15.572-24.74,31.82-36.433
			c17.27-12.428,31.421-15.108,43.734-20.074L322,70l-13.323-32.163C306.851,40.751,305.209,42.971,304.103,43.539z"/>
		<path fill="#EE6644" d="M242.489,136.06L252,140l49.498-20.502l16.545-39.945c-12.312,4.966-26.464,7.647-43.734,20.074
			C258.061,111.32,249.425,124.545,242.489,136.06z"/>
	</g>
	<g>
		<path fill="#EE6644" d="M35.981,70.345l-3.467-11.381h-17.43l-3.469,11.381H0.693l16.875-48.01h12.395l16.941,48.01H35.981z
			 M30.094,50.462c-3.205-10.312-5.01-16.145-5.412-17.497c-0.402-1.352-0.691-2.42-0.867-3.205
			c-0.719,2.791-2.779,9.692-6.18,20.702H30.094z"/>
		<path fill="#EE6644" d="M62.111,70.345h-9.975V19.458h9.975V70.345z"/>
		<path fill="#EE6644" d="M82.553,70.345h-9.977V19.458h9.977V70.345z"/>
		<path fill="#EE6644" d="M126.244,51.999c0,5.952-1.57,10.607-4.711,13.965C118.397,69.321,114.024,71,108.42,71
			c-3.51,0-6.605-0.769-9.287-2.306s-4.742-3.745-6.182-6.623c-1.438-2.878-2.158-6.235-2.158-10.072
			c0-5.974,1.559-10.618,4.678-13.932c3.117-3.314,7.5-4.972,13.145-4.972c3.512,0,6.607,0.764,9.289,2.289
			c2.682,1.526,4.742,3.718,6.182,6.574S126.244,48.162,126.244,51.999z M100.963,51.999c0,3.619,0.594,6.355,1.783,8.208
			c1.189,1.854,3.123,2.78,5.805,2.78c2.66,0,4.572-0.921,5.74-2.764c1.166-1.842,1.75-4.583,1.75-8.225
			c0-3.619-0.59-6.334-1.766-8.144c-1.18-1.81-3.109-2.714-5.789-2.714c-2.66,0-4.578,0.898-5.758,2.697
			C101.553,45.637,100.963,48.358,100.963,51.999z"/>
		<path fill="#EE6644" d="M129.252,33.783h10.924l6.9,20.57c0.59,1.788,0.992,3.903,1.211,6.345h0.195
			c0.24-2.245,0.709-4.36,1.406-6.345l6.77-20.57h10.695l-15.469,41.239c-1.418,3.815-3.441,6.672-6.066,8.568
			c-2.629,1.896-5.697,2.845-9.207,2.845c-1.723,0-3.412-0.185-5.07-0.556v-7.914c1.199,0.283,2.508,0.425,3.926,0.425
			c1.766,0,3.309-0.539,4.629-1.618c1.316-1.08,2.348-2.71,3.09-4.89l0.588-1.799L129.252,33.783z"/>
	</g>
</g>
</svg>
