<?xml version="1.0" encoding="UTF-8" standalone="no"?>
<svg width="691px" height="494px" viewBox="0 0 691 494" version="1.1" xmlns="http://www.w3.org/2000/svg" xmlns:xlink="http://www.w3.org/1999/xlink" xmlns:sketch="http://www.bohemiancoding.com/sketch/ns">
    <!-- Generator: Sketch 3.3.3 (12081) - http://www.bohemiancoding.com/sketch -->
    <title>404</title>
    <desc>Created with Sketch.</desc>
    <defs>
        <path id="path-1" d="M412,400 L588,400 L602.142136,405.857864 L608,420 L602.142136,434.142136 L588,440 L118,440 L103.857864,434.142136 L98,420 L103.857864,405.857864 L118,400 L126,400 L126,400 L140.142136,394.142136 L146,380 L140.142136,365.857864 L126,360 L20,360 L5.85786438,354.142136 L0,340 L5.85786438,325.857864 L20,320 L88,320 L102.142136,314.142136 L108,300 L102.142136,285.857864 L88,280 L88,280 L49,280 L34.8578644,274.142136 L29,260 L34.8578644,245.857864 L49,240 L170,240 L170,240 L184.142136,234.142136 L190,220 L184.142136,205.857864 L170,200 L20,200 L5.85786438,194.142136 L0,180 L5.85786438,165.857864 L20,160 L88,160 L102.142136,154.142136 L108,140 L102.142136,125.857864 L88,120 L88,120 L49,120 L34.8578644,114.142136 L29,100 L34.8578644,85.8578644 L49,80 L264,80 L264,80 L278.142136,74.1421356 L284,60 L278.142136,45.8578644 L264,40 L94,40 L79.8578644,34.1421356 L74,20 L79.8578644,5.85786438 L94,0 L554,0 L568.142136,5.85786438 L574,20 L568.142136,34.1421356 L554,40 L539,40 L524.857864,45.8578644 L519,60 L524.857864,74.1421356 L539,80 L539,80 L614,80 L628.142136,85.8578644 L634,100 L628.142136,114.142136 L614,120 L577,120 L577,120 L562.857864,125.857864 L557,140 L562.857864,154.142136 L577,160 L671,160 L685.142136,165.857864 L691,180 L685.142136,194.142136 L671,200 L554,200 L539.857864,205.857864 L534,220 L539.857864,234.142136 L554,240 L554,240 L614,240 L628.142136,245.857864 L634,260 L628.142136,274.142136 L614,280 L577,280 L577,280 L562.857864,285.857864 L557,300 L562.857864,314.142136 L577,320 L671,320 L685.142136,325.857864 L691,340 L685.142136,354.142136 L671,360 L412,360 L397.857864,365.857864 L392,380 L397.857864,394.142136 L412,400 L412,400 Z"></path>
        <polygon id="path-3" points="25 0 42.6776695 7.32233047 50 25 42.6776695 42.6776695 25 50 7.32233047 42.6776695 0 25 7.32233047 7.32233047 "></polygon>
        <polygon id="path-5" points="77.5137084 0 132.324177 22.7032396 155.027417 77.5137084 132.324177 132.324177 77.5137084 155.027417 22.7032396 132.324177 0 77.5137084 22.7032396 22.7032396 "></polygon>
    </defs>
    <g id="Page-1" stroke="none" stroke-width="1" fill="none" fill-rule="evenodd" sketch:type="MSPage">
        <g id="Desktop-HD-Copy-5" sketch:type="MSArtboardGroup" transform="translate(-327.000000, -270.000000)">
            <g id="404" sketch:type="MSLayerGroup" transform="translate(327.000000, 270.000000)">
                <g id="space">
                    <mask id="mask-2" sketch:name="Mask" fill="white">
                        <use xlink:href="#path-1"></use>
                    </mask>
                    <use id="Mask" fill="#334444" sketch:type="MSShapeGroup" xlink:href="#path-1"></use>
                    <path d="M-13.0546875,447.261713 L-13.7851525,82.8085936 C-13.7851525,82.8085936 84.1434476,88.2842345 148.172858,119.518986 C212.199983,150.747102 244.54132,117.676306 329.631291,159.177458 C414.721262,200.67861 396.173053,215.148849 507.422134,269.414173 C618.671215,323.679497 683.038494,341.236204 683.038494,341.236204 L702.578126,447.976576 L-13.0546875,447.261713 L-13.0546875,447.261713 Z" id="Shape-Copy" fill-opacity="0.049999997" fill="#FFFFFF" sketch:type="MSShapeGroup" mask="url(#mask-2)"></path>
                    <path d="M-11.1835901,527.292967 L-12.1976493,218.557117 C-12.1976493,218.557117 87.0309536,182.455241 173.000672,212.056989 C258.97039,241.658736 261.347481,277.050649 337.105087,303.136085 C412.862692,329.22152 497.131617,317.845731 557.624979,338.679683 C618.118342,359.513636 710.859394,358.492175 710.859394,358.492175 L591.105385,519.096131 L277.510761,538.274743 L-11.1835901,527.292967 L-11.1835901,527.292967 Z" id="Shape" fill-opacity="0.05" fill="#FFFFFF" sketch:type="MSShapeGroup" mask="url(#mask-2)"></path>
                    <g id="stars" mask="url(#mask-2)" fill="#FFFFFF" sketch:type="MSShapeGroup">
                        <g transform="translate(26.000000, 13.000000)">
                            <polygon id="star" points="90 0 93.5355339 1.46446609 95 5 93.5355339 8.53553391 90 10 86.4644661 8.53553391 85 5 86.4644661 1.46446609 "></polygon>
                            <polygon id="star-copy" points="197 95 200.535534 96.4644661 202 100 200.535534 103.535534 197 105 193.464466 103.535534 192 100 193.464466 96.4644661 "></polygon>
                            <polygon id="star-copy-2" points="383 0 386.535534 1.46446609 388 5 386.535534 8.53553391 383 10 379.464466 8.53553391 378 5 379.464466 1.46446609 "></polygon>
                            <polygon id="star-copy-3" points="617 169 620.535534 170.464466 622 174 620.535534 177.535534 617 179 613.464466 177.535534 612 174 613.464466 170.464466 "></polygon>
                            <polygon id="star-copy-4" points="489 308 492.535534 309.464466 494 313 492.535534 316.535534 489 318 485.464466 316.535534 484 313 485.464466 309.464466 "></polygon>
                            <polygon id="star-copy-5" points="335 308 338.535534 309.464466 340 313 338.535534 316.535534 335 318 331.464466 316.535534 330 313 331.464466 309.464466 "></polygon>
                            <polygon id="star-copy-6" points="219 379 222.535534 380.464466 224 384 222.535534 387.535534 219 389 215.464466 387.535534 214 384 215.464466 380.464466 "></polygon>
                            <polygon id="star-copy-7" points="46 318 49.5355339 319.464466 51 323 49.5355339 326.535534 46 328 42.4644661 326.535534 41 323 42.4644661 319.464466 "></polygon>
                            <polygon id="star-copy-9" points="422 90 425.535534 91.4644661 427 95 425.535534 98.5355339 422 100 418.464466 98.5355339 417 95 418.464466 91.4644661 "></polygon>
                            <polygon id="star-copy-8" points="5 164 8.53553391 165.464466 10 169 8.53553391 172.535534 5 174 1.46446609 172.535534 0 169 1.46446609 165.464466 "></polygon>
                            <polygon id="star-small" points="265.5 10 267.267767 10.732233 268 12.5 267.267767 14.267767 265.5 15 263.732233 14.267767 263 12.5 263.732233 10.732233 "></polygon>
                            <polygon id="star-small-copy" points="481.5 5 483.267767 5.73223305 484 7.5 483.267767 9.26776695 481.5 10 479.732233 9.26776695 479 7.5 479.732233 5.73223305 "></polygon>
                            <polygon id="star-small-copy-2" points="457.5 159 459.267767 159.732233 460 161.5 459.267767 163.267767 457.5 164 455.732233 163.267767 455 161.5 455.732233 159.732233 "></polygon>
                            <polygon id="star-small-copy-3" points="260.5 328 262.267767 328.732233 263 330.5 262.267767 332.267767 260.5 333 258.732233 332.267767 258 330.5 258.732233 328.732233 "></polygon>
                            <polygon id="star-small-copy-4" points="204.5 208 206.267767 208.732233 207 210.5 206.267767 212.267767 204.5 213 202.732233 212.267767 202 210.5 202.732233 208.732233 "></polygon>
                            <polygon id="star-small-copy-10" points="108.5 88 110.267767 88.732233 111 90.5 110.267767 92.267767 108.5 93 106.732233 92.267767 106 90.5 106.732233 88.732233 "></polygon>
                            <polygon id="star-small-copy-11" points="138.5 264 140.267767 264.732233 141 266.5 140.267767 268.267767 138.5 269 136.732233 268.267767 136 266.5 136.732233 264.732233 "></polygon>
                            <polygon id="star-small-copy-5" points="523.5 404 525.267767 404.732233 526 406.5 525.267767 408.267767 523.5 409 521.732233 408.267767 521 406.5 521.732233 404.732233 "></polygon>
                            <polygon id="star-small-copy-6" points="609.5 333 611.267767 333.732233 612 335.5 611.267767 337.267767 609.5 338 607.732233 337.267767 607 335.5 607.732233 333.732233 "></polygon>
                            <polygon id="star-small-copy-7" points="460.5 264 462.267767 264.732233 463 266.5 462.267767 268.267767 460.5 269 458.732233 268.267767 458 266.5 458.732233 264.732233 "></polygon>
                            <polygon id="star-small-copy-8" points="558.5 236 560.267767 236.732233 561 238.5 560.267767 240.267767 558.5 241 556.732233 240.267767 556 238.5 556.732233 236.732233 "></polygon>
                            <polygon id="star-small-copy-9" points="592.5 78 594.267767 78.732233 595 80.5 594.267767 82.267767 592.5 83 590.732233 82.267767 590 80.5 590.732233 78.732233 "></polygon>
                        </g>
                    </g>
                    <g id="moon" mask="url(#mask-2)" sketch:type="MSShapeGroup">
                        <g transform="translate(440.000000, -39.000000)">
                            <polygon id="iris" fill="#EEEEEE" points="78 0 133.154329 22.8456711 156 78 133.154329 133.154329 78 156 22.8456711 133.154329 0 78 22.8456711 22.8456711 "></polygon>
                            <polygon id="iris-copy" fill="#DDDDDD" points="45.5 25 54.3388348 28.6611652 58 37.5 54.3388348 46.3388348 45.5 50 36.6611652 46.3388348 33 37.5 36.6611652 28.6611652 "></polygon>
                            <polygon id="iris-copy-2" fill="#DDDDDD" points="74 119 78.2426407 120.757359 80 125 78.2426407 129.242641 74 131 69.7573593 129.242641 68 125 69.7573593 120.757359 "></polygon>
                            <polygon id="iris-copy-3" fill="#DDDDDD" points="51.5 100 58.2175144 102.782486 61 109.5 58.2175144 116.217514 51.5 119 44.7824856 116.217514 42 109.5 44.7824856 102.782486 "></polygon>
                        </g>
                    </g>
                    <g id="sun" mask="url(#mask-2)">
                        <g transform="translate(173.000000, 73.000000)">
                            <mask id="mask-4" sketch:name="Mask" fill="white">
                                <use xlink:href="#path-3"></use>
                            </mask>
                            <use id="Mask" stroke="none" fill="#EE6644" fill-rule="evenodd" sketch:type="MSShapeGroup" xlink:href="#path-3"></use>
                            <path d="M53.464359,70.9295603 L57.0850713,25.6722232 L56.5592379,9.10698786 C56.5592379,9.10698786 51.167032,6.40568609 43.0415074,11.6142316 C34.9159828,16.8227771 35.0476597,21.6274763 27.8873444,26.2173126 C20.7270292,30.807149 15.1191957,32.1506037 9.40164298,35.8162389 C3.68409031,39.4818741 -4.95301787,46.1333434 -4.95301787,46.1333434 L-4.56164256,68.5528197 L53.464359,70.9295603 L53.464359,70.9295603 Z" id="Shape-Copy-4" stroke="none" fill="#F4B09F" fill-rule="evenodd" sketch:type="MSShapeGroup" mask="url(#mask-4)"></path>
                            <path d="M70.6885065,65.4652058 L63.5898894,29.9903499 C63.5898894,29.9903499 58.4937007,30.3204116 52.6456779,31.3904031 C46.7979533,32.4600419 44.6362106,30.2186946 36.8647744,31.6402099 C29.0933383,33.0617253 30.4060394,34.0911096 20.2453503,35.9499541 C10.0846611,37.8087987 4.43025258,38.0961034 4.43025258,38.0961034 L6.96242774,40.3489807 L70.6885065,65.4652058 L70.6885065,65.4652058 Z" id="Shape-Copy-5" stroke="none" fill="#FCD1C6" fill-rule="evenodd" sketch:type="MSShapeGroup" mask="url(#mask-4)"></path>
                        </g>
                    </g>
                </g>
                <g id="portal" transform="translate(38.000000, 333.000000)">
                    <g id="space-copy" transform="translate(0.486292, 2.310300)">
                        <mask id="mask-6" sketch:name="Mask" fill="white">
                            <use xlink:href="#path-5"></use>
                        </mask>
                        <use id="Mask" fill="#DDDDDD" sketch:type="MSShapeGroup" xlink:href="#path-5"></use>
                        <g id="details" mask="url(#mask-6)" sketch:type="MSShapeGroup">
                            <g transform="translate(25.589005, -10.013222)">
                                <path d="M69.5004865,43.8823541 L69.5004865,1 L35.7009043,1 L35.7009043,43.3223443 L15.9155004,51.5177269 L1,87.5269303 L15.9155004,123.536134 L35.7009043,131.731516 L35.7009043,174.955183 L69.5004865,174.955183 L69.5004865,131.171507 L87.9339072,123.536134 L102.849408,87.5269303 L87.9339072,51.5177269 L69.5004865,43.8823541 Z" id="Rectangle-1" stroke="#979797" stroke-width="3" fill="#CCCCCC" fill-rule="evenodd"></path>
                                <rect id="Rectangle-25" stroke="none" fill="#979797" fill-rule="evenodd" x="51.0233816" y="5.05594986" width="2.25330548" height="169.899233"></rect>
                                <polygon id="Polygon-1-Copy-3" stroke="#979797" stroke-width="3" fill="#DDDDDD" fill-rule="evenodd" points="52.1500343 46.0661095 81.6265946 58.2757006 93.8361857 87.7522609 81.6265946 117.228821 52.1500343 129.438412 22.673474 117.228821 10.463883 87.7522609 22.673474 58.2757006 "></polygon>
                                <polygon id="Polygon-1-Copy" stroke="none" fill="#334444" fill-rule="evenodd" points="52.3753649 60.9379257 71.4952959 68.8576604 79.4150306 87.9775914 71.4952959 107.097522 52.3753649 115.017257 33.2554339 107.097522 25.3356992 87.9775914 33.2554339 68.8576604 "></polygon>
                                <polygon id="Polygon-1-Copy-4" stroke="none" fill="#334444" fill-rule="evenodd" points="7.53458588 43.362143 10.2432428 44.4841054 11.3652052 47.1927623 10.2432428 49.9014192 7.53458588 51.0233816 4.82592899 49.9014192 3.70396657 47.1927623 4.82592899 44.4841054 "></polygon>
                                <polygon id="Polygon-1-Copy-5" stroke="none" fill="#334444" fill-rule="evenodd" points="23.5330548 97.4414744 24.4890513 97.8374612 24.8850381 98.7934577 24.4890513 99.7494543 23.5330548 100.145441 22.5770582 99.7494543 22.1810715 98.7934577 22.5770582 97.8374612 "></polygon>
                                <polygon id="Polygon-1-Copy-6" stroke="none" fill="#334444" fill-rule="evenodd" points="25.7863602 101.948085 26.7423568 102.344072 27.1383435 103.300069 26.7423568 104.256065 25.7863602 104.652052 24.8303637 104.256065 24.434377 103.300069 24.8303637 102.344072 "></polygon>
                                <ellipse id="Oval-1" stroke="#EE6644" stroke-width="6" stroke-dasharray="2,2" fill="none" cx="52.826026" cy="88.4282525" rx="12.6185107" ry="12.6185107"></ellipse>
                                <polygon id="Polygon-1-Copy-7" stroke="none" fill="#334444" fill-rule="evenodd" points="21.7304104 92.4842024 22.6864069 92.8801891 23.0823937 93.8361857 22.6864069 94.7921822 21.7304104 95.1881689 20.7744138 94.7921822 20.3784271 93.8361857 20.7744138 92.8801891 "></polygon>
                            </g>
                        </g>
                    </g>
                    <g id="handel" transform="translate(31.581907, 0.958317)" sketch:type="MSShapeGroup">
                        <rect id="Rectangle-28" fill="#777777" transform="translate(7.899113, 13.353271) rotate(-35.000000) translate(-7.899113, -13.353271) " x="6.09646863" y="2.94173478" width="3.60528876" height="20.8230733"></rect>
                        <rect id="Rectangle-28-Copy" fill="#777777" transform="translate(85.412821, 13.803933) scale(1, -1) rotate(-35.000000) translate(-85.412821, -13.803933) " x="83.610177" y="3.39239588" width="3.60528876" height="20.8230733"></rect>
                        <rect id="Rectangle-26" fill="#D8D8D8" transform="translate(46.643423, 3.154628) scale(1, -1) translate(-46.643423, -3.154628) " x="0.450661095" y="0" width="92.3855246" height="6.30925534"></rect>
                        <rect id="Rectangle-26-Copy" fill="#777777" transform="translate(46.643423, 3.154628) scale(1, -1) translate(-46.643423, -3.154628) " x="13.970494" y="0" width="65.3458588" height="6.30925534"></rect>
                    </g>
                    <g id="handel-copy" transform="translate(78.225331, 148.324495) scale(1, -1) translate(-78.225331, -148.324495) translate(31.581907, 136.607306)" sketch:type="MSShapeGroup">
                        <rect id="Rectangle-28" fill="#777777" transform="translate(7.899113, 13.353271) rotate(-35.000000) translate(-7.899113, -13.353271) " x="6.09646863" y="2.94173478" width="3.60528876" height="20.8230733"></rect>
                        <rect id="Rectangle-28-Copy" fill="#777777" transform="translate(85.412821, 13.803933) scale(1, -1) rotate(-35.000000) translate(-85.412821, -13.803933) " x="83.610177" y="3.39239588" width="3.60528876" height="20.8230733"></rect>
                        <rect id="Rectangle-26" fill="#D8D8D8" transform="translate(46.643423, 3.154628) scale(1, -1) translate(-46.643423, -3.154628) " x="0.450661095" y="0" width="92.3855246" height="6.30925534"></rect>
                        <rect id="Rectangle-26-Copy" fill="#777777" transform="translate(46.643423, 3.154628) scale(1, -1) translate(-46.643423, -3.154628) " x="13.970494" y="0" width="65.3458588" height="6.30925534"></rect>
                    </g>
                </g>
            </g>
        </g>
    </g>
</svg>