<?xml version="1.0" encoding="utf-8"?>
<!-- Generator: Adobe Illustrator 17.0.0, SVG Export Plug-In . SVG Version: 6.00 Build 0)  -->
<!DOCTYPE svg PUBLIC "-//W3C//DTD SVG 1.1//EN" "http://www.w3.org/Graphics/SVG/1.1/DTD/svg11.dtd">
<svg version="1.1" id="Layer_1" xmlns="http://www.w3.org/2000/svg" xmlns:xlink="http://www.w3.org/1999/xlink" x="0px" y="0px"
	 width="284px" height="162.394px" viewBox="-3.266 7 284 162.394" enable-background="new -3.266 7 284 162.394"
	 xml:space="preserve">
<g id="Layer_1_1_" display="none">
	<rect x="-419.023" y="-247.89" display="inline" fill="#FF02FF" width="1911.191" height="1569.157"/>
</g>
<g>
	
		<rect x="143.129" y="65.441" fill="none" stroke="#FFFFFF" stroke-width="2" stroke-miterlimit="10" width="48.004" height="83.323"/>
	<line fill="none" stroke="#FFFFFF" stroke-width="2" stroke-miterlimit="10" x1="162.012" y1="58.051" x2="172.25" y2="58.051"/>
	<ellipse fill="none" stroke="#FFFFFF" stroke-width="2" stroke-miterlimit="10" cx="167.131" cy="157.277" rx="4.096" ry="4.088"/>
	<ellipse fill="none" stroke="#FFFFFF" stroke-width="2" stroke-miterlimit="10" cx="223.445" cy="153.19" rx="4.096" ry="4.088"/>
	<circle fill="#FFFFFF" cx="223.445" cy="20.342" r="2.044"/>
	<path fill="none" stroke="#FFFFFF" stroke-width="2" stroke-miterlimit="10" d="M263.376,31.482h-80.887v17.372h11.263
		c3.379,0,6.143,2.759,6.143,6.131v85.839h63.481V31.482z"/>
	<polyline fill="none" stroke="#FFFFFF" stroke-width="4" stroke-miterlimit="10" points="22.068,148.764 22.068,9.035 
		255.401,9.035 	"/>
	<polyline fill="none" stroke="#FFFFFF" stroke-width="2" stroke-miterlimit="10" points="167.131,24.172 36.068,24.172 
		36.068,135.955 134.367,135.955 	"/>
	<path fill="none" stroke="#FFFFFF" stroke-width="4" stroke-miterlimit="10" d="M272.591,9h-99.317
		c-3.393,0-6.143,2.745-6.143,6.131v33.723h26.621c3.379,0,6.143,2.759,6.143,6.131v106.277c0,3.372-2.764,6.131-6.143,6.131h78.839
		c3.393,0,6.143-2.745,6.143-6.131V15.131C278.734,11.745,275.984,9,272.591,9z"/>
	<path fill="none" stroke="#FFFFFF" stroke-width="4" stroke-miterlimit="10" d="M193.752,48.854c3.379,0,6.143,2.759,6.143,6.131
		v106.277c0,3.372-2.764,6.131-6.143,6.131H140.51c-3.379,0-6.143-2.759-6.143-6.131V54.985c0-3.372,2.764-6.131,6.143-6.131
		H193.752z"/>
	<rect x="113.068" y="148.764" fill="#FFFFFF" width="21.299" height="4.658"/>
	<polyline fill="none" stroke="#FFFFFF" stroke-width="4" stroke-miterlimit="10" points="140.51,167.394 -1.266,167.394 
		-1.266,148.764 134.367,148.764 	"/>
</g>
</svg>
