<?xml version="1.0" encoding="utf-8"?>
<!-- Generator: Adobe Illustrator 17.0.0, SVG Export Plug-In . SVG Version: 6.00 Build 0)  -->
<!DOCTYPE svg PUBLIC "-//W3C//DTD SVG 1.1//EN" "http://www.w3.org/Graphics/SVG/1.1/DTD/svg11.dtd">
<svg version="1.1" id="Laag_1" xmlns="http://www.w3.org/2000/svg" xmlns:xlink="http://www.w3.org/1999/xlink" x="0px" y="0px"
	 width="865px" height="565px" viewBox="0 0 865 565" enable-background="new 0 0 865 565" xml:space="preserve">
<g>
	<rect x="722.013" y="255.5" fill="#F97B62" width="57.004" height="29.282"/>
	<circle fill="#F97B62" cx="722.013" cy="270.141" r="14.641"/>
	<circle fill="#F97B62" cx="779.017" cy="270.141" r="14.641"/>
	<circle fill="#F97B62" cx="756.083" cy="250.451" r="14.641"/>
	<circle fill="#F97B62" cx="733.37" cy="253.649" r="14.641"/>
	<circle fill="#F97B62" cx="744.091" cy="238.587" r="8.667"/>
	<circle fill="#F97B62" cx="775.387" cy="253.649" r="8.667"/>
</g>
<g>
	<rect x="147.991" y="106.405" fill="#F97B62" width="78.987" height="40.574"/>
	<circle fill="#F97B62" cx="147.991" cy="126.693" r="20.287"/>
	<circle fill="#F97B62" cx="226.978" cy="126.693" r="20.287"/>
	<circle fill="#F97B62" cx="195.199" cy="99.41" r="20.287"/>
	<circle fill="#F97B62" cx="163.728" cy="103.84" r="20.287"/>
	<circle fill="#F97B62" cx="178.582" cy="82.97" r="12.009"/>
	<circle fill="#F97B62" cx="221.948" cy="103.84" r="12.009"/>
</g>
<g>
	<polygon fill="#99FFFF" points="249.117,328.495 264.714,334.107 257.935,347.227 245.982,342.926 	"/>
	<polygon fill="#99FFFF" points="300.301,235.21 284.704,229.598 291.483,216.479 303.436,220.78 	"/>
	<polygon fill="#99FFFF" points="228.067,256.26 222.455,271.858 209.335,265.079 213.636,253.126 	"/>
	<polygon fill="#99FFFF" points="321.352,307.445 326.964,291.848 340.083,298.627 335.782,310.58 	"/>
	<path fill="#99FFFF" d="M256.24,333.178c28.331,10.195,59.562-4.508,69.757-32.839c10.195-28.331-4.508-59.562-32.839-69.757
		c-28.331-10.195-59.562,4.508-69.757,32.839C213.207,291.752,227.909,322.983,256.24,333.178z M270.322,272.601
		c5.117-2.409,11.217-0.213,13.626,4.903c2.409,5.117,0.213,11.217-4.903,13.626c-5.116,2.409-11.217,0.213-13.626-4.903
		C263.01,281.11,265.205,275.009,270.322,272.601z"/>
	<polygon fill="#99FFFF" points="223.632,296.737 230.692,311.735 216.622,316.218 211.211,304.725 	"/>
	<polygon fill="#99FFFF" points="325.787,266.968 318.726,251.971 332.797,247.487 338.207,258.981 	"/>
	<polygon fill="#99FFFF" points="259.825,230.775 244.827,237.835 240.344,223.765 251.837,218.355 	"/>
	<polygon fill="#99FFFF" points="289.594,332.93 304.591,325.87 309.075,339.94 297.581,345.351 	"/>
</g>
<g>
	<polygon fill="#85DADA" points="588.623,288.171 599.364,292.036 594.696,301.07 586.465,298.109 	"/>
	<polygon fill="#85DADA" points="623.871,223.931 613.13,220.066 617.799,211.031 626.03,213.993 	"/>
	<polygon fill="#85DADA" points="574.127,238.427 570.262,249.168 561.228,244.5 564.19,236.268 	"/>
	<polygon fill="#85DADA" points="638.367,273.675 642.232,262.934 651.267,267.602 648.305,275.834 	"/>
	<path fill="#85DADA" d="M593.529,291.396c19.51,7.02,41.017-3.104,48.038-22.614s-3.104-41.017-22.614-48.038
		c-19.51-7.021-41.017,3.104-48.038,22.614S574.019,284.375,593.529,291.396z M603.226,249.679c3.524-1.659,7.725-0.147,9.383,3.376
		c1.659,3.524,0.147,7.725-3.376,9.383c-3.523,1.659-7.724,0.147-9.383-3.376C598.19,255.539,599.702,251.338,603.226,249.679z"/>
	<polygon fill="#85DADA" points="571.073,266.301 575.935,276.629 566.245,279.717 562.519,271.802 	"/>
	<polygon fill="#85DADA" points="641.421,245.801 636.559,235.473 646.249,232.385 649.975,240.3 	"/>
	<polygon fill="#85DADA" points="595.997,220.877 585.669,225.739 582.581,216.049 590.496,212.323 	"/>
	<polygon fill="#85DADA" points="616.497,291.225 626.825,286.363 629.913,296.053 621.998,299.779 	"/>
</g>
<g>
	<polygon fill="#F97B62" points="604.375,152.656 613.863,148.566 621.145,168.507 613.874,171.642 	"/>
	<polygon fill="#F97B62" points="597.486,110.575 587.998,114.665 580.716,94.723 587.987,91.589 	"/>
	<polygon fill="#F97B62" points="579.89,135.06 583.98,144.548 564.039,151.83 560.904,144.559 	"/>
	<polygon fill="#F97B62" points="621.971,128.17 617.881,118.683 637.823,111.401 640.957,118.672 	"/>
	<polygon fill="#F97B62" points="588.488,148.929 598.089,152.746 589.138,171.996 581.78,169.071 	"/>
	<polygon fill="#F97B62" points="613.373,114.301 603.772,110.485 612.723,91.235 620.081,94.16 	"/>
	<polygon fill="#F97B62" points="583.617,119.173 579.8,128.774 560.55,119.822 563.475,112.465 	"/>
	<polygon fill="#F97B62" points="618.244,144.057 622.061,134.456 641.311,143.408 638.386,150.766 	"/>
	<path fill="#F97B62" d="M611.514,156.165c13.549-5.841,19.798-21.56,13.957-35.109c-5.841-13.549-21.56-19.798-35.109-13.957
		c-13.549,5.841-19.798,21.56-13.957,35.109C582.245,155.757,597.964,162.006,611.514,156.165z M593.554,128.703
		c1.617-4.069,6.227-6.056,10.295-4.438c4.069,1.617,6.056,6.227,4.438,10.295c-1.617,4.068-6.227,6.055-10.295,4.438
		C593.923,137.381,591.936,132.772,593.554,128.703z"/>
</g>
<g>
	<polygon fill="#F97B62" points="331.124,404.884 339.96,401.075 346.741,419.646 339.97,422.565 	"/>
	<polygon fill="#F97B62" points="324.708,365.695 315.872,369.504 309.09,350.933 315.862,348.014 	"/>
	<polygon fill="#F97B62" points="308.321,388.497 312.13,397.333 293.559,404.115 290.64,397.343 	"/>
	<polygon fill="#F97B62" points="347.51,382.081 343.701,373.245 362.272,366.464 365.191,373.235 	"/>
	<polygon fill="#F97B62" points="316.329,401.413 325.27,404.968 316.934,422.895 310.081,420.171 	"/>
	<polygon fill="#F97B62" points="339.503,369.165 330.562,365.611 338.898,347.684 345.75,350.408 	"/>
	<polygon fill="#F97B62" points="311.792,373.702 308.237,382.643 290.31,374.307 293.034,367.455 	"/>
	<polygon fill="#F97B62" points="344.04,396.876 347.594,387.935 365.521,396.271 362.797,403.124 	"/>
	<path fill="#F97B62" d="M337.771,408.152c12.618-5.439,18.438-20.078,12.998-32.696c-5.439-12.618-20.078-18.438-32.696-12.998
		c-12.618,5.439-18.438,20.078-12.998,32.696C310.515,407.772,325.153,413.591,337.771,408.152z M321.046,382.578
		c1.506-3.789,5.799-5.639,9.588-4.133c3.789,1.506,5.639,5.799,4.133,9.588c-1.506,3.789-5.799,5.639-9.588,4.133
		C321.39,390.659,319.54,386.366,321.046,382.578z"/>
</g>
<g>
	<polygon fill="#99FFFF" points="554.515,393.668 568.869,399.413 562.118,411.419 551.117,407.016 	"/>
	<polygon fill="#99FFFF" points="605.301,308.398 590.946,302.652 597.698,290.646 608.698,295.049 	"/>
	<polygon fill="#99FFFF" points="537.273,325.64 531.527,339.994 519.521,333.243 523.924,322.242 	"/>
	<polygon fill="#99FFFF" points="622.543,376.425 628.288,362.071 640.294,368.823 635.891,379.823 	"/>
	<path fill="#99FFFF" d="M561.001,398.267c26.073,10.436,55.67-2.24,66.107-28.313c10.436-26.073-2.24-55.67-28.313-66.107
		c-26.073-10.437-55.67,2.24-66.107,28.313C522.252,358.234,534.928,387.831,561.001,398.267z M576.123,342.264
		c4.849-2.077,10.463,0.171,12.54,5.019c2.077,4.849-0.171,10.463-5.019,12.54c-4.849,2.077-10.463-0.171-12.54-5.019
		C569.027,349.955,571.274,344.34,576.123,342.264z"/>
	<polygon fill="#99FFFF" points="531.805,363.225 537.892,377.437 524.629,381.153 519.964,370.261 	"/>
	<polygon fill="#99FFFF" points="628.011,338.841 621.923,324.628 635.187,320.912 639.852,331.804 	"/>
	<polygon fill="#99FFFF" points="567.716,302.93 553.503,309.017 549.787,295.754 560.679,291.089 	"/>
	<polygon fill="#99FFFF" points="592.1,399.135 606.312,393.048 610.028,406.312 599.136,410.977 	"/>
	<g>
		<path fill="#99FFFF" d="M576.658,365.275l-7.069,30.98c7.316,1.679,14.742,1.504,21.711-0.269l-7.804-30.791
			C581.3,365.753,578.965,365.804,576.658,365.275z"/>
		<path fill="#99FFFF" d="M567.538,358.806l-26.895,16.902c3.822,6.092,9.075,11.343,15.53,15.176l16.26-27.301
			C570.399,362.375,568.743,360.727,567.538,358.806z"/>
		<path fill="#99FFFF" d="M583.153,336.79l7.068-30.98c-7.32-1.679-14.75-1.502-21.723,0.274l7.804,30.791
			C578.503,336.313,580.843,336.261,583.153,336.79z"/>
		<path fill="#99FFFF" d="M592.286,343.273l26.895-16.902c-3.822-6.097-9.077-11.351-15.534-15.187l-16.26,27.301
			C589.424,339.696,591.081,341.348,592.286,343.273z"/>
		<path fill="#99FFFF" d="M565.66,347.809l-30.979-7.068c-1.674,7.315-1.496,14.739,0.28,21.707l30.791-7.804
			C565.19,352.449,565.136,350.115,565.66,347.809z"/>
		<path fill="#99FFFF" d="M567.344,343.581c1.206-2.038,2.853-3.698,4.772-4.906l-16.902-26.894
			c-6.091,3.825-11.341,9.082-15.171,15.54L567.344,343.581z"/>
		<path fill="#99FFFF" d="M594.144,354.308l30.98,7.069c1.684-7.317,1.511-14.745-0.259-21.716l-30.79,7.804
			C594.631,349.663,594.677,352.001,594.144,354.308z"/>
		<path fill="#99FFFF" d="M587.663,363.414l16.902,26.895c6.093-3.818,11.344-9.068,15.18-15.518l-27.3-16.259
			C591.233,360.561,589.584,362.213,587.663,363.414z"/>
	</g>
</g>
<g>
	<polygon fill="#99FFFF" points="456.661,211.594 471.016,217.34 464.264,229.346 453.264,224.943 	"/>
	<polygon fill="#99FFFF" points="507.447,126.324 493.093,120.579 499.844,108.573 510.844,112.976 	"/>
	<polygon fill="#99FFFF" points="439.419,143.566 433.674,157.921 421.668,151.169 426.071,140.169 	"/>
	<polygon fill="#99FFFF" points="524.689,194.352 530.435,179.998 542.441,186.749 538.038,197.749 	"/>
	<path fill="#99FFFF" d="M463.147,216.194c26.073,10.436,55.67-2.239,66.107-28.313c10.436-26.073-2.24-55.67-28.313-66.107
		c-26.073-10.437-55.67,2.239-66.107,28.313S437.074,205.757,463.147,216.194z M478.269,160.19
		c4.849-2.077,10.463,0.171,12.54,5.019c2.077,4.849-0.171,10.463-5.019,12.54c-4.849,2.077-10.463-0.171-12.54-5.019
		C471.173,167.881,473.42,162.267,478.269,160.19z"/>
	<polygon fill="#99FFFF" points="433.951,181.151 440.039,195.364 426.775,199.08 422.11,188.188 	"/>
	<polygon fill="#99FFFF" points="530.157,156.767 524.07,142.555 537.333,138.839 541.998,149.731 	"/>
	<polygon fill="#99FFFF" points="469.862,120.856 455.649,126.944 451.934,113.68 462.826,109.015 	"/>
	<polygon fill="#99FFFF" points="494.246,217.062 508.459,210.975 512.174,224.238 501.283,228.903 	"/>
	<g>
		<path fill="#99FFFF" d="M478.805,183.201l-7.069,30.98c7.316,1.679,14.742,1.504,21.711-0.269l-7.804-30.791
			C483.447,183.68,481.111,183.73,478.805,183.201z"/>
		<path fill="#99FFFF" d="M469.685,176.733l-26.895,16.902c3.822,6.092,9.075,11.343,15.529,15.176l16.26-27.301
			C472.545,180.301,470.889,178.653,469.685,176.733z"/>
		<path fill="#99FFFF" d="M485.3,154.716l7.068-30.98c-7.32-1.679-14.75-1.502-21.723,0.274l7.804,30.791
			C480.65,154.239,482.989,154.187,485.3,154.716z"/>
		<path fill="#99FFFF" d="M494.432,161.199l26.895-16.902c-3.822-6.097-9.077-11.351-15.534-15.187l-16.26,27.301
			C491.57,157.622,493.228,159.274,494.432,161.199z"/>
		<path fill="#99FFFF" d="M467.806,165.736l-30.979-7.068c-1.674,7.315-1.496,14.739,0.28,21.707l30.791-7.804
			C467.336,170.375,467.282,168.041,467.806,165.736z"/>
		<path fill="#99FFFF" d="M469.49,161.507c1.206-2.038,2.853-3.698,4.772-4.906l-16.902-26.894
			c-6.091,3.825-11.341,9.082-15.171,15.54L469.49,161.507z"/>
		<path fill="#99FFFF" d="M496.29,172.235l30.98,7.069c1.684-7.317,1.511-14.745-0.259-21.716l-30.79,7.804
			C496.778,167.59,496.823,169.927,496.29,172.235z"/>
		<path fill="#99FFFF" d="M489.809,181.34l16.902,26.895c6.093-3.818,11.344-9.068,15.18-15.518l-27.3-16.259
			C493.38,178.487,491.73,180.139,489.809,181.34z"/>
	</g>
</g>
<g>
	
		<rect x="136.492" y="349.578" transform="matrix(0.9631 0.2691 -0.2691 0.9631 106.9444 -36.0837)" fill="#99FFFF" width="97.153" height="44.809"/>
	<circle fill="#85DADA" cx="135.07" cy="370.412" r="34.349"/>
	<circle fill="#85DADA" cx="228.638" cy="396.56" r="34.349"/>
	
		<rect x="129.446" y="352.312" transform="matrix(-0.2691 0.9631 -0.9631 -0.2691 528.1669 340.0195)" fill="#F97B62" width="11.247" height="36.201"/>
	
		<rect x="129.446" y="352.312" transform="matrix(-0.9631 -0.2691 0.2691 -0.9631 165.4625 763.5094)" fill="#F97B62" width="11.247" height="36.201"/>
	<circle fill="#F97B62" cx="238.077" cy="391.245" r="6.238"/>
	<circle fill="#F97B62" cx="221.118" cy="395.013" r="6.238"/>
	
		<rect x="172.777" y="377.046" transform="matrix(0.9631 0.2691 -0.2691 0.9631 108.4336 -33.7653)" fill="#F97B62" width="9.161" height="3.054"/>
	
		<rect x="183.665" y="380.088" transform="matrix(0.9631 0.2691 -0.2691 0.9631 109.6542 -36.5833)" fill="#F97B62" width="9.161" height="3.054"/>
</g>
<g>
	<circle fill="#85DADA" cx="646.937" cy="466.824" r="28.262"/>
	<circle fill="#5C8F8F" cx="660.316" cy="506.13" r="28.262"/>
	
		<rect x="625.364" y="465.716" transform="matrix(0.9467 -0.3222 0.3222 0.9467 -121.896 236.5725)" fill="#5C8F8F" width="56.524" height="41.521"/>
	<polyline fill="none" stroke="#99FFFF" stroke-width="2" stroke-miterlimit="10" points="637.829,440.069 646.937,466.824 
		620.182,475.931 	"/>
	
		<rect x="643.187" y="457.169" transform="matrix(0.9467 -0.3222 0.3222 0.9467 -115.9199 233.3685)" fill="#F97B62" width="7.499" height="19.31"/>
</g>
<g>
	<g>
		<path fill="#70B4B4" d="M570.503,519.791c-0.075,2.749-2.386,4.952-5.136,4.896l-246.93-5.054
			c-2.749-0.056-4.941-2.352-4.869-5.101l1.723-66.353c0.071-2.749,2.379-5.049,5.129-5.112l247.342-5.601
			c2.749-0.062,4.937,2.136,4.862,4.885L570.503,519.791z"/>
	</g>
	<g>
		<rect x="320.26" y="448.13" fill="#85DADA" width="12.441" height="11.849"/>
		<rect x="334.8" y="448.13" fill="#85DADA" width="12.441" height="11.849"/>
		<rect x="349.339" y="448.13" fill="#85DADA" width="12.441" height="11.849"/>
		<rect x="363.878" y="448.13" fill="#85DADA" width="12.441" height="11.849"/>
		<rect x="378.417" y="448.13" fill="#85DADA" width="12.441" height="11.849"/>
		<rect x="392.956" y="448.13" fill="#85DADA" width="12.441" height="11.849"/>
		<rect x="407.495" y="448.13" fill="#85DADA" width="12.441" height="11.849"/>
		<rect x="422.035" y="448.13" fill="#85DADA" width="12.441" height="11.849"/>
		<rect x="436.574" y="448.13" fill="#85DADA" width="12.441" height="11.849"/>
	</g>
	<g>
		<rect x="464.294" y="448.13" fill="#85DADA" width="12.441" height="11.849"/>
		<rect x="478.833" y="448.13" fill="#85DADA" width="12.441" height="11.849"/>
		<rect x="493.373" y="448.13" fill="#85DADA" width="12.441" height="11.849"/>
		<rect x="522.451" y="448.13" fill="#85DADA" width="12.441" height="11.849"/>
		<rect x="536.99" y="448.13" fill="#85DADA" width="12.441" height="11.849"/>
		<rect x="551.529" y="448.13" fill="#85DADA" width="12.441" height="11.849"/>
	</g>
	<g>
		<rect x="464.294" y="464.521" fill="#85DADA" width="12.441" height="11.849"/>
		<rect x="478.833" y="464.521" fill="#85DADA" width="12.441" height="11.849"/>
		<rect x="493.373" y="464.521" fill="#85DADA" width="12.441" height="11.849"/>
		<rect x="522.451" y="464.521" fill="#85DADA" width="12.441" height="11.849"/>
		<rect x="536.99" y="464.521" fill="#85DADA" width="12.441" height="11.849"/>
		<rect x="551.529" y="464.521" fill="#85DADA" width="12.441" height="11.849"/>
	</g>
	<g>
		<rect x="478.833" y="480.714" fill="#85DADA" width="12.441" height="11.849"/>
		<rect x="522.451" y="480.714" fill="#85DADA" width="12.441" height="11.849"/>
		<rect x="536.99" y="480.714" fill="#85DADA" width="12.441" height="11.849"/>
		<rect x="551.529" y="480.714" fill="#85DADA" width="12.441" height="11.849"/>
	</g>
	<g>
		<rect x="464.294" y="497.302" fill="#85DADA" width="12.441" height="11.849"/>
		<rect x="478.833" y="497.302" fill="#85DADA" width="12.441" height="11.849"/>
		<rect x="493.373" y="497.302" fill="#85DADA" width="12.441" height="11.849"/>
		<rect x="522.451" y="497.302" fill="#85DADA" width="12.441" height="11.849"/>
		<rect x="536.99" y="497.302" fill="#85DADA" width="26.98" height="11.849"/>
	</g>
	<g>
		<rect x="320.26" y="464.521" fill="#85DADA" width="12.441" height="11.849"/>
		<rect x="334.8" y="464.521" fill="#85DADA" width="12.441" height="11.849"/>
		<rect x="349.339" y="464.521" fill="#85DADA" width="12.441" height="11.849"/>
		<rect x="363.878" y="464.521" fill="#85DADA" width="12.441" height="11.849"/>
		<rect x="378.417" y="464.521" fill="#85DADA" width="12.441" height="11.849"/>
		<rect x="392.956" y="464.521" fill="#85DADA" width="12.441" height="11.849"/>
		<rect x="407.495" y="464.521" fill="#85DADA" width="12.441" height="11.849"/>
		<rect x="422.035" y="464.521" fill="#85DADA" width="12.441" height="11.849"/>
		<rect x="436.574" y="464.521" fill="#85DADA" width="12.441" height="11.849"/>
	</g>
	<g>
		<rect x="320.26" y="480.714" fill="#85DADA" width="12.441" height="11.849"/>
		<rect x="334.8" y="480.714" fill="#85DADA" width="12.441" height="11.849"/>
		<rect x="349.339" y="480.714" fill="#85DADA" width="12.441" height="11.849"/>
		<rect x="363.878" y="480.714" fill="#85DADA" width="12.441" height="11.849"/>
		<rect x="378.417" y="480.714" fill="#85DADA" width="12.441" height="11.849"/>
		<rect x="392.956" y="480.714" fill="#85DADA" width="12.441" height="11.849"/>
		<rect x="407.495" y="480.714" fill="#85DADA" width="12.441" height="11.849"/>
		<rect x="422.035" y="480.714" fill="#85DADA" width="12.441" height="11.849"/>
		<rect x="436.574" y="480.714" fill="#85DADA" width="12.441" height="11.849"/>
	</g>
	<g>
		<rect x="320.26" y="497.302" fill="#85DADA" width="12.441" height="11.849"/>
		<rect x="334.8" y="497.302" fill="#85DADA" width="12.441" height="11.849"/>
		<rect x="349.339" y="497.302" fill="#85DADA" width="70.598" height="11.849"/>
		<rect x="422.035" y="497.302" fill="#85DADA" width="12.441" height="11.849"/>
		<rect x="436.574" y="497.302" fill="#85DADA" width="12.441" height="11.849"/>
	</g>
</g>
<g>
	<g>
		<path fill="#F97B62" d="M715.907,389.001c-0.005-5.5-4.484-10.473-9.954-11.052l-71.055-7.517
			c-5.469-0.579-11.419,3.199-13.221,8.396l-8.127,23.433c-1.802,5.196,1.207,9.827,6.688,10.291l85.734,7.251
			c5.48,0.464,9.96-3.657,9.955-9.157L715.907,389.001z"/>
	</g>
	
		<text transform="matrix(1 0 0 1 626.0911 402.3142)" fill="#85DADA" font-family="'OpenSans'" font-size="18.8735" letter-spacing="2">HTTP://</text>
</g>
<g>
	<g>
		<path fill="#70B4B4" d="M741.712,306.725c-1.465-5.301-7.122-10.253-12.571-11.005l-66.499-9.172
			c-5.448-0.751-9.906,3.134-9.906,8.634v50.58c0,5.5,4.392,10.98,9.76,12.178l89.751,20.025c5.368,1.198,8.561-2.16,7.096-7.461
			L741.712,306.725z"/>
	</g>
	
		<text transform="matrix(1 0 0 1 663.8603 336.9124)" fill="#5C8F8F" font-family="'OpenSans-Bold'" font-size="30.5301" letter-spacing="3">PHP</text>
</g>
<g>
	<g>
		<path fill="#5C8F8F" d="M208.377,259.418c-3.499-4.243-10.86-7.842-16.358-7.998l-61.815-1.749
			c-5.498-0.156-10.218,4.212-10.489,9.705l-2.101,42.537c-0.271,5.493,4.005,9.856,9.502,9.694l111.362-3.272
			c5.498-0.161,7.133-3.765,3.633-8.009L208.377,259.418z"/>
	</g>
	
		<text transform="matrix(1 0 0 1 141.4017 289.0479)" fill="#85DADA" font-family="'OpenSans-Bold'" font-size="27.7082" letter-spacing="3">CSS</text>
</g>
<g>
	<g>
		<path fill="#476969" d="M518.403,45.36c0.786-5.444-3.057-9.538-8.54-9.098L380.43,46.645c-5.482,0.44-8.157,4.919-5.943,9.954
			l15.841,36.029c2.214,5.035,8.525,9.154,14.025,9.154h95.909c5.5,0,10.643-4.454,11.428-9.897L518.403,45.36z"/>
	</g>
	<text transform="matrix(1 0 0 1 391.5221 78.1418)" fill="#70B4B4" font-family="'OpenSans-Bold'" font-size="23.5041">Angular.js</text>
</g>
<g>
	<g>
		<path fill="#70B4B4" d="M194.048,439.072c-1.819-5.191-7.804-9.29-13.301-9.109l-62.551,2.058
			c-5.497,0.181-8.904,4.695-7.571,10.031l7.413,29.68c1.333,5.336,6.856,8.928,12.274,7.981l63.628-11.115
			c5.418-0.946,8.363-5.968,6.544-11.158L194.048,439.072z"/>
	</g>
	<text transform="matrix(1 0 0 1 119.982 460.4173)" fill="#5C8F8F" font-family="'OpenSans-Bold'" font-size="20.8958">Raddle</text>
</g>
<g>
	<g>
		<path fill="#334444" d="M734.925,177.288c2.54-4.879,0.119-8.994-5.379-9.146l-105.874-2.918c-5.498-0.152-8.634,4.014-6.97,9.256
			l10.702,33.709c1.664,5.242,7.492,10.084,12.95,10.759l58.55,7.243c5.458,0.675,12.002-2.764,14.542-7.642L734.925,177.288z"/>
	</g>
	<text transform="matrix(1 0 0 1 640.5983 203.9795)" fill="#70B4B4" font-family="'OpenSans-Bold'" font-size="29.0176">D3.js</text>
</g>
<g>
	<g>
		<path fill="#99FFFF" d="M708.538,67.873c-0.167-5.497-4.755-10.662-10.194-11.478L572.713,37.567
			c-5.439-0.815-10.201,3.007-10.581,8.494l-3.228,46.544c-0.38,5.487,3.619,11.268,8.887,12.846l133.62,40.036
			c5.269,1.579,9.442-1.628,9.275-7.125L708.538,67.873z"/>
	</g>
	
		<text transform="matrix(1 0 0 1 579.6506 93.3287)" fill="#70B4B4" font-family="'OpenSans-Bold'" font-size="35.5643" letter-spacing="4">HTML</text>
</g>
<g>
	<g>
		<path fill="#85DADA" d="M242.717,169.795c-2.822-4.721-9.632-8.583-15.132-8.583h-58.611c-5.5,0-11.789,4.129-13.976,9.176
			l-18.941,43.711c-2.187,5.047,0.492,8.643,5.954,7.993l113.27-13.494c5.461-0.651,7.62-5.045,4.798-9.766L242.717,169.795z"/>
	</g>
	<text transform="matrix(1 0 0 1 159.3121 198.4487)" fill="#99FFFF" font-family="'OpenSans-Bold'" font-size="24.7574">Jquery</text>
</g>
<g>
	<g>
		<path fill="#70B4B4" d="M354.862,70.338c0.954-5.417-2.763-9.996-8.26-10.176L200.96,55.387c-5.497-0.18-8.801,4.011-7.342,9.314
			l8.61,31.289c1.459,5.303,7.146,9.39,12.637,9.082l125.231-7.026c5.491-0.308,10.765-4.992,11.719-10.409L354.862,70.338z"/>
	</g>
	<text transform="matrix(1 0 0 1 205.6656 87.4933)" fill="#85DADA" font-family="'OpenSans-Bold'" font-size="25.4889">Wordpress</text>
</g>
<g>
	<polygon fill="#5C8F8F" points="484.542,369.559 441.623,369.559 398.703,369.559 388.867,419.93 441.623,419.93 494.378,419.93 	
		"/>
	<path fill="#85DADA" d="M497.06,415.459c-6.557,0-55.438,0-55.438,0s-48.881,0-55.438,0c-6.557,0-7.749,2.682-7.749,8.942h63.187
		h63.187C504.81,418.141,503.618,415.459,497.06,415.459z"/>
	<path fill="#476969" d="M613.003,138.27c0-6.557-5.365-11.922-11.922-11.922H280.973c-6.557,0-11.922,5.365-11.922,11.922v205.358
		h343.952V138.27z"/>
	<rect x="283.953" y="140.059" fill="#70B4B4" width="315.339" height="189.263"/>
	<path fill="#85DADA" d="M269.05,343.628v20.864c0,6.557,5.365,11.922,11.922,11.922h320.108c6.557,0,11.922-5.365,11.922-11.922
		v-20.864H269.05z"/>
	<g>
		<rect x="283.953" y="140.059" fill="#5C8F8F" width="315.339" height="189.263"/>
		<g>
			
				<line fill="none" stroke="#F97B62" stroke-width="3" stroke-miterlimit="10" x1="307.816" y1="161.112" x2="429.553" y2="161.112"/>
			
				<line fill="none" stroke="#F97B62" stroke-width="3" stroke-miterlimit="10" x1="307.816" y1="308.269" x2="429.553" y2="308.269"/>
			
				<line fill="none" stroke="#70B4B4" stroke-width="3" stroke-miterlimit="10" x1="329.651" y1="169.287" x2="451.388" y2="169.287"/>
			
				<line fill="none" stroke="#70B4B4" stroke-width="3" stroke-miterlimit="10" x1="329.651" y1="201.989" x2="355.067" y2="201.989"/>
			
				<line fill="none" stroke="#70B4B4" stroke-width="3" stroke-miterlimit="10" x1="329.651" y1="210.164" x2="390.519" y2="210.164"/>
			
				<line fill="none" stroke="#70B4B4" stroke-width="3" stroke-miterlimit="10" x1="329.651" y1="251.041" x2="390.519" y2="251.041"/>
			
				<line fill="none" stroke="#85DADA" stroke-width="3" stroke-miterlimit="10" x1="351.486" y1="267.392" x2="412.354" y2="267.392"/>
			
				<line fill="none" stroke="#85DADA" stroke-width="3" stroke-miterlimit="10" x1="351.486" y1="291.918" x2="412.354" y2="291.918"/>
			
				<line fill="none" stroke="#99FFFF" stroke-width="3" stroke-miterlimit="10" x1="373.32" y1="275.567" x2="434.189" y2="275.567"/>
			
				<line fill="none" stroke="#99FFFF" stroke-width="3" stroke-miterlimit="10" x1="373.32" y1="283.743" x2="434.189" y2="283.743"/>
			
				<line fill="none" stroke="#70B4B4" stroke-width="3" stroke-miterlimit="10" x1="329.651" y1="259.216" x2="408.224" y2="259.216"/>
			
				<line fill="none" stroke="#70B4B4" stroke-width="3" stroke-miterlimit="10" x1="329.651" y1="300.093" x2="408.224" y2="300.093"/>
			
				<line fill="none" stroke="#85DADA" stroke-width="3" stroke-miterlimit="10" x1="351.486" y1="177.463" x2="482.054" y2="177.463"/>
			
				<line fill="none" stroke="#85DADA" stroke-width="3" stroke-miterlimit="10" x1="351.486" y1="185.638" x2="511.586" y2="185.638"/>
			
				<line fill="none" stroke="#85DADA" stroke-width="3" stroke-miterlimit="10" x1="351.486" y1="193.813" x2="497.148" y2="193.813"/>
			
				<line fill="none" stroke="#85DADA" stroke-width="3" stroke-miterlimit="10" x1="351.486" y1="218.34" x2="469.913" y2="218.34"/>
			<g>
				
					<line fill="none" stroke="#85DADA" stroke-width="3" stroke-miterlimit="10" x1="351.486" y1="226.515" x2="526.024" y2="226.515"/>
				
					<line fill="none" stroke="#85DADA" stroke-width="3" stroke-miterlimit="10" x1="538.849" y1="226.515" x2="572.947" y2="226.515"/>
			</g>
			
				<line fill="none" stroke="#85DADA" stroke-width="3" stroke-miterlimit="10" x1="351.486" y1="234.69" x2="566.056" y2="234.69"/>
			<g>
				
					<line fill="none" stroke="#85DADA" stroke-width="3" stroke-miterlimit="10" x1="351.486" y1="242.866" x2="454.491" y2="242.866"/>
				
					<line fill="none" stroke="#85DADA" stroke-width="3" stroke-miterlimit="10" x1="460.083" y1="242.866" x2="563.089" y2="242.866"/>
			</g>
		</g>
	</g>
</g>
<g>
	<polygon fill="#85DADA" points="217.415,504.592 226.292,488.61 239.098,510.092 245.128,506.497 208.41,444.903 	"/>
	<polygon fill="#70B4B4" points="208.41,444.903 245.128,506.497 251.159,502.902 238.353,481.419 256.637,481.21 	"/>
</g>
</svg>
