<svg xmlns="http://www.w3.org/2000/svg" width="140" height="140" viewBox="0 0 140 140"><path opacity=".16" fill="#FFF" d="M62.28 3.504L91.72 43.376l47.645 26.488-20.356-49.145L69.863.362 20.72 20.72"/><path fill="#BBB" d="M119.007 119.007l-5.787 2.397-43.357 17.96 49.144-20.356 20.356-49.144M.363 69.863L20.72 119.01l34.748 14.394-34.75-14.395M69.862 139.364"/><path opacity=".32" fill="#FFF" d="M62.28 3.504L20.72 20.72l38.535 7.4 25.923 29.19 31.903 24.05 1.927 37.647 20.356-49.143-47.645-26.488"/><path fill="#CCC" d="M20.72 20.72l-3.58 8.637"/><path opacity=".48" fill="#FFF" d="M85.178 57.31L59.255 28.12l-38.534-7.4-3.58 8.637c.008.007 13.125 14.33 21.638 22.844 8.515 8.517 38.005 18.676 38.005 18.676S93.07 93.072 96.6 96.6c3.526 3.527 16.61 24.788 16.62 24.804l5.787-2.397-1.926-37.648L85.18 57.31z"/><path fill="#DDD" d="M113.22 121.404l-36.915 15.29-6.443 2.67 43.358-17.96"/><path opacity=".64" fill="#FFF" d="M76.783 70.876S47.293 60.716 38.778 52.2c-8.513-8.513-21.63-22.835-21.637-22.843L8.29 50.73c.02 0 9.863.006 20.737 10.88 10.885 10.885 8.62 16.447 18.212 26.04 9.59 9.59 18.065 14.46 25.724 22.12s18.753 20.54 18.753 20.54l-15.413 6.384 36.915-15.29c-.01-.017-13.095-21.28-16.622-24.805-3.527-3.528-19.815-25.724-19.815-25.724z"/><path fill="#EEE" d="M8.288 50.73L.363 69.862 8.29 50.73M8.29 50.73L.362 69.862 8.29 50.73"/><path opacity=".8" fill="#FFF" d="M37.14 95.775c9.538 9.538 6.368 10.627 18.838 23.098 12.463 12.464 20.317 17.815 20.326 17.82l15.413-6.383s-11.094-12.88-18.753-20.54S56.83 97.24 47.24 87.65c-9.593-9.593-7.328-15.155-18.213-26.04C18.153 50.736 8.31 50.73 8.29 50.73L.362 69.862c.004.003 6.995 4.976 14.17 12.152 7.178 7.177 13.07 4.222 22.607 13.76z"/><path fill="#FFF" d="M69.862 139.364l-14.394-5.962M20.72 119.007l34.748 14.395 14.394 5.962"/><path fill="#FFF" d="M69.862 139.363L20.72 119.007l49.142 20.357 6.443-2.67-6.442 2.67M69.862 139.363L20.72 119.007l49.142 20.356M.363 69.863"/><path fill="#FFF" d="M55.978 118.873c-12.47-12.47-9.3-13.56-18.838-23.098-9.538-9.538-15.43-6.583-22.606-13.76C7.36 74.84.367 69.865.364 69.863l26.608 42.51 42.89 26.99 6.443-2.668c-.01-.007-7.864-5.358-20.327-17.822z"/><path fill="#E64" d="M69.862 139.363l-42.89-26.99-26.61-42.51 20.357 49.144"/></svg>