<?xml version="1.0" encoding="utf-8"?>
<!-- Generator: Adobe Illustrator 17.0.0, SVG Export Plug-In . SVG Version: 6.00 Build 0)  -->
<!DOCTYPE svg PUBLIC "-//W3C//DTD SVG 1.1//EN" "http://www.w3.org/Graphics/SVG/1.1/DTD/svg11.dtd">
<svg version="1.1" id="Laag_1" xmlns="http://www.w3.org/2000/svg" xmlns:xlink="http://www.w3.org/1999/xlink" x="0px" y="0px"
	 width="865px" height="565px" viewBox="0 0 865 565" enable-background="new 0 0 865 565" xml:space="preserve">
<g>
	<circle fill="#99FFFF" cx="299.147" cy="66.373" r="4.706"/>
	<circle fill="#99FFFF" cx="341.408" cy="52.81" r="19.531"/>
	<circle fill="#99FFFF" cx="397.235" cy="95.79" r="31.824"/>
	<circle fill="#99FFFF" cx="451.824" cy="49.749" r="24.222"/>
	<circle fill="#F97B62" cx="480.412" cy="87.79" r="14.354"/>
	<circle fill="#99FFFF" cx="472.145" cy="139.092" r="12.354"/>
	<circle fill="#99FFFF" cx="384.433" cy="31.395" r="5.177"/>
</g>
<g>
	<rect x="522.436" y="68.973" fill="#F97B62" width="76.363" height="39.227"/>
	<circle fill="#F97B62" cx="522.436" cy="88.586" r="19.613"/>
	<circle fill="#F97B62" cx="598.8" cy="88.586" r="19.613"/>
	<circle fill="#F97B62" cx="568.076" cy="62.21" r="19.613"/>
	<circle fill="#F97B62" cx="537.651" cy="66.493" r="19.613"/>
	<circle fill="#F97B62" cx="552.011" cy="46.316" r="11.61"/>
	<circle fill="#F97B62" cx="593.937" cy="66.493" r="11.61"/>
</g>
<g>
	<rect x="783.49" y="292.809" fill="#F97B62" width="41.934" height="21.541"/>
	<circle fill="#F97B62" cx="783.49" cy="303.58" r="10.771"/>
	<circle fill="#F97B62" cx="825.425" cy="303.58" r="10.771"/>
	<circle fill="#F97B62" cx="808.553" cy="289.095" r="10.771"/>
	<circle fill="#F97B62" cx="791.845" cy="291.447" r="10.771"/>
	<circle fill="#F97B62" cx="799.731" cy="280.367" r="6.376"/>
	<circle fill="#F97B62" cx="822.754" cy="291.447" r="6.376"/>
</g>
<g>
	<rect x="164.145" y="252.5" fill="#F97B62" width="57.037" height="29.299"/>
	<circle fill="#F97B62" cx="164.145" cy="267.149" r="14.65"/>
	<circle fill="#F97B62" cx="221.182" cy="267.149" r="14.65"/>
	<circle fill="#F97B62" cx="198.235" cy="247.448" r="14.65"/>
	<circle fill="#F97B62" cx="175.509" cy="250.648" r="14.65"/>
	<circle fill="#F97B62" cx="186.236" cy="235.577" r="8.672"/>
	<circle fill="#F97B62" cx="217.55" cy="250.648" r="8.672"/>
</g>
<g>
	<rect x="43.12" y="332.245" fill="#F97B62" width="40.012" height="20.554"/>
	<circle fill="#F97B62" cx="43.12" cy="342.522" r="10.277"/>
	<circle fill="#F97B62" cx="83.133" cy="342.522" r="10.277"/>
	<circle fill="#F97B62" cx="67.035" cy="328.702" r="10.277"/>
	<circle fill="#F97B62" cx="51.092" cy="330.946" r="10.277"/>
	<circle fill="#F97B62" cx="58.617" cy="320.374" r="6.083"/>
	<circle fill="#F97B62" cx="80.585" cy="330.946" r="6.083"/>
</g>
<g>
	<path fill="#99FFFF" d="M86.96,255.68l-26.829,13.543v-30.054c-16.602,0-30.053,13.45-30.053,30.054
		c0,16.603,13.452,30.053,30.053,30.053s30.053-13.45,30.053-30.053C90.185,264.348,89.018,259.75,86.96,255.68z"/>
	<path fill="#F97B62" d="M86.96,255.68c-4.952-9.794-15.101-16.511-26.829-16.511v30.054L86.96,255.68z"/>
</g>
<g>
	<rect x="329.233" y="391.25" fill="#F97B62" width="6.057" height="45.216"/>
	<rect x="337.792" y="401.14" fill="#99FFFF" width="6.057" height="35.326"/>
	<rect x="346.35" y="405.951" fill="#99FFFF" width="6.057" height="30.514"/>
	<rect x="354.908" y="426.769" fill="#99FFFF" width="6.057" height="9.696"/>
	<rect x="320.675" y="397.681" fill="#99FFFF" width="6.057" height="38.785"/>
	<rect x="312.116" y="410.187" fill="#99FFFF" width="6.057" height="26.278"/>
	<rect x="303.557" y="417.073" fill="#99FFFF" width="6.057" height="19.392"/>
	<rect x="294.999" y="420.964" fill="#99FFFF" width="6.057" height="15.502"/>
</g>
<polyline fill="none" stroke="#F97B62" stroke-width="3.2481" stroke-linejoin="round" stroke-miterlimit="10" points="
	49.844,231.392 58.316,186.176 79.869,201.733 91.905,172.713 116.437,202.467 126.628,165.238 148.651,182.974 156.114,133.075 
	178.443,152.232 188.259,113.261 "/>
<g>
	<circle fill="#70B4B4" cx="758.304" cy="242.501" r="37.211"/>
	<circle fill="#99FFFF" cx="758.304" cy="242.501" r="31.345"/>
	<polygon fill="#F97B62" points="747.409,225.005 778.439,242.921 747.409,260.837 	"/>
</g>
<g>
	<polygon fill="#70B4B4" points="749.768,334.357 706.101,309.145 749.496,284.091 793.164,309.303 	"/>
	<polygon fill="#99FFFF" points="749.768,384.465 706.101,359.254 706.101,309.145 749.768,334.357 	"/>
	<polygon fill="#85DADA" points="793.164,359.411 749.768,384.465 749.768,334.357 793.164,309.303 	"/>
</g>
<g>
	<polygon fill="#70B4B4" points="174.376,69.313 146.203,53.048 174.2,36.884 202.373,53.149 	"/>
	<polygon fill="#99FFFF" points="174.376,101.642 146.203,85.376 146.203,53.048 174.376,69.313 	"/>
	<polygon fill="#85DADA" points="202.373,85.478 174.376,101.642 174.376,69.313 202.373,53.149 	"/>
</g>
<g>
	<polygon fill="#70B4B4" points="298.6,513.033 281.392,503.098 298.492,493.225 315.7,503.16 	"/>
	<polygon fill="#99FFFF" points="298.6,532.779 281.392,522.844 281.392,503.098 298.6,513.033 	"/>
	<polygon fill="#85DADA" points="315.7,522.906 298.6,532.779 298.6,513.033 315.7,503.16 	"/>
</g>
<g>
	<path fill="#99FFFF" d="M106.119,397.396c-5.708-18.62-25.429-29.088-44.049-23.38l0,0c-18.62,5.708-29.088,25.429-23.38,44.049
		l0,0c5.708,18.62,25.429,29.088,44.049,23.38l0,0C101.36,435.738,111.827,416.016,106.119,397.396L106.119,397.396z"/>
	<path fill="#99FFFF" d="M180.903,358.894c-6.745-22.004-30.05-34.373-52.054-27.628l0,0c-22.004,6.745-34.373,30.05-27.628,52.054
		l0,0c6.745,22.004,30.05,34.373,52.054,27.628l0,0C175.278,404.203,187.648,380.897,180.903,358.894L180.903,358.894z"/>
	<polygon fill="#85DADA" points="180.01,442.604 184.681,457.841 189.352,473.079 253.246,475.893 242.299,440.179 226.222,387.642 
			"/>
	<polygon fill="#70B4B4" points="240.128,361.651 212.317,376.886 247.183,491.555 279.355,490.544 	"/>
	<g>
		<path fill="#70B4B4" d="M204.115,504.285c0.247,2.739-1.739,5.5-4.415,6.137L94.117,535.536c-2.675,0.636-5.881-0.85-7.123-3.304
			l-37.802-74.667c-1.242-2.453-0.164-5.282,2.396-6.286l138.031-54.136c2.56-1.004,4.857,0.415,5.104,3.154L204.115,504.285z"/>
	</g>
	<path fill="#85DADA" d="M174.973,441.034c-1.227-4.002-5.465-6.252-9.467-5.025l0,0c-4.002,1.227-6.252,5.465-5.025,9.467l0,0
		c1.227,4.002,5.465,6.252,9.467,5.025l0,0C173.95,449.274,176.2,445.036,174.973,441.034L174.973,441.034z"/>
	<path fill="#85DADA" d="M164.356,469.202c-1.227-4.002-5.465-6.252-9.467-5.025l0,0c-4.002,1.227-6.252,5.465-5.025,9.467l0,0
		c1.227,4.002,5.465,6.252,9.467,5.025l0,0C163.333,477.442,165.583,473.204,164.356,469.202L164.356,469.202z"/>
	<path fill="#85DADA" d="M72.461,384.844c-1.227-4.002-5.465-6.252-9.467-5.025l0,0c-4.002,1.227-6.252,5.465-5.025,9.467l0,0
		c1.227,4.002,5.465,6.252,9.467,5.025l0,0C71.438,393.085,73.687,388.846,72.461,384.844L72.461,384.844z"/>
	<path fill="#85DADA" d="M97.056,394.255c-1.227-4.002-5.465-6.252-9.467-5.025l0,0c-4.002,1.227-6.252,5.465-5.025,9.467l0,0
		c1.227,4.002,5.465,6.252,9.467,5.025l0,0C96.033,402.496,98.282,398.257,97.056,394.255L97.056,394.255z"/>
	<path fill="#85DADA" d="M97.034,417.198c-1.227-4.002-5.465-6.252-9.467-5.025l0,0c-4.002,1.227-6.252,5.465-5.025,9.467l0,0
		c1.227,4.002,5.465,6.252,9.467,5.025l0,0C96.011,425.438,98.261,421.2,97.034,417.198L97.034,417.198z"/>
	<path fill="#85DADA" d="M70.93,425.2c-1.227-4.002-5.465-6.252-9.467-5.025l0,0c-4.002,1.227-6.252,5.465-5.025,9.467l0,0
		c1.227,4.002,5.465,6.252,9.467,5.025l0,0C69.907,433.44,72.156,429.202,70.93,425.2L70.93,425.2z"/>
	<path fill="#85DADA" d="M59.016,405.916c-1.227-4.002-5.465-6.252-9.467-5.025l0,0c-4.002,1.227-6.252,5.465-5.025,9.467l0,0
		c1.227,4.002,5.465,6.252,9.467,5.025l0,0C57.993,414.157,60.243,409.918,59.016,405.916L59.016,405.916z"/>
	<path fill="#FFFFFF" d="M77.591,406.142c-0.878-2.864-3.912-4.474-6.776-3.596l0,0c-2.864,0.878-4.474,3.912-3.596,6.776l0,0
		c0.878,2.864,3.912,4.474,6.776,3.596l0,0C76.859,412.039,78.469,409.006,77.591,406.142L77.591,406.142z"/>
	<path fill="#85DADA" d="M141.127,344.061c-1.45-4.729-6.459-7.388-11.188-5.938l0,0c-4.729,1.45-7.388,6.459-5.938,11.188l0,0
		c1.45,4.729,6.459,7.388,11.188,5.938l0,0C139.919,353.799,142.577,348.79,141.127,344.061L141.127,344.061z"/>
	<path fill="#85DADA" d="M170.192,355.182c-1.45-4.729-6.459-7.388-11.188-5.938l0,0c-4.729,1.45-7.388,6.459-5.938,11.188l0,0
		c1.45,4.729,6.459,7.388,11.188,5.938l0,0C168.983,364.92,171.642,359.911,170.192,355.182L170.192,355.182z"/>
	<path fill="#85DADA" d="M170.166,382.293c-1.45-4.729-6.459-7.388-11.188-5.938l0,0c-4.729,1.45-7.388,6.459-5.938,11.188l0,0
		c1.45,4.729,6.459,7.388,11.188,5.938l0,0C168.957,392.031,171.616,387.023,170.166,382.293L170.166,382.293z"/>
	<path fill="#85DADA" d="M139.318,391.75c-1.45-4.729-6.459-7.388-11.188-5.938l0,0c-4.729,1.45-7.388,6.459-5.938,11.188l0,0
		c1.45,4.729,6.459,7.388,11.188,5.938l0,0C138.11,401.488,140.768,396.479,139.318,391.75L139.318,391.75z"/>
	<path fill="#85DADA" d="M125.24,368.961c-1.45-4.729-6.459-7.388-11.188-5.938l0,0c-4.729,1.45-7.388,6.459-5.938,11.188l0,0
		c1.45,4.729,6.459,7.388,11.188,5.938l0,0C124.031,378.699,126.69,373.691,125.24,368.961L125.24,368.961z"/>
	<path fill="#FFFFFF" d="M147.19,369.228c-1.038-3.385-4.622-5.287-8.007-4.25l0,0c-3.385,1.038-5.287,4.622-4.25,8.007l0,0
		c1.038,3.385,4.622,5.287,8.007,4.25l0,0C146.325,376.197,148.227,372.613,147.19,369.228L147.19,369.228z"/>
	<path fill="#99FFFF" d="M181.954,463.807c-1.227-4.002-5.465-6.252-9.467-5.025l0,0c-4.002,1.227-6.252,5.465-5.025,9.467l0,0
		c1.227,4.002,5.465,6.252,9.467,5.025l0,0C180.931,472.048,183.181,467.809,181.954,463.807L181.954,463.807z"/>
	<path fill="#85DADA" d="M187.355,481.427c-1.227-4.002-5.465-6.252-9.467-5.025l0,0c-4.002,1.227-6.252,5.465-5.025,9.467l0,0
		c1.227,4.002,5.465,6.252,9.467,5.025l0,0C186.332,489.668,188.582,485.429,187.355,481.427L187.355,481.427z"/>
	<path fill="#99FFFF" d="M169.758,486.822c-1.227-4.002-5.465-6.252-9.467-5.025l0,0c-4.002,1.227-6.252,5.465-5.025,9.467l0,0
		c1.227,4.002,5.465,6.252,9.467,5.025l0,0C168.735,495.062,170.984,490.824,169.758,486.822L169.758,486.822z"/>
	<path fill="#85DADA" d="M139.281,444.047l-94.666,29.019l4.442,14.492l94.666-29.019c4.002-1.227,6.252-5.465,5.025-9.467
		C147.522,445.07,143.284,442.821,139.281,444.047z"/>
	<polygon fill="#70B4B4" points="27.925,470.445 32.314,484.764 36.704,499.083 49.058,487.559 46.837,480.313 44.616,473.066 	"/>
	
		<rect x="87.007" y="479.93" transform="matrix(0.9561 -0.2931 0.2931 0.9561 -139.4375 55.3894)" fill="#F97B62" width="56.231" height="26.173"/>
</g>
<g>
	<rect x="99.539" y="205.821" fill="#70B4B4" width="84.199" height="109.14"/>
	<g>
		<g>
			<path fill="#85DADA" d="M113.759,202.645c0-1.038-0.844-1.888-1.875-1.888c-1.031,0-1.875,0.849-1.875,1.888v6.351
				c0,1.038,0.844,1.888,1.875,1.888s1.875-0.849,1.875-1.888V202.645z"/>
		</g>
		<g>
			<path fill="#85DADA" d="M122.26,202.645c0-1.038-0.844-1.888-1.875-1.888s-1.875,0.849-1.875,1.888v6.351
				c0,1.038,0.844,1.888,1.875,1.888s1.875-0.849,1.875-1.888V202.645z"/>
		</g>
		<g>
			<path fill="#85DADA" d="M130.762,202.645c0-1.038-0.844-1.888-1.875-1.888c-1.031,0-1.875,0.849-1.875,1.888v6.351
				c0,1.038,0.844,1.888,1.875,1.888c1.031,0,1.875-0.849,1.875-1.888V202.645z"/>
		</g>
		<g>
			<path fill="#85DADA" d="M139.263,202.645c0-1.038-0.844-1.888-1.875-1.888s-1.875,0.849-1.875,1.888v6.351
				c0,1.038,0.844,1.888,1.875,1.888s1.875-0.849,1.875-1.888V202.645z"/>
		</g>
		<g>
			<path fill="#85DADA" d="M147.764,202.645c0-1.038-0.844-1.888-1.875-1.888c-1.031,0-1.875,0.849-1.875,1.888v6.351
				c0,1.038,0.844,1.888,1.875,1.888c1.031,0,1.875-0.849,1.875-1.888V202.645z"/>
		</g>
		<g>
			<path fill="#85DADA" d="M156.265,202.645c0-1.038-0.844-1.888-1.875-1.888c-1.031,0-1.875,0.849-1.875,1.888v6.351
				c0,1.038,0.844,1.888,1.875,1.888c1.031,0,1.875-0.849,1.875-1.888V202.645z"/>
		</g>
		<g>
			<path fill="#85DADA" d="M164.766,202.645c0-1.038-0.844-1.888-1.875-1.888c-1.031,0-1.875,0.849-1.875,1.888v6.351
				c0,1.038,0.844,1.888,1.875,1.888c1.031,0,1.875-0.849,1.875-1.888V202.645z"/>
		</g>
		<g>
			<path fill="#85DADA" d="M173.268,202.645c0-1.038-0.844-1.888-1.875-1.888c-1.031,0-1.875,0.849-1.875,1.888v6.351
				c0,1.038,0.844,1.888,1.875,1.888c1.031,0,1.875-0.849,1.875-1.888V202.645z"/>
		</g>
		<g>
			<path fill="#85DADA" d="M181.769,202.645c0-1.038-0.844-1.888-1.875-1.888c-1.031,0-1.875,0.849-1.875,1.888v6.351
				c0,1.038,0.844,1.888,1.875,1.888c1.031,0,1.875-0.849,1.875-1.888V202.645z"/>
		</g>
		<g>
			<path fill="#85DADA" d="M105.258,202.645c0-1.038-0.844-1.888-1.875-1.888c-1.031,0-1.875,0.849-1.875,1.888v6.351
				c0,1.038,0.844,1.888,1.875,1.888c1.031,0,1.875-0.849,1.875-1.888V202.645z"/>
		</g>
	</g>
	<g>
		
			<line fill="none" stroke="#85DADA" stroke-width="4.4042" stroke-miterlimit="10" x1="110.071" y1="227.762" x2="173.205" y2="227.762"/>
		
			<line fill="none" stroke="#85DADA" stroke-width="4.4042" stroke-miterlimit="10" x1="110.071" y1="236.575" x2="173.205" y2="236.575"/>
		
			<line fill="none" stroke="#85DADA" stroke-width="4.4042" stroke-miterlimit="10" x1="110.071" y1="245.389" x2="173.205" y2="245.389"/>
		
			<line fill="none" stroke="#85DADA" stroke-width="4.4042" stroke-miterlimit="10" x1="110.071" y1="254.203" x2="173.205" y2="254.203"/>
		
			<line fill="none" stroke="#85DADA" stroke-width="4.4042" stroke-miterlimit="10" x1="110.071" y1="263.016" x2="173.205" y2="263.016"/>
		
			<line fill="none" stroke="#85DADA" stroke-width="4.4042" stroke-miterlimit="10" x1="110.071" y1="280.644" x2="173.205" y2="280.644"/>
		
			<line fill="none" stroke="#85DADA" stroke-width="4.4042" stroke-miterlimit="10" x1="110.071" y1="271.83" x2="173.205" y2="271.83"/>
		
			<line fill="none" stroke="#85DADA" stroke-width="4.4042" stroke-miterlimit="10" x1="110.071" y1="289.458" x2="173.205" y2="289.458"/>
	</g>
</g>
<g>
	<path fill="#85DADA" d="M662.863,316.394c0.58-2.439-0.922-4.978-3.339-5.644l-5.821-1.603c-2.417-0.665-5.008,0.747-5.757,3.14
		l-0.904,2.883l15.122,4.163L662.863,316.394z"/>
	<path fill="#5C8F8F" d="M647.042,315.17l-15.832,50.522c-0.749,2.392,0.615,4.894,3.031,5.559l10.216,2.812
		c2.417,0.665,4.869-0.785,5.45-3.224l12.257-51.506L647.042,315.17z"/>
	<circle fill="#70B4B4" cx="665.836" cy="276.451" r="36.548"/>
	<path fill="#85DADA" d="M695.972,284.748c4.582-16.644-5.196-33.852-21.84-38.434c-8.688-2.392-17.526-0.865-24.645,3.503
		c6.772-3.553,14.853-4.65,22.809-2.46c16.644,4.582,26.422,21.789,21.84,38.434c-2.19,7.956-7.268,14.336-13.787,18.336
		C687.745,300.247,693.581,293.436,695.972,284.748z"/>
	<path fill="#99FFFF" d="M672.296,247.357c-7.955-2.19-16.036-1.093-22.809,2.46c-6.519,4-11.598,10.381-13.788,18.337
		c-4.582,16.644,5.196,33.852,21.84,38.434c7.956,2.19,16.037,1.093,22.81-2.461c6.519-4,11.597-10.38,13.787-18.336
		C698.718,269.147,688.94,251.94,672.296,247.357z"/>
</g>
<g>
	<g>
		<path fill="#F97B62" d="M132.08,52.52c-1.077-5.394-6.425-9.262-11.885-8.597l-76.451,9.312
			c-5.46,0.665-10.293,5.694-10.74,11.176l-6.592,80.77c-0.447,5.482,3.62,9.195,9.038,8.252l103.004-17.927
			c5.419-0.943,8.971-6.128,7.894-11.521L132.08,52.52z"/>
	</g>
	<text transform="matrix(0.9765 -0.2154 0.2154 0.9765 60.3467 100.2334)"><tspan x="0" y="0" fill="#99FFFF" font-family="'OpenSans-Bold'" font-size="41.7527" letter-spacing="5">60</tspan><tspan x="-17.353" y="26.354" fill="#99FFFF" font-family="'OpenSans-Bold'" font-size="21.9615">second</tspan><tspan x="59.759" y="26.354" fill="#99FFFF" font-family="'OpenSans-Bold'" font-size="21.9615">s</tspan></text>
</g>
<g>
	<g>
		<path fill="#5C8F8F" d="M799.922,99.342c0.865-3.185-1.088-6.249-4.34-6.809L653.793,68.095c-3.252-0.56-6.034,1.678-6.182,4.975
			l-3.896,86.802c-0.148,3.297,2.406,6.357,5.676,6.801l121.587,16.512c3.27,0.444,6.653-1.798,7.518-4.983L799.922,99.342z"/>
	</g>
	<polygon fill="#70B4B4" points="649.5,57.679 646.261,76.473 654.558,77.903 676.592,62.348 	"/>
	<polygon fill="#70B4B4" points="804.457,84.386 777.174,79.683 755.14,95.239 788.667,101.017 803.381,90.629 	"/>
	<polygon fill="#70B4B4" points="803.381,90.629 788.667,101.017 801.218,103.18 	"/>
	<polygon fill="#70B4B4" points="710.119,68.127 688.085,83.682 721.613,89.46 743.646,73.905 	"/>
	<polygon fill="#85DADA" points="743.646,73.905 721.613,89.46 755.14,95.239 777.174,79.683 	"/>
	<polygon fill="#85DADA" points="676.592,62.348 654.558,77.903 688.085,83.682 710.119,68.127 	"/>
	<polygon fill="#85DADA" points="662.393,38.714 649.552,51.343 649.5,57.679 677.185,57.908 696.413,38.994 	"/>
	<polygon fill="#70B4B4" points="649.657,38.608 649.552,51.343 662.393,38.714 	"/>
	<polygon fill="#85DADA" points="806.737,58.978 806.894,39.907 798.475,39.837 779.246,58.75 	"/>
	<polygon fill="#70B4B4" points="730.433,39.275 696.413,38.994 677.185,57.908 711.205,58.189 	"/>
	<polygon fill="#85DADA" points="745.226,58.47 764.454,39.556 730.433,39.275 711.205,58.189 	"/>
	<polygon fill="#70B4B4" points="779.246,58.75 798.475,39.837 764.454,39.556 745.226,58.47 	"/>
	<circle fill="#85DADA" cx="649.5" cy="57.679" r="9.73"/>
	<circle fill="#F97B62" cx="649.5" cy="57.679" r="4.281"/>
	<polygon fill="#99FFFF" points="760.165,133.771 680.015,119.957 681.736,99.152 765.391,114.269 	"/>
</g>
<g>
	<polygon fill="#5C8F8F" points="467.703,381.282 433.707,381.282 399.711,381.282 391.921,421.18 433.707,421.18 475.493,421.18 	
		"/>
	<path fill="#85DADA" d="M477.618,417.638c-5.194,0-43.911,0-43.911,0s-38.717,0-43.911,0s-6.138,2.125-6.138,7.082h50.049h50.049
		C483.756,419.763,482.812,417.638,477.618,417.638z"/>
	<path fill="#5C8F8F" d="M616.233,133.306c0-6.977-5.709-12.686-12.686-12.686H262.923c-6.977,0-12.686,5.709-12.686,12.686v218.519
		h365.996V133.306z"/>
	<rect x="266.094" y="135.208" fill="#70B4B4" width="335.549" height="201.393"/>
	<path fill="#85DADA" d="M250.237,351.825v22.201c0,6.977,5.709,12.686,12.686,12.686h340.624c6.977,0,12.686-5.709,12.686-12.686
		v-22.201H250.237z"/>
	<rect x="266.025" y="135.208" fill="#70B4B4" width="335.618" height="200.93"/>
	<g>
		<circle fill="#99FFFF" cx="433.869" cy="224.18" r="82.002"/>
		<circle fill="#85DADA" cx="433.869" cy="224.18" r="69.074"/>
		<polygon fill="#F97B62" points="409.86,185.623 478.239,225.104 409.86,264.585 		"/>
	</g>
	<rect x="266.025" y="316.224" fill="#85DADA" width="336.209" height="20"/>
	<g>
		<rect x="269.968" y="319.786" fill="#5C8F8F" width="4.667" height="12.876"/>
		<rect x="277.536" y="319.786" fill="#5C8F8F" width="4.667" height="12.876"/>
	</g>
	<rect x="290.401" y="319.786" fill="#5C8F8F" width="306.088" height="12.876"/>
</g>
<g>
	<polygon fill="#85DADA" points="664.499,227.611 673.14,214.176 683.095,233.63 688.557,230.836 660.013,175.056 	"/>
	<polygon fill="#70B4B4" points="660.013,175.056 688.557,230.836 694.018,228.041 684.063,208.587 700.018,209.435 	"/>
</g>
<g>
	<rect x="560.618" y="425.67" fill="#5C8F8F" width="162.713" height="100.202"/>
	<rect x="599.954" y="442.269" fill="#476969" width="106.83" height="70.733"/>
	<rect x="575.947" y="495.318" fill="#70B4B4" width="24.007" height="17.683"/>
	<rect x="575.947" y="442.269" fill="#85DADA" width="24.007" height="17.683"/>
	<rect x="575.947" y="477.635" fill="#85DADA" width="24.007" height="17.683"/>
	<rect x="575.947" y="459.952" fill="#70B4B4" width="24.007" height="17.683"/>
</g>
<g>
	<circle fill="#85DADA" cx="759.777" cy="481.231" r="20.061"/>
	<circle fill="#5C8F8F" cx="768.161" cy="509.485" r="20.061"/>
	
		<rect x="743.908" y="480.622" transform="matrix(0.9587 -0.2845 0.2845 0.9587 -109.3527 237.7976)" fill="#5C8F8F" width="40.122" height="29.472"/>
	<polyline fill="none" stroke="#99FFFF" stroke-width="2" stroke-miterlimit="10" points="754.07,461.999 759.777,481.231 
		740.545,486.938 	"/>
	
		<rect x="757.115" y="474.377" transform="matrix(0.9587 -0.2845 0.2845 0.9587 -105.507 236.0214)" fill="#F97B62" width="5.323" height="13.707"/>
</g>
<g>
	<g>
		<path fill="#70B4B4" d="M534.584,525.602c-0.102,2.748-2.436,5.004-5.186,5.013l-194.08,0.658c-2.75,0.009-5-2.233-5-4.983
			v-76.442c0-2.75,2.249-4.95,4.999-4.889l197.104,4.368c2.749,0.061,4.915,2.359,4.813,5.107L534.584,525.602z"/>
	</g>
	<g>
		<rect x="337.344" y="457.761" fill="#85DADA" width="12.812" height="12.202"/>
		<rect x="352.316" y="457.761" fill="#85DADA" width="12.812" height="12.202"/>
		<rect x="367.29" y="457.761" fill="#85DADA" width="12.812" height="12.202"/>
		<rect x="382.262" y="457.761" fill="#85DADA" width="12.812" height="12.202"/>
		<rect x="397.235" y="457.761" fill="#85DADA" width="12.812" height="12.202"/>
		<rect x="412.208" y="457.761" fill="#85DADA" width="12.812" height="12.202"/>
		<rect x="427.18" y="457.761" fill="#85DADA" width="12.812" height="12.202"/>
		<rect x="442.153" y="457.761" fill="#85DADA" width="12.812" height="12.202"/>
		<rect x="457.126" y="457.761" fill="#85DADA" width="12.812" height="12.202"/>
	</g>
	<g>
		<rect x="485.673" y="457.761" fill="#85DADA" width="12.812" height="12.202"/>
		<rect x="500.646" y="457.761" fill="#85DADA" width="12.812" height="12.202"/>
		<rect x="515.619" y="457.761" fill="#85DADA" width="12.812" height="12.202"/>
	</g>
	<g>
		<rect x="485.673" y="474.64" fill="#85DADA" width="12.812" height="12.202"/>
		<rect x="500.646" y="474.64" fill="#85DADA" width="12.812" height="12.202"/>
		<rect x="515.619" y="474.64" fill="#85DADA" width="12.812" height="12.202"/>
	</g>
	<g>
		<rect x="500.646" y="491.316" fill="#85DADA" width="12.812" height="12.202"/>
	</g>
	<g>
		<rect x="485.673" y="508.399" fill="#85DADA" width="12.812" height="12.202"/>
		<rect x="500.646" y="508.399" fill="#85DADA" width="12.812" height="12.202"/>
		<rect x="515.619" y="508.399" fill="#85DADA" width="12.812" height="12.202"/>
	</g>
	<g>
		<rect x="337.344" y="474.64" fill="#85DADA" width="12.812" height="12.202"/>
		<rect x="352.316" y="474.64" fill="#85DADA" width="12.812" height="12.202"/>
		<rect x="367.29" y="474.64" fill="#85DADA" width="12.812" height="12.202"/>
		<rect x="382.262" y="474.64" fill="#85DADA" width="12.812" height="12.202"/>
		<rect x="397.235" y="474.64" fill="#85DADA" width="12.812" height="12.202"/>
		<rect x="412.208" y="474.64" fill="#85DADA" width="12.812" height="12.202"/>
		<rect x="427.18" y="474.64" fill="#85DADA" width="12.812" height="12.202"/>
		<rect x="442.153" y="474.64" fill="#85DADA" width="12.812" height="12.202"/>
		<rect x="457.126" y="474.64" fill="#85DADA" width="12.812" height="12.202"/>
	</g>
	<g>
		<rect x="337.344" y="491.316" fill="#85DADA" width="12.812" height="12.202"/>
		<rect x="352.316" y="491.316" fill="#85DADA" width="12.812" height="12.202"/>
		<rect x="367.29" y="491.316" fill="#85DADA" width="12.812" height="12.202"/>
		<rect x="382.262" y="491.316" fill="#85DADA" width="12.812" height="12.202"/>
		<rect x="397.235" y="491.316" fill="#85DADA" width="12.812" height="12.202"/>
		<rect x="412.208" y="491.316" fill="#85DADA" width="12.812" height="12.202"/>
		<rect x="427.18" y="491.316" fill="#85DADA" width="12.812" height="12.202"/>
		<rect x="442.153" y="491.316" fill="#85DADA" width="12.812" height="12.202"/>
		<rect x="457.126" y="491.316" fill="#85DADA" width="12.812" height="12.202"/>
	</g>
	<g>
		<rect x="337.344" y="508.399" fill="#85DADA" width="12.812" height="12.202"/>
		<rect x="352.316" y="508.399" fill="#85DADA" width="12.812" height="12.202"/>
		<rect x="367.289" y="508.399" fill="#85DADA" width="72.703" height="12.202"/>
		<rect x="442.153" y="508.399" fill="#85DADA" width="12.812" height="12.202"/>
		<rect x="457.126" y="508.399" fill="#85DADA" width="12.812" height="12.202"/>
	</g>
</g>
<g>
	<polygon fill="#85DADA" points="666.821,441.621 655.189,456.071 651.398,437.912 	"/>
	<path fill="#70B4B4" d="M659.113,439.753l7.712,1.854c-4.282-8.496,27.749-115.17,19.985-117.037
		c-7.765-1.867-27.732,107.708-35.408,113.329L659.113,439.753z"/>
</g>
<g>
	<path fill="#F97B62" d="M758.029,418.385c-0.745-6.178,7.702-13.135,8.944-15.122c1.242-1.988,1.242-1.988,1.242-1.988
		s43.977-39.008,47.704-42.238c3.727-3.23,15.404,1.739,8.944,9.441c-6.46,7.702-6.46,7.702-6.46,7.702l-37.268,42.204
		c0,0-11.912,9.203-16.018,8.469C761.011,426.121,758.029,418.385,758.029,418.385z"/>
	<path fill="#70B4B4" d="M762.005,421.648c5.384,5.058,5.253,17.392-6.957,19.131c-12.21,1.739-18.137-0.248-18.137-0.248
		s6.46,0.248,6.957-8.696C744.613,420.903,753.806,413.946,762.005,421.648z"/>
	<g>
		<path fill="#70B4B4" d="M784.28,415.642c0.778,0.778,0.853,1.975,0.168,2.66s-1.883,0.61-2.66-0.168l-14.694-14.694
			c-0.778-0.778-0.853-1.975-0.168-2.66s1.883-0.61,2.66,0.168L784.28,415.642z"/>
	</g>
</g>
<g>
	<polygon fill="#476969" points="299.093,106.137 296.977,57.173 285.021,47.16 260.685,37.356 245.669,37.799 216.833,72.231 
		216.886,82.854 226.738,104.122 226.959,111.631 237.958,120.842 244.845,113.591 252.197,111.612 281.679,74.466 293.265,105.324 
		275.977,111.464 275.822,118.379 295.154,116.669 	"/>
	<polygon fill="#70B4B4" points="283.562,55.702 240.553,105.115 225.363,78.561 251.796,46.999 260.106,45.821 	"/>
	<polygon fill="#476969" points="234.515,157.014 185.635,190.119 173.68,180.106 159.757,157.869 157.557,143.008 186.394,108.576 
		196.861,106.765 219.529,112.73 226.959,111.631 237.958,120.842 232.028,128.894 231.371,136.48 199.976,172.024 232.692,151.419 
		235.703,133.321 242.484,131.955 244.193,151.287 	"/>
	<polygon fill="#F97B62" points="181.833,177.171 222.93,126.157 194.123,115.863 167.69,147.426 167.989,155.813 	"/>
</g>
</svg>
