<?xml version="1.0" encoding="utf-8"?>
<!-- Generator: Adobe Illustrator 17.0.0, SVG Export Plug-In . SVG Version: 6.00 Build 0)  -->
<!DOCTYPE svg PUBLIC "-//W3C//DTD SVG 1.1//EN" "http://www.w3.org/Graphics/SVG/1.1/DTD/svg11.dtd">
<svg version="1.1" id="Laag_1" xmlns="http://www.w3.org/2000/svg" xmlns:xlink="http://www.w3.org/1999/xlink" x="0px" y="0px"
	 width="139.726px" height="139.726px" viewBox="0 0 139.726 139.726" enable-background="new 0 0 139.726 139.726"
	 xml:space="preserve">
<g>
	<defs>
		<polygon id="SVGID_3_" points="21.008,118.32 0.771,69.465 21.008,20.609 69.863,0.372 118.719,20.609 138.955,69.465 
			118.719,118.32 69.863,138.557 		"/>
	</defs>
	<clipPath id="SVGID_1_">
		<use xlink:href="#SVGID_3_"  overflow="visible"/>
	</clipPath>
	<g clip-path="url(#SVGID_1_)">
		
			<rect x="15.583" y="17.562" transform="matrix(0.9205 0.3907 -0.3907 0.9205 13.2938 -8.1297)" fill="#334444" width="22.087" height="22.087"/>
		
			<rect x="97.332" y="13.227" transform="matrix(0.9205 0.3907 -0.3907 0.9205 18.0987 -40.4164)" fill="#334444" width="22.087" height="22.087"/>
		
			<rect x="65.505" y="15.741" transform="matrix(0.9205 0.3907 -0.3907 0.9205 16.5509 -27.7805)" fill="#334444" width="22.087" height="22.087"/>
		
			<rect x="82.066" y="5.998" transform="matrix(0.9205 0.3907 -0.3907 0.9205 14.0603 -35.0262)" fill="#334444" width="22.087" height="22.087"/>
		
			<rect x="42.272" y="2.696" transform="matrix(0.9205 0.3907 -0.3907 0.9205 9.6068 -19.7397)" fill="#334444" width="22.087" height="22.087"/>
		
			<rect x="83.322" y="20.478" transform="matrix(-0.9205 0.3907 -0.3907 -0.9205 193.5467 23.6667)" fill="#334444" width="22.087" height="22.087"/>
		
			<rect x="44.338" y="17.177" transform="matrix(-0.9205 0.3907 -0.3907 -0.9205 117.3883 32.5581)" fill="#334444" width="22.087" height="22.087"/>
		
			<rect x="55.569" y="1.923" transform="matrix(-0.9205 0.3907 -0.3907 -0.9205 132.9972 -1.1249)" fill="#334444" width="22.087" height="22.087"/>
		
			<rect x="69.573" y="-2.612" transform="matrix(-0.9205 0.3907 -0.3907 -0.9205 158.1199 -15.3069)" fill="#334444" width="22.087" height="22.087"/>
		
			<rect x="27.791" y="11.869" transform="matrix(-0.9205 0.3907 -0.3907 -0.9205 83.5342 28.8295)" fill="#334444" width="22.087" height="22.087"/>
		
			<rect x="104.368" y="25.081" transform="matrix(-0.9205 0.3907 -0.3907 -0.9205 235.7642 24.2818)" fill="#334444" width="22.087" height="22.087"/>
		
			<rect x="41.321" y="17.02" transform="matrix(-0.9205 0.3907 -0.3907 -0.9205 103.5381 28.1451)" fill="#704F45" width="15.17" height="15.17"/>
		
			<rect x="60.539" y="42.189" transform="matrix(0.9205 0.3907 -0.3907 0.9205 26.4901 -23.7377)" fill="#4D4944" width="22.087" height="22.087"/>
		
			<rect x="47.271" y="29.193" transform="matrix(0.9205 0.3907 -0.3907 0.9205 20.3574 -19.5868)" fill="#4D4944" width="22.087" height="22.087"/>
		
			<rect x="97.208" y="31.189" transform="matrix(0.9205 0.3907 -0.3907 0.9205 21.6972 -36.6831)" fill="#704F45" width="7.585" height="7.585"/>
		
			<rect x="113.431" y="34.959" transform="matrix(0.9205 0.3907 -0.3907 0.9205 27.8699 -44.9789)" fill="#4D4944" width="22.087" height="22.087"/>
		
			<rect x="18.847" y="27.708" transform="matrix(0.9205 0.3907 -0.3907 0.9205 17.5176 -8.5985)" fill="#4D4944" width="22.087" height="22.087"/>
		
			<rect x="65.505" y="24.561" transform="matrix(0.9205 0.3907 -0.3907 0.9205 19.997 -27.0794)" fill="#4D4944" width="22.087" height="22.087"/>
		
			<rect x="97.803" y="38.418" transform="matrix(0.9205 0.3907 -0.3907 0.9205 27.9791 -38.5978)" fill="#4D4944" width="22.087" height="22.087"/>
		
			<rect x="41.088" y="36.814" transform="matrix(-0.9205 0.3907 -0.3907 -0.9205 118.8194 71.5414)" fill="#4D4944" width="22.087" height="22.087"/>
		
			<rect x="4.208" y="35.67" transform="matrix(-0.9205 0.3907 -0.3907 -0.9205 47.5436 83.7541)" fill="#4D4944" width="22.087" height="22.087"/>
		
			<rect x="29.242" y="24.85" transform="matrix(-0.9205 0.3907 -0.3907 -0.9205 91.3931 53.1933)" fill="#4D4944" width="22.087" height="22.087"/>
		
			<rect x="82.561" y="35.842" transform="matrix(-0.9205 0.3907 -0.3907 -0.9205 198.0887 53.4696)" fill="#4D4944" width="22.087" height="22.087"/>
		<path fill="#EE6644" d="M126.976,106.903c0,6.074-4.97,11.044-11.044,11.044s-11.044-4.97-11.044-11.044
			c0-6.074,4.97-11.044,11.044-11.044S126.976,100.829,126.976,106.903z"/>
		<path fill="#EE6644" d="M105.409,111.231c0,6.074-4.97,11.044-11.044,11.044c-6.074,0-11.044-4.97-11.044-11.044
			s4.97-11.044,11.044-11.044C100.44,100.188,105.409,105.157,105.409,111.231z"/>
		<path fill="#EE6644" d="M119.086,119.767c0,6.074-4.97,11.044-11.044,11.044c-6.074,0-11.044-4.97-11.044-11.044
			c0-6.074,4.97-11.044,11.044-11.044S119.086,113.692,119.086,119.767z"/>
		<path fill="#EE6644" d="M102.704,124.745c0,6.074-4.97,11.044-11.044,11.044s-11.044-4.97-11.044-11.044
			c0-6.074,4.97-11.044,11.044-11.044S102.704,118.671,102.704,124.745z"/>
		<path fill="#EE6644" d="M85.316,126.977c0,6.074-4.97,11.044-11.044,11.044c-6.074,0-11.044-4.97-11.044-11.044
			c0-6.074,4.97-11.044,11.044-11.044C80.347,115.933,85.316,120.903,85.316,126.977z"/>
		<path fill="#EE6644" d="M70.782,113.701c0,6.074-4.97,11.044-11.044,11.044s-11.044-4.97-11.044-11.044
			c0-6.074,4.97-11.044,11.044-11.044S70.782,107.627,70.782,113.701z"/>
		<path fill="#EE6644" d="M89.673,108.723c0,6.074-4.97,11.044-11.044,11.044c-6.074,0-11.044-4.97-11.044-11.044
			c0-6.074,4.97-11.044,11.044-11.044C84.703,97.679,89.673,102.649,89.673,108.723z"/>
		<path fill="#B85B47" d="M74.22,103.927c0,6.074-4.97,11.044-11.044,11.044s-11.044-4.97-11.044-11.044
			c0-6.074,4.97-11.044,11.044-11.044S74.22,97.853,74.22,103.927z"/>
		<path fill="#EE6644" d="M31.96,111.231c0,6.074-4.97,11.044-11.044,11.044s-11.044-4.97-11.044-11.044s4.97-11.044,11.044-11.044
			S31.96,105.157,31.96,111.231z"/>
		<path fill="#EE6644" d="M58.354,108.723c0,6.074-4.97,11.044-11.044,11.044s-11.044-4.97-11.044-11.044
			c0-6.074,4.97-11.044,11.044-11.044S58.354,102.649,58.354,108.723z"/>
		<path fill="#EE6644" d="M106.431,95.378c0,6.074-4.97,11.044-11.044,11.044c-6.074,0-11.044-4.97-11.044-11.044
			c0-6.074,4.97-11.044,11.044-11.044C101.462,84.335,106.431,89.304,106.431,95.378z"/>
		<path fill="#B85B47" d="M59.739,95.378c0,6.074-4.97,11.044-11.044,11.044s-11.044-4.97-11.044-11.044
			c0-6.074,4.97-11.044,11.044-11.044S59.739,89.304,59.739,95.378z"/>
		<path fill="#B85B47" d="M74.22,90.78c0,6.074-4.97,11.044-11.044,11.044s-11.044-4.97-11.044-11.044
			c0-6.074,4.97-11.044,11.044-11.044S74.22,84.706,74.22,90.78z"/>
		<path fill="#B85B47" d="M89.673,93.615c0,6.074-4.97,11.044-11.044,11.044c-6.074,0-11.044-4.97-11.044-11.044
			s4.97-11.044,11.044-11.044C84.703,82.571,89.673,87.541,89.673,93.615z"/>
		<path fill="#B85B47" d="M100.716,100.188c0,6.074-4.97,11.044-11.044,11.044c-6.074,0-11.044-4.97-11.044-11.044
			c0-6.074,4.97-11.044,11.044-11.044C95.747,89.144,100.716,94.114,100.716,100.188z"/>
		<path fill="#B85B47" d="M87.592,111.231c0,6.074-4.97,11.044-11.044,11.044c-6.074,0-11.044-4.97-11.044-11.044
			s4.97-11.044,11.044-11.044C82.622,100.188,87.592,105.157,87.592,111.231z"/>
		<path fill="#B85B47" d="M123.539,88.754c0,6.074-4.97,11.044-11.044,11.044c-6.074,0-11.044-4.97-11.044-11.044
			c0-6.074,4.97-11.044,11.044-11.044C118.569,77.71,123.539,82.68,123.539,88.754z"/>
		<path fill="#B85B47" d="M108.042,82.435c0,6.074-4.97,11.044-11.044,11.044c-6.074,0-11.044-4.97-11.044-11.044
			c0-6.074,4.97-11.044,11.044-11.044C103.073,71.392,108.042,76.361,108.042,82.435z"/>
		<path fill="#B85B47" d="M137.499,91.614c0,6.074-4.97,11.044-11.044,11.044c-6.074,0-11.044-4.97-11.044-11.044
			c0-6.074,4.97-11.044,11.044-11.044C132.53,80.57,137.499,85.54,137.499,91.614z"/>
		
			<rect x="2.361" y="51.955" transform="matrix(-0.9205 0.3907 -0.3907 -0.9205 42.3644 110.46)" fill="#704F45" width="15.17" height="15.17"/>
		
			<rect x="48.695" y="49.138" transform="matrix(-0.9205 0.3907 -0.3907 -0.9205 138.2434 92.2383)" fill="#704F45" width="22.087" height="22.087"/>
		<path fill="#9D5646" d="M47.31,86.364c0,6.074-4.97,11.044-11.044,11.044s-11.044-4.97-11.044-11.044
			c0-6.074,4.97-11.044,11.044-11.044S47.31,80.29,47.31,86.364z"/>
		<path fill="#9D5646" d="M60.922,79.736c0,6.074-4.97,11.044-11.044,11.044s-11.044-4.97-11.044-11.044
			c0-6.074,4.97-11.044,11.044-11.044S60.922,73.662,60.922,79.736z"/>
		
			<rect x="86.971" y="45.811" transform="matrix(0.9205 0.3907 -0.3907 0.9205 30.0065 -33.7777)" fill="#704F45" width="22.087" height="22.087"/>
		<path fill="#9D5646" d="M123.539,64.276c0,6.074-4.97,11.044-11.044,11.044s-11.044-4.97-11.044-11.044
			c0-6.074,4.97-11.044,11.044-11.044S123.539,58.202,123.539,64.276z"/>
		<path fill="#9D5646" d="M74.22,81.789c0,6.074-4.97,11.044-11.044,11.044s-11.044-4.97-11.044-11.044
			c0-6.074,4.97-11.044,11.044-11.044C69.25,70.746,74.22,75.715,74.22,81.789z"/>
		<path fill="#9D5646" d="M138.541,73.822c0,6.074-4.97,11.044-11.044,11.044c-6.074,0-11.044-4.97-11.044-11.044
			c0-6.074,4.97-11.044,11.044-11.044C133.571,62.778,138.541,67.748,138.541,73.822z"/>
		<path fill="#B85B47" d="M116.453,100.188c0,6.074-4.97,11.044-11.044,11.044c-6.074,0-11.044-4.97-11.044-11.044
			c0-6.074,4.97-11.044,11.044-11.044C111.484,89.144,116.453,94.114,116.453,100.188z"/>
		<path fill="#B85B47" d="M24.874,82.571c0,6.074-4.97,11.044-11.044,11.044S2.787,88.645,2.787,82.571
			c0-6.074,4.97-11.044,11.044-11.044S24.874,76.497,24.874,82.571z"/>
		<path fill="#B85B47" d="M29.89,93.615c0,6.074-4.97,11.044-11.044,11.044S7.803,99.689,7.803,93.615
			c0-6.074,4.97-11.044,11.044-11.044S29.89,87.541,29.89,93.615z"/>
		<path fill="#B85B47" d="M45.258,101.824c0,6.074-4.97,11.044-11.044,11.044s-11.044-4.97-11.044-11.044
			c0-6.074,4.97-11.044,11.044-11.044S45.258,95.75,45.258,101.824z"/>
		<path fill="#9D5646" d="M18.847,71.528c0,6.074-4.97,11.044-11.044,11.044s-11.044-4.97-11.044-11.044
			c0-6.074,4.97-11.044,11.044-11.044S18.847,65.454,18.847,71.528z"/>
		<path fill="#EE6644" d="M47.31,119.767c0,6.074-4.97,11.044-11.044,11.044s-11.044-4.97-11.044-11.044s4.97-11.044,11.044-11.044
			S47.31,113.692,47.31,119.767z"/>
		<path fill="#EE6644" d="M60.922,126.004c0,6.074-4.97,11.044-11.044,11.044s-11.044-4.97-11.044-11.044s4.97-11.044,11.044-11.044
			S60.922,119.93,60.922,126.004z"/>
		<path fill="#EE6644" d="M74.22,132.099c0,6.074-4.97,11.044-11.044,11.044s-11.044-4.97-11.044-11.044
			c0-6.074,4.97-11.044,11.044-11.044S74.22,126.025,74.22,132.099z"/>
		<path fill="#9D5646" d="M49.255,71.431c0,6.074-4.97,11.044-11.044,11.044s-11.044-4.97-11.044-11.044s4.97-11.044,11.044-11.044
			S49.255,65.357,49.255,71.431z"/>
		
			<rect x="67.585" y="51.295" transform="matrix(0.9205 0.3907 -0.3907 0.9205 30.6083 -25.7671)" fill="#704F45" width="22.087" height="22.087"/>
		
			<rect x="13.31" y="52.899" transform="matrix(0.9205 0.3907 -0.3907 0.9205 26.9204 -4.4325)" fill="#704F45" width="22.087" height="22.087"/>
		
			<rect x="26.098" y="11.639" transform="matrix(0.9205 0.3907 -0.3907 0.9205 8.4055 -10.4524)" fill="#4D4944" width="7.585" height="7.585"/>
		
			<rect x="46.086" y="10.867" transform="matrix(0.9205 0.3907 -0.3907 0.9205 9.693 -18.3236)" fill="#4D4944" width="7.585" height="7.585"/>
		
			<rect x="15.054" y="26.018" transform="matrix(0.9205 0.3907 -0.3907 0.9205 13.146 -4.9942)" fill="#4D4944" width="7.585" height="7.585"/>
		
			<rect x="97.208" y="19.101" transform="matrix(0.9205 0.3907 -0.3907 0.9205 16.9741 -37.644)" fill="#4D4944" width="7.585" height="7.585"/>
		
			<rect x="29.32" y="24.813" transform="matrix(0.9205 0.3907 -0.3907 0.9205 13.8094 -10.664)" fill="#704F45" width="7.585" height="7.585"/>
		
			<rect x="53.59" y="42.88" transform="matrix(0.9205 0.3907 -0.3907 0.9205 22.7981 -18.7107)" fill="#704F45" width="7.585" height="7.585"/>
		
			<rect x="23.17" y="38.418" transform="matrix(-0.9205 0.3907 -0.3907 -0.9205 85.0346 81.6234)" fill="#704F45" width="22.087" height="22.087"/>
		
			<rect x="76.825" y="3.749" transform="matrix(-0.9205 0.3907 -0.3907 -0.9205 157.7721 -17.0158)" fill="#4D4944" width="7.585" height="7.585"/>
		
			<rect x="108.703" y="13.249" transform="matrix(-0.9205 0.3907 -0.3907 -0.9205 222.7066 -11.2276)" fill="#4D4944" width="7.585" height="7.585"/>
		
			<rect x="65.781" y="17.331" transform="matrix(-0.9205 0.3907 -0.3907 -0.9205 141.8696 13.3838)" fill="#4D4944" width="7.585" height="7.585"/>
		
			<rect x="71.852" y="22.017" transform="matrix(-0.9205 0.3907 -0.3907 -0.9205 155.3599 20.0111)" fill="#704F45" width="7.585" height="7.585"/>
		
			<rect x="75.332" y="42.211" transform="matrix(-0.9205 0.3907 -0.3907 -0.9205 169.9333 57.4329)" fill="#704F45" width="7.585" height="7.585"/>
		
			<rect x="106.382" y="45.564" transform="matrix(-0.9205 0.3907 -0.3907 -0.9205 247.6342 62.8329)" fill="#704F45" width="22.087" height="22.087"/>
		<path fill="#9D5646" d="M126.456,75.32c0,6.074-4.97,11.044-11.044,11.044c-6.074,0-11.044-4.97-11.044-11.044
			c0-6.074,4.97-11.044,11.044-11.044C121.486,64.276,126.456,69.246,126.456,75.32z"/>
		
			<rect x="118.849" y="54.212" transform="matrix(-0.9205 0.3907 -0.3907 -0.9205 274.9571 74.5698)" fill="#704F45" width="22.087" height="22.087"/>
		<path fill="#9D5646" d="M108.042,69.583c0,6.074-4.97,11.044-11.044,11.044s-11.044-4.97-11.044-11.044s4.97-11.044,11.044-11.044
			S108.042,63.509,108.042,69.583z"/>
		<path fill="#9D5646" d="M91.661,77.71c0,6.074-4.97,11.044-11.044,11.044c-6.074,0-11.044-4.97-11.044-11.044
			c0-6.074,4.97-11.044,11.044-11.044C86.691,66.667,91.661,71.636,91.661,77.71z"/>
		
			<rect x="58.819" y="56.911" transform="matrix(-0.9205 0.3907 -0.3907 -0.9205 160.7242 103.2092)" fill="#704F45" width="22.087" height="22.087"/>
		<path fill="#EE6644" d="M25.459,84.735c0,4.172-3.413,7.585-7.585,7.585s-7.585-3.413-7.585-7.585s3.413-7.585,7.585-7.585
			S25.459,80.563,25.459,84.735z"/>
		<path fill="#9D5646" d="M66.12,71.226c0,6.074-4.97,11.044-11.044,11.044S44.033,77.3,44.033,71.226
			c0-6.074,4.97-11.044,11.044-11.044S66.12,65.152,66.12,71.226z"/>
		
			<rect x="30.605" y="55.083" transform="matrix(0.9205 0.3907 -0.3907 0.9205 29.1485 -11.0166)" fill="#704F45" width="22.087" height="22.087"/>
		<path fill="#9D5646" d="M35.918,75.32c0,6.074-4.97,11.044-11.044,11.044S13.83,81.394,13.83,75.32
			c0-6.074,4.97-11.044,11.044-11.044S35.918,69.246,35.918,75.32z"/>
		<path fill="#9D5646" d="M29.597,57.476c0,2.086-1.707,3.792-3.792,3.792s-3.792-1.707-3.792-3.792
			c0-2.086,1.707-3.792,3.792-3.792S29.597,55.39,29.597,57.476z"/>
		<path fill="#B85B47" d="M104.583,106.422c0,4.172-3.413,7.585-7.585,7.585c-4.172,0-7.585-3.413-7.585-7.585
			s3.413-7.585,7.585-7.585C101.17,98.837,104.583,102.25,104.583,106.422z"/>
		<path fill="#B85B47" d="M83.103,90.699c0,4.172-3.413,7.585-7.585,7.585c-4.172,0-7.585-3.413-7.585-7.585
			c0-4.172,3.413-7.585,7.585-7.585C79.69,83.114,83.103,86.527,83.103,90.699z"/>
		<path fill="#EE6644" d="M122.997,95.921c0,4.172-3.413,7.585-7.585,7.585c-4.172,0-7.585-3.413-7.585-7.585
			s3.413-7.585,7.585-7.585C119.584,88.336,122.997,91.749,122.997,95.921z"/>
		<path fill="#EE6644" d="M84.201,103.505c0,4.172-3.413,7.585-7.585,7.585c-4.172,0-7.585-3.413-7.585-7.585
			c0-4.172,3.413-7.585,7.585-7.585C80.788,95.921,84.201,99.334,84.201,103.505z"/>
		<path fill="#EE6644" d="M71.378,91.614c0,2.086-1.707,3.792-3.792,3.792c-2.086,0-3.792-1.707-3.792-3.792
			c0-2.086,1.707-3.792,3.792-3.792C69.671,87.822,71.378,89.528,71.378,91.614z"/>
		<path fill="#EE6644" d="M98.89,93.615c0,2.086-1.707,3.792-3.792,3.792c-2.086,0-3.792-1.707-3.792-3.792s1.707-3.792,3.792-3.792
			C97.184,89.823,98.89,91.529,98.89,93.615z"/>
		<path fill="#EE6644" d="M126.359,84.735c0,2.086-1.707,3.792-3.792,3.792c-2.086,0-3.792-1.707-3.792-3.792
			s1.707-3.792,3.792-3.792C124.653,80.942,126.359,82.649,126.359,84.735z"/>
		<path fill="#EE6644" d="M47.311,91.614c0,2.086-1.707,3.792-3.792,3.792c-2.086,0-3.792-1.707-3.792-3.792
			c0-2.086,1.707-3.792,3.792-3.792C45.604,87.822,47.311,89.528,47.311,91.614z"/>
		<path fill="#EE6644" d="M36.905,99.199c0,2.086-1.707,3.792-3.792,3.792s-3.792-1.707-3.792-3.792
			c0-2.086,1.707-3.792,3.792-3.792S36.905,97.113,36.905,99.199z"/>
		<path fill="#B85B47" d="M38.979,76.682c0,2.086-1.707,3.792-3.792,3.792s-3.792-1.707-3.792-3.792
			c0-2.086,1.707-3.792,3.792-3.792S38.979,74.596,38.979,76.682z"/>
		<path fill="#B85B47" d="M18.876,71.431c0,2.086-1.707,3.792-3.792,3.792s-3.792-1.707-3.792-3.792
			c0-2.086,1.707-3.792,3.792-3.792S18.876,69.345,18.876,71.431z"/>
		<path fill="#B85B47" d="M97.398,72.889c0,2.086-1.707,3.792-3.792,3.792c-2.086,0-3.792-1.707-3.792-3.792
			c0-2.086,1.707-3.792,3.792-3.792C95.691,69.097,97.398,70.803,97.398,72.889z"/>
		<path fill="#B85B47" d="M113.786,63.943c0,2.086-1.707,3.792-3.792,3.792c-2.086,0-3.792-1.707-3.792-3.792
			s1.707-3.792,3.792-3.792C112.079,60.15,113.786,61.857,113.786,63.943z"/>
		<path fill="#B85B47" d="M51.103,112.867c0,2.086-1.707,3.792-3.792,3.792s-3.792-1.707-3.792-3.792
			c0-2.086,1.707-3.792,3.792-3.792S51.103,110.782,51.103,112.867z"/>
		<path fill="#EE6644" d="M87.889,106.422c0,2.086-1.707,3.792-3.792,3.792c-2.086,0-3.792-1.707-3.792-3.792
			c0-2.086,1.707-3.792,3.792-3.792C86.183,102.63,87.889,104.336,87.889,106.422z"/>
		
			<rect x="41.574" y="47.036" transform="matrix(0.9205 0.3907 -0.3907 0.9205 23.4667 -13.6853)" fill="#4D4944" width="7.585" height="7.585"/>
		
			<rect x="51.59" y="56.358" transform="matrix(-0.9205 0.3907 -0.3907 -0.9205 129.8643 93.8796)" fill="#4D4944" width="7.585" height="7.585"/>
		
			<rect x="102.639" y="44.341" transform="matrix(-0.9205 0.3907 -0.3907 -0.9205 223.2092 50.8535)" fill="#4D4944" width="7.585" height="7.585"/>
		
			<rect x="74.836" y="62.334" transform="matrix(-0.9205 0.3907 -0.3907 -0.9205 176.8449 96.2736)" fill="#4D4944" width="7.585" height="7.585"/>
	</g>
</g>
</svg>
