<?xml version="1.0" encoding="utf-8"?>
<!-- Generator: Adobe Illustrator 17.0.0, SVG Export Plug-In . SVG Version: 6.00 Build 0)  -->
<!DOCTYPE svg PUBLIC "-//W3C//DTD SVG 1.1//EN" "http://www.w3.org/Graphics/SVG/1.1/DTD/svg11.dtd">
<svg version="1.1" id="Laag_1" xmlns="http://www.w3.org/2000/svg" xmlns:xlink="http://www.w3.org/1999/xlink" x="0px" y="0px"
	 width="865px" height="565px" viewBox="0 0 865 565" enable-background="new 0 0 865 565" xml:space="preserve">
<g>
	<circle fill="#99FFFF" cx="42.722" cy="258.618" r="4.706"/>
	<circle fill="#99FFFF" cx="67.492" cy="221.788" r="19.531"/>
	<circle fill="#99FFFF" cx="149.116" cy="198.91" r="31.824"/>
	<circle fill="#F97B62" cx="194.468" cy="149.283" r="14.354"/>
	<circle fill="#99FFFF" cx="223.57" cy="208.514" r="12.354"/>
	<circle fill="#99FFFF" cx="87.996" cy="178.322" r="5.177"/>
</g>
<g>
	<rect x="727.659" y="244.207" fill="#F97B62" width="78.987" height="40.574"/>
	<circle fill="#F97B62" cx="727.659" cy="264.495" r="20.287"/>
	<circle fill="#F97B62" cx="806.646" cy="264.495" r="20.287"/>
	<circle fill="#F97B62" cx="774.868" cy="237.212" r="20.287"/>
	<circle fill="#F97B62" cx="743.396" cy="241.642" r="20.287"/>
	<circle fill="#F97B62" cx="758.251" cy="220.772" r="12.009"/>
	<circle fill="#F97B62" cx="801.617" cy="241.642" r="12.009"/>
</g>
<g>
	<rect x="46.404" y="85.384" fill="#F97B62" width="78.987" height="40.574"/>
	<circle fill="#F97B62" cx="46.404" cy="105.672" r="20.287"/>
	<circle fill="#F97B62" cx="125.391" cy="105.672" r="20.287"/>
	<circle fill="#F97B62" cx="93.613" cy="78.389" r="20.287"/>
	<circle fill="#F97B62" cx="62.141" cy="82.819" r="20.287"/>
	<circle fill="#F97B62" cx="76.996" cy="61.949" r="12.009"/>
	<circle fill="#F97B62" cx="120.361" cy="82.819" r="12.009"/>
</g>
<g>
	<rect x="59.383" y="286.945" fill="#F97B62" width="57.1" height="29.332"/>
	<circle fill="#F97B62" cx="59.383" cy="301.611" r="14.666"/>
	<circle fill="#F97B62" cx="116.483" cy="301.611" r="14.666"/>
	<circle fill="#F97B62" cx="93.51" cy="281.888" r="14.666"/>
	<circle fill="#F97B62" cx="70.759" cy="285.091" r="14.666"/>
	<circle fill="#F97B62" cx="81.497" cy="270.004" r="8.681"/>
	<circle fill="#F97B62" cx="112.847" cy="285.091" r="8.681"/>
</g>
<g>
	<rect x="687.356" y="86.192" fill="#F97B62" width="57.037" height="29.299"/>
	<circle fill="#F97B62" cx="687.356" cy="100.841" r="14.65"/>
	<circle fill="#F97B62" cx="744.393" cy="100.841" r="14.65"/>
	<circle fill="#F97B62" cx="721.445" cy="81.14" r="14.65"/>
	<circle fill="#F97B62" cx="698.72" cy="84.34" r="14.65"/>
	<circle fill="#F97B62" cx="709.446" cy="69.269" r="8.672"/>
	<circle fill="#F97B62" cx="740.761" cy="84.34" r="8.672"/>
</g>
<g>
	<rect x="741.959" y="69.788" fill="#F97B62" width="40.012" height="20.554"/>
	<circle fill="#F97B62" cx="741.959" cy="80.065" r="10.277"/>
	<circle fill="#F97B62" cx="781.971" cy="80.065" r="10.277"/>
	<circle fill="#F97B62" cx="765.873" cy="66.245" r="10.277"/>
	<circle fill="#F97B62" cx="749.931" cy="68.489" r="10.277"/>
	<circle fill="#F97B62" cx="757.455" cy="57.917" r="6.083"/>
	<circle fill="#F97B62" cx="779.423" cy="68.489" r="6.083"/>
</g>
<g>
	<path fill="#99FFFF" d="M810.9,468.644l-42.193-13.885l31.41-31.41c-17.351-17.351-45.466-17.352-62.819,0.001
		c-17.352,17.352-17.351,45.468,0,62.818c17.351,17.351,45.466,17.352,62.818,0C805.211,481.073,808.797,475.048,810.9,468.644z"/>
	<path fill="#F97B62" d="M810.9,468.644c5.061-15.412,1.474-33.038-10.783-45.295l-31.41,31.41L810.9,468.644z"/>
</g>
<g>
	<rect x="145.719" y="426.149" fill="#F97B62" width="13.623" height="101.701"/>
	<rect x="164.969" y="448.394" fill="#99FFFF" width="13.623" height="79.455"/>
	<rect x="184.22" y="459.216" fill="#99FFFF" width="13.623" height="68.634"/>
	<rect x="203.47" y="506.041" fill="#99FFFF" width="13.623" height="21.809"/>
	<rect x="126.469" y="440.614" fill="#99FFFF" width="13.623" height="87.236"/>
	<rect x="107.219" y="468.744" fill="#99FFFF" width="13.623" height="59.106"/>
	<rect x="87.969" y="484.232" fill="#99FFFF" width="13.623" height="43.618"/>
	<rect x="68.719" y="492.983" fill="#99FFFF" width="13.623" height="34.867"/>
</g>
<polyline fill="none" stroke="#F97B62" stroke-width="3.2481" stroke-linejoin="round" stroke-miterlimit="10" points="
	666.758,176.467 684.555,134.047 702.352,153.791 720.226,127.954 737.947,162.205 755.744,127.954 773.541,149.927 
	791.339,102.716 809.136,126.144 826.934,90.111 "/>
<g>
	<polygon fill="#99FFFF" points="720.219,197.889 729.784,201.33 725.627,209.375 718.297,206.738 	"/>
	<polygon fill="#99FFFF" points="751.606,140.686 742.042,137.244 746.199,129.2 753.528,131.837 	"/>
	<polygon fill="#99FFFF" points="707.311,153.594 703.87,163.158 695.825,159.001 698.462,151.672 	"/>
	<polygon fill="#99FFFF" points="764.514,184.981 767.956,175.416 776,179.573 773.363,186.903 	"/>
	<path fill="#99FFFF" d="M724.588,200.76c17.373,6.251,36.524-2.764,42.775-20.137c6.251-17.373-2.764-36.524-20.137-42.775
		c-17.373-6.251-36.524,2.764-42.775,20.137C698.199,175.358,707.215,194.509,724.588,200.76z M733.222,163.614
		c3.138-1.477,6.878-0.131,8.355,3.007c1.477,3.138,0.131,6.878-3.007,8.355c-3.137,1.477-6.878,0.131-8.355-3.007
		C728.739,168.832,730.085,165.091,733.222,163.614z"/>
	<polygon fill="#99FFFF" points="704.592,178.415 708.921,187.611 700.293,190.36 696.975,183.313 	"/>
	<polygon fill="#99FFFF" points="767.234,160.16 762.904,150.963 771.532,148.214 774.85,155.262 	"/>
	<polygon fill="#99FFFF" points="726.785,137.966 717.589,142.296 714.84,133.668 721.887,130.35 	"/>
	<polygon fill="#99FFFF" points="745.04,200.608 754.237,196.279 756.986,204.907 749.938,208.225 	"/>
</g>
<g>
	<polygon fill="#99FFFF" points="249.117,328.495 264.714,334.107 257.935,347.227 245.982,342.926 	"/>
	<polygon fill="#99FFFF" points="300.301,235.21 284.704,229.598 291.483,216.479 303.436,220.78 	"/>
	<polygon fill="#99FFFF" points="228.067,256.26 222.455,271.858 209.335,265.079 213.636,253.126 	"/>
	<polygon fill="#99FFFF" points="321.352,307.445 326.964,291.848 340.083,298.627 335.782,310.58 	"/>
	<path fill="#99FFFF" d="M256.24,333.178c28.331,10.195,59.562-4.508,69.757-32.839c10.195-28.331-4.508-59.562-32.839-69.757
		c-28.331-10.195-59.562,4.508-69.757,32.839C213.207,291.752,227.909,322.983,256.24,333.178z M270.322,272.601
		c5.117-2.409,11.217-0.213,13.626,4.903c2.409,5.117,0.213,11.217-4.903,13.626c-5.116,2.409-11.217,0.213-13.626-4.903
		C263.01,281.11,265.205,275.009,270.322,272.601z"/>
	<polygon fill="#99FFFF" points="223.632,296.737 230.692,311.735 216.622,316.218 211.211,304.725 	"/>
	<polygon fill="#99FFFF" points="325.787,266.968 318.726,251.971 332.797,247.487 338.207,258.981 	"/>
	<polygon fill="#99FFFF" points="259.825,230.775 244.827,237.835 240.344,223.765 251.837,218.355 	"/>
	<polygon fill="#99FFFF" points="289.594,332.93 304.591,325.87 309.075,339.94 297.581,345.351 	"/>
</g>
<g>
	<polygon fill="#85DADA" points="588.623,288.171 599.364,292.036 594.696,301.071 586.465,298.109 	"/>
	<polygon fill="#85DADA" points="623.871,223.931 613.13,220.066 617.799,211.031 626.03,213.993 	"/>
	<polygon fill="#85DADA" points="574.127,238.427 570.262,249.168 561.228,244.5 564.19,236.268 	"/>
	<polygon fill="#85DADA" points="638.367,273.675 642.232,262.934 651.267,267.602 648.305,275.834 	"/>
	<path fill="#85DADA" d="M593.529,291.396c19.51,7.02,41.017-3.104,48.038-22.614s-3.104-41.017-22.614-48.038
		c-19.51-7.021-41.017,3.104-48.038,22.614S574.019,284.375,593.529,291.396z M603.226,249.679c3.524-1.659,7.725-0.147,9.383,3.376
		c1.659,3.524,0.147,7.725-3.376,9.383c-3.523,1.659-7.724,0.147-9.383-3.376C598.19,255.539,599.702,251.338,603.226,249.679z"/>
	<polygon fill="#85DADA" points="571.073,266.301 575.935,276.629 566.245,279.717 562.519,271.802 	"/>
	<polygon fill="#85DADA" points="641.421,245.801 636.559,235.473 646.249,232.385 649.975,240.3 	"/>
	<polygon fill="#85DADA" points="595.997,220.877 585.669,225.739 582.581,216.049 590.496,212.323 	"/>
	<polygon fill="#85DADA" points="616.497,291.225 626.825,286.363 629.913,296.053 621.998,299.779 	"/>
</g>
<g>
	<polygon fill="#5C8F8F" points="319.987,166.53 331.536,170.686 326.517,180.401 317.666,177.216 	"/>
	<polygon fill="#5C8F8F" points="357.888,97.456 346.338,93.3 351.358,83.585 360.209,86.77 	"/>
	<polygon fill="#5C8F8F" points="304.4,113.043 300.244,124.592 290.53,119.572 293.715,110.721 	"/>
	<polygon fill="#5C8F8F" points="373.475,150.943 377.631,139.394 387.345,144.414 384.16,153.264 	"/>
	<path fill="#5C8F8F" d="M325.262,169.998c20.978,7.549,44.104-3.338,51.653-24.316s-3.338-44.104-24.316-51.653
		c-20.978-7.549-44.104,3.338-51.653,24.316S304.283,162.449,325.262,169.998z M335.689,125.142
		c3.789-1.784,8.306-0.158,10.089,3.631c1.784,3.789,0.158,8.306-3.631,10.09c-3.788,1.784-8.306,0.158-10.089-3.631
		C330.274,131.443,331.9,126.926,335.689,125.142z"/>
	<polygon fill="#5C8F8F" points="301.116,143.015 306.344,154.12 295.925,157.44 291.919,148.929 	"/>
	<polygon fill="#5C8F8F" points="376.759,120.971 371.531,109.866 381.95,106.546 385.956,115.057 	"/>
	<polygon fill="#5C8F8F" points="327.916,94.171 316.81,99.399 313.491,88.981 322.001,84.974 	"/>
	<polygon fill="#5C8F8F" points="349.959,169.814 361.064,164.587 364.384,175.005 355.874,179.012 	"/>
</g>
<g>
	<polygon fill="#F97B62" points="604.375,152.656 613.863,148.566 621.145,168.507 613.874,171.642 	"/>
	<polygon fill="#F97B62" points="597.486,110.575 587.998,114.665 580.716,94.723 587.987,91.589 	"/>
	<polygon fill="#F97B62" points="579.89,135.06 583.98,144.548 564.039,151.83 560.904,144.559 	"/>
	<polygon fill="#F97B62" points="621.971,128.17 617.881,118.683 637.823,111.401 640.957,118.672 	"/>
	<polygon fill="#F97B62" points="588.488,148.929 598.089,152.746 589.138,171.996 581.78,169.071 	"/>
	<polygon fill="#F97B62" points="613.373,114.301 603.772,110.485 612.723,91.235 620.081,94.16 	"/>
	<polygon fill="#F97B62" points="583.617,119.173 579.8,128.774 560.55,119.822 563.475,112.465 	"/>
	<polygon fill="#F97B62" points="618.244,144.057 622.061,134.456 641.311,143.408 638.386,150.766 	"/>
	<path fill="#F97B62" d="M611.514,156.165c13.549-5.841,19.798-21.56,13.957-35.109c-5.841-13.549-21.56-19.798-35.109-13.957
		c-13.549,5.841-19.798,21.56-13.957,35.109C582.245,155.757,597.964,162.006,611.514,156.165z M593.554,128.703
		c1.617-4.069,6.227-6.056,10.295-4.438c4.069,1.617,6.056,6.227,4.438,10.295c-1.617,4.068-6.227,6.055-10.295,4.438
		C593.923,137.381,591.936,132.772,593.554,128.703z"/>
</g>
<g>
	<polygon fill="#F97B62" points="174.989,323.43 183.825,319.621 190.606,338.192 183.835,341.111 	"/>
	<polygon fill="#F97B62" points="168.573,284.241 159.737,288.05 152.955,269.479 159.727,266.56 	"/>
	<polygon fill="#F97B62" points="152.186,307.044 155.995,315.88 137.424,322.661 134.505,315.89 	"/>
	<polygon fill="#F97B62" points="191.375,300.628 187.566,291.792 206.137,285.01 209.056,291.782 	"/>
	<polygon fill="#F97B62" points="160.194,319.96 169.135,323.514 160.798,341.441 153.946,338.717 	"/>
	<polygon fill="#F97B62" points="183.368,287.712 174.427,284.157 182.763,266.23 189.615,268.954 	"/>
	<polygon fill="#F97B62" points="155.657,292.249 152.102,301.19 134.175,292.854 136.899,286.001 	"/>
	<polygon fill="#F97B62" points="187.905,315.423 191.459,306.482 209.386,314.818 206.662,321.67 	"/>
	<path fill="#F97B62" d="M181.636,326.698c12.618-5.439,18.438-20.078,12.998-32.696c-5.439-12.618-20.078-18.437-32.696-12.998
		c-12.618,5.439-18.438,20.078-12.998,32.696C154.38,326.318,169.018,332.138,181.636,326.698z M164.911,301.124
		c1.506-3.789,5.799-5.639,9.588-4.133c3.789,1.506,5.639,5.799,4.133,9.588c-1.506,3.789-5.799,5.639-9.588,4.133
		C165.255,309.206,163.405,304.913,164.911,301.124z"/>
</g>
<g>
	<polygon fill="#F97B62" points="331.124,404.884 339.96,401.075 346.741,419.646 339.97,422.565 	"/>
	<polygon fill="#F97B62" points="324.708,365.695 315.872,369.504 309.09,350.933 315.862,348.014 	"/>
	<polygon fill="#F97B62" points="308.321,388.497 312.13,397.333 293.559,404.115 290.64,397.343 	"/>
	<polygon fill="#F97B62" points="347.51,382.081 343.701,373.245 362.272,366.464 365.191,373.235 	"/>
	<polygon fill="#F97B62" points="316.329,401.413 325.27,404.968 316.934,422.895 310.081,420.171 	"/>
	<polygon fill="#F97B62" points="339.503,369.165 330.562,365.611 338.898,347.684 345.75,350.408 	"/>
	<polygon fill="#F97B62" points="311.792,373.702 308.237,382.643 290.31,374.307 293.034,367.455 	"/>
	<polygon fill="#F97B62" points="344.04,396.876 347.594,387.935 365.521,396.271 362.797,403.124 	"/>
	<path fill="#F97B62" d="M337.771,408.152c12.618-5.439,18.438-20.078,12.998-32.696c-5.439-12.618-20.078-18.438-32.696-12.998
		c-12.618,5.439-18.438,20.078-12.998,32.696C310.515,407.772,325.153,413.591,337.771,408.152z M321.046,382.578
		c1.506-3.789,5.799-5.639,9.588-4.133c3.789,1.506,5.639,5.799,4.133,9.588c-1.506,3.789-5.799,5.639-9.588,4.133
		C321.39,390.659,319.54,386.366,321.046,382.578z"/>
</g>
<g>
	<polygon fill="#99FFFF" points="554.515,393.668 568.869,399.413 562.118,411.419 551.117,407.016 	"/>
	<polygon fill="#99FFFF" points="605.301,308.398 590.946,302.652 597.698,290.646 608.698,295.049 	"/>
	<polygon fill="#99FFFF" points="537.273,325.64 531.527,339.994 519.521,333.243 523.924,322.242 	"/>
	<polygon fill="#99FFFF" points="622.543,376.425 628.288,362.071 640.294,368.823 635.891,379.823 	"/>
	<path fill="#99FFFF" d="M561.001,398.267c26.073,10.436,55.67-2.24,66.107-28.313c10.436-26.073-2.24-55.67-28.313-66.107
		c-26.073-10.437-55.67,2.24-66.107,28.313C522.252,358.234,534.928,387.831,561.001,398.267z M576.123,342.264
		c4.849-2.077,10.463,0.171,12.54,5.019c2.077,4.849-0.171,10.463-5.019,12.54c-4.849,2.077-10.463-0.171-12.54-5.019
		C569.027,349.955,571.274,344.34,576.123,342.264z"/>
	<polygon fill="#99FFFF" points="531.805,363.225 537.892,377.437 524.629,381.153 519.964,370.261 	"/>
	<polygon fill="#99FFFF" points="628.011,338.841 621.923,324.628 635.187,320.912 639.852,331.804 	"/>
	<polygon fill="#99FFFF" points="567.716,302.93 553.503,309.017 549.787,295.754 560.679,291.089 	"/>
	<polygon fill="#99FFFF" points="592.1,399.135 606.312,393.048 610.028,406.312 599.136,410.977 	"/>
	<g>
		<path fill="#99FFFF" d="M576.658,365.275l-7.069,30.98c7.316,1.679,14.742,1.504,21.711-0.269l-7.804-30.791
			C581.3,365.753,578.965,365.804,576.658,365.275z"/>
		<path fill="#99FFFF" d="M567.538,358.806l-26.895,16.902c3.822,6.092,9.075,11.343,15.53,15.176l16.26-27.301
			C570.399,362.375,568.743,360.727,567.538,358.806z"/>
		<path fill="#99FFFF" d="M583.153,336.79l7.068-30.98c-7.32-1.679-14.75-1.502-21.723,0.274l7.804,30.791
			C578.503,336.313,580.843,336.261,583.153,336.79z"/>
		<path fill="#99FFFF" d="M592.286,343.273l26.895-16.902c-3.822-6.097-9.077-11.351-15.534-15.187l-16.26,27.301
			C589.424,339.696,591.081,341.348,592.286,343.273z"/>
		<path fill="#99FFFF" d="M565.66,347.809l-30.979-7.068c-1.674,7.315-1.496,14.739,0.28,21.707l30.791-7.804
			C565.19,352.449,565.136,350.115,565.66,347.809z"/>
		<path fill="#99FFFF" d="M567.344,343.581c1.206-2.038,2.853-3.698,4.772-4.906l-16.902-26.894
			c-6.091,3.825-11.341,9.082-15.171,15.54L567.344,343.581z"/>
		<path fill="#99FFFF" d="M594.144,354.308l30.98,7.069c1.684-7.317,1.511-14.745-0.259-21.716l-30.79,7.804
			C594.631,349.663,594.677,352.001,594.144,354.308z"/>
		<path fill="#99FFFF" d="M587.663,363.414l16.902,26.895c6.093-3.818,11.344-9.068,15.18-15.518l-27.3-16.259
			C591.233,360.561,589.584,362.213,587.663,363.414z"/>
	</g>
</g>
<g>
	<polygon fill="#99FFFF" points="456.661,211.594 471.016,217.34 464.264,229.346 453.264,224.943 	"/>
	<polygon fill="#99FFFF" points="507.447,126.324 493.093,120.579 499.844,108.573 510.844,112.976 	"/>
	<polygon fill="#99FFFF" points="439.419,143.566 433.674,157.921 421.668,151.169 426.071,140.169 	"/>
	<polygon fill="#99FFFF" points="524.689,194.352 530.435,179.998 542.441,186.749 538.038,197.749 	"/>
	<path fill="#99FFFF" d="M463.147,216.194c26.073,10.436,55.67-2.239,66.107-28.313c10.436-26.073-2.24-55.67-28.313-66.107
		c-26.073-10.437-55.67,2.239-66.107,28.313S437.074,205.757,463.147,216.194z M478.269,160.19
		c4.849-2.077,10.463,0.171,12.54,5.019c2.077,4.849-0.171,10.463-5.019,12.54c-4.849,2.077-10.463-0.171-12.54-5.019
		C471.173,167.881,473.42,162.267,478.269,160.19z"/>
	<polygon fill="#99FFFF" points="433.951,181.151 440.039,195.364 426.775,199.08 422.11,188.188 	"/>
	<polygon fill="#99FFFF" points="530.157,156.767 524.07,142.555 537.333,138.839 541.998,149.731 	"/>
	<polygon fill="#99FFFF" points="469.862,120.856 455.649,126.944 451.934,113.68 462.826,109.015 	"/>
	<polygon fill="#99FFFF" points="494.246,217.062 508.459,210.975 512.174,224.238 501.283,228.903 	"/>
	<g>
		<path fill="#99FFFF" d="M478.805,183.201l-7.069,30.98c7.316,1.679,14.742,1.503,21.711-0.269l-7.804-30.791
			C483.447,183.68,481.111,183.73,478.805,183.201z"/>
		<path fill="#99FFFF" d="M469.685,176.733l-26.895,16.902c3.822,6.092,9.075,11.343,15.529,15.176l16.26-27.301
			C472.545,180.301,470.889,178.653,469.685,176.733z"/>
		<path fill="#99FFFF" d="M485.3,154.716l7.068-30.98c-7.32-1.679-14.75-1.502-21.723,0.274l7.804,30.791
			C480.65,154.239,482.989,154.187,485.3,154.716z"/>
		<path fill="#99FFFF" d="M494.432,161.199l26.895-16.902c-3.822-6.097-9.077-11.351-15.534-15.187l-16.26,27.301
			C491.57,157.622,493.228,159.274,494.432,161.199z"/>
		<path fill="#99FFFF" d="M467.806,165.736l-30.979-7.068c-1.674,7.315-1.496,14.739,0.28,21.707l30.791-7.804
			C467.336,170.375,467.282,168.041,467.806,165.736z"/>
		<path fill="#99FFFF" d="M469.49,161.507c1.206-2.038,2.853-3.698,4.772-4.906l-16.902-26.894
			c-6.091,3.825-11.341,9.082-15.171,15.54L469.49,161.507z"/>
		<path fill="#99FFFF" d="M496.29,172.235l30.98,7.069c1.684-7.317,1.511-14.745-0.259-21.716l-30.79,7.804
			C496.778,167.59,496.823,169.927,496.29,172.235z"/>
		<path fill="#99FFFF" d="M489.809,181.34l16.902,26.895c6.093-3.818,11.344-9.068,15.18-15.518l-27.3-16.259
			C493.38,178.487,491.73,180.139,489.809,181.34z"/>
	</g>
</g>
<g>
	
		<rect x="101.742" y="353.293" transform="matrix(0.9631 0.2691 -0.2691 0.9631 108.8107 -29.9582)" fill="#99FFFF" width="123.841" height="57.117"/>
	<circle fill="#85DADA" cx="99.929" cy="379.85" r="43.784"/>
	<circle fill="#85DADA" cx="219.2" cy="413.181" r="43.784"/>
	
		<rect x="92.761" y="356.778" transform="matrix(-0.2691 0.9631 -0.9631 -0.2691 492.658 385.8413)" fill="#F97B62" width="14.337" height="46.145"/>
	
		<rect x="92.761" y="356.778" transform="matrix(-0.9631 -0.2691 0.2691 -0.9631 93.9379 772.5789)" fill="#F97B62" width="14.337" height="46.145"/>
	<circle fill="#F97B62" cx="231.231" cy="406.405" r="7.952"/>
	<circle fill="#F97B62" cx="209.614" cy="411.208" r="7.952"/>
	
		<rect x="147.995" y="388.306" transform="matrix(0.9631 0.2691 -0.2691 0.9631 110.709 -27.0031)" fill="#F97B62" width="11.678" height="3.893"/>
	
		<rect x="161.873" y="392.184" transform="matrix(0.9631 0.2691 -0.2691 0.9631 112.2649 -30.5951)" fill="#F97B62" width="11.678" height="3.893"/>
</g>
<g>
	<circle fill="#85DADA" cx="653.626" cy="468.085" r="28.262"/>
	<circle fill="#5C8F8F" cx="682.986" cy="497.445" r="28.262"/>
	
		<rect x="640.044" y="462.005" transform="matrix(0.7071 -0.7071 0.7071 0.7071 -145.6243 613.9626)" fill="#5C8F8F" width="56.524" height="41.521"/>
	<polyline fill="none" stroke="#99FFFF" stroke-width="2" stroke-miterlimit="10" points="633.642,448.101 653.626,468.085 
		633.642,488.07 	"/>
	
		<rect x="649.877" y="458.43" transform="matrix(0.7071 -0.7071 0.7071 0.7071 -139.5436 599.2827)" fill="#F97B62" width="7.499" height="19.31"/>
</g>
<g>
	<g>
		<path fill="#70B4B4" d="M582.02,535.262c-0.075,2.749-2.386,4.952-5.136,4.896l-292.389-5.985
			c-2.749-0.056-4.941-2.352-4.869-5.101l2.074-79.862c0.071-2.749,2.379-5.049,5.129-5.112l292.875-6.632
			c2.749-0.062,4.937,2.136,4.862,4.885L582.02,535.262z"/>
	</g>
	<g>
		<rect x="287.526" y="450.037" fill="#85DADA" width="14.642" height="13.945"/>
		<rect x="304.638" y="450.037" fill="#85DADA" width="14.642" height="13.945"/>
		<rect x="321.749" y="450.037" fill="#85DADA" width="14.642" height="13.945"/>
		<rect x="338.861" y="450.037" fill="#85DADA" width="14.642" height="13.945"/>
		<rect x="355.972" y="450.037" fill="#85DADA" width="14.642" height="13.945"/>
		<rect x="373.084" y="450.037" fill="#85DADA" width="14.642" height="13.945"/>
		<rect x="390.196" y="450.037" fill="#85DADA" width="14.642" height="13.945"/>
		<rect x="407.307" y="450.037" fill="#85DADA" width="14.642" height="13.945"/>
		<rect x="424.419" y="450.037" fill="#85DADA" width="14.642" height="13.945"/>
	</g>
	<g>
		<rect x="457.044" y="450.037" fill="#85DADA" width="14.642" height="13.945"/>
		<rect x="474.156" y="450.037" fill="#85DADA" width="14.642" height="13.945"/>
		<rect x="491.268" y="450.037" fill="#85DADA" width="14.642" height="13.945"/>
		<rect x="525.491" y="450.037" fill="#85DADA" width="14.642" height="13.945"/>
		<rect x="542.603" y="450.037" fill="#85DADA" width="14.642" height="13.945"/>
		<rect x="559.714" y="450.037" fill="#85DADA" width="14.642" height="13.945"/>
	</g>
	<g>
		<rect x="457.044" y="469.328" fill="#85DADA" width="14.642" height="13.945"/>
		<rect x="474.156" y="469.328" fill="#85DADA" width="14.642" height="13.945"/>
		<rect x="491.268" y="469.328" fill="#85DADA" width="14.642" height="13.945"/>
		<rect x="525.491" y="469.328" fill="#85DADA" width="14.642" height="13.945"/>
		<rect x="542.603" y="469.328" fill="#85DADA" width="14.642" height="13.945"/>
		<rect x="559.714" y="469.328" fill="#85DADA" width="14.642" height="13.945"/>
	</g>
	<g>
		<rect x="474.156" y="488.386" fill="#85DADA" width="14.642" height="13.945"/>
		<rect x="525.491" y="488.386" fill="#85DADA" width="14.642" height="13.945"/>
		<rect x="542.603" y="488.386" fill="#85DADA" width="14.642" height="13.945"/>
		<rect x="559.714" y="488.386" fill="#85DADA" width="14.642" height="13.945"/>
	</g>
	<g>
		<rect x="457.044" y="507.909" fill="#85DADA" width="14.642" height="13.945"/>
		<rect x="474.156" y="507.909" fill="#85DADA" width="14.642" height="13.945"/>
		<rect x="491.268" y="507.909" fill="#85DADA" width="14.642" height="13.945"/>
		<rect x="525.491" y="507.909" fill="#85DADA" width="14.642" height="13.945"/>
		<rect x="542.602" y="507.909" fill="#85DADA" width="31.754" height="13.945"/>
	</g>
	<g>
		<rect x="287.526" y="469.328" fill="#85DADA" width="14.642" height="13.945"/>
		<rect x="304.638" y="469.328" fill="#85DADA" width="14.642" height="13.945"/>
		<rect x="321.749" y="469.328" fill="#85DADA" width="14.642" height="13.945"/>
		<rect x="338.861" y="469.328" fill="#85DADA" width="14.642" height="13.945"/>
		<rect x="355.972" y="469.328" fill="#85DADA" width="14.642" height="13.945"/>
		<rect x="373.084" y="469.328" fill="#85DADA" width="14.642" height="13.945"/>
		<rect x="390.196" y="469.328" fill="#85DADA" width="14.642" height="13.945"/>
		<rect x="407.307" y="469.328" fill="#85DADA" width="14.642" height="13.945"/>
		<rect x="424.419" y="469.328" fill="#85DADA" width="14.642" height="13.945"/>
	</g>
	<g>
		<rect x="287.526" y="488.386" fill="#85DADA" width="14.642" height="13.945"/>
		<rect x="304.638" y="488.386" fill="#85DADA" width="14.642" height="13.945"/>
		<rect x="321.749" y="488.386" fill="#85DADA" width="14.642" height="13.945"/>
		<rect x="338.861" y="488.386" fill="#85DADA" width="14.642" height="13.945"/>
		<rect x="355.972" y="488.386" fill="#85DADA" width="14.642" height="13.945"/>
		<rect x="373.084" y="488.386" fill="#85DADA" width="14.642" height="13.945"/>
		<rect x="390.196" y="488.386" fill="#85DADA" width="14.642" height="13.945"/>
		<rect x="407.307" y="488.386" fill="#85DADA" width="14.642" height="13.945"/>
		<rect x="424.419" y="488.386" fill="#85DADA" width="14.642" height="13.945"/>
	</g>
	<g>
		<rect x="287.526" y="507.909" fill="#85DADA" width="14.642" height="13.945"/>
		<rect x="304.638" y="507.909" fill="#85DADA" width="14.642" height="13.945"/>
		<rect x="321.749" y="507.909" fill="#85DADA" width="83.089" height="13.945"/>
		<rect x="407.307" y="507.909" fill="#85DADA" width="14.642" height="13.945"/>
		<rect x="424.419" y="507.909" fill="#85DADA" width="14.642" height="13.945"/>
	</g>
</g>
<g>
	<g>
		<path fill="#F97B62" d="M728.483,381.63c-0.005-5.5-4.484-10.473-9.954-11.052l-71.055-7.517
			c-5.469-0.579-11.419,3.199-13.221,8.396l-8.127,23.433c-1.802,5.196,1.207,9.827,6.688,10.291l85.734,7.251
			c5.48,0.464,9.96-3.657,9.955-9.157L728.483,381.63z"/>
	</g>
	
		<text transform="matrix(1 0 0 1 638.6666 394.9428)" fill="#85DADA" font-family="'OpenSans'" font-size="18.8735" letter-spacing="2">HTTP://</text>
</g>
<g>
	<g>
		<path fill="#70B4B4" d="M741.056,264.842c-1.465-5.301-7.122-10.253-12.571-11.005l-88.308-12.18
			c-5.448-0.751-9.906,3.134-9.906,8.634v68.414c0,5.5,4.392,10.98,9.76,12.178l117.362,26.185c5.368,1.198,8.561-2.16,7.096-7.461
			L741.056,264.842z"/>
	</g>
	
		<text transform="matrix(1 0 0 1 644.2056 305.0922)" fill="#5C8F8F" font-family="'OpenSans-Bold'" font-size="38.2443" letter-spacing="4">PHP</text>
</g>
<g>
	<g>
		<path fill="#5C8F8F" d="M161.823,98.065c-3.499-4.243-10.86-7.842-16.358-7.998L83.65,88.317
			c-5.498-0.156-10.218,4.212-10.489,9.705l-2.101,42.537c-0.271,5.493,4.005,9.856,9.502,9.694l111.362-3.272
			c5.498-0.162,7.133-3.765,3.633-8.009L161.823,98.065z"/>
	</g>
	
		<text transform="matrix(1 0 0 1 85.2086 127.6948)" fill="#85DADA" font-family="'OpenSans-Bold'" font-size="27.7082" letter-spacing="3">CSS3</text>
</g>
<g>
	<g>
		<path fill="#476969" d="M496.529,55.072c0.785-5.444-3.057-9.538-8.54-9.098l-107.56,8.628c-5.482,0.44-8.157,4.919-5.943,9.954
			l12.343,28.071c2.214,5.035,8.525,9.154,14.025,9.154h78.935c5.5,0,10.643-4.454,11.428-9.897L496.529,55.072z"/>
	</g>
	<text transform="matrix(1 0 0 1 388.4372 81.6035)" fill="#70B4B4" font-family="'OpenSans-Bold'" font-size="20.0621">Angular.js</text>
</g>
<g>
	<g>
		<path fill="#70B4B4" d="M174.978,245.72c-1.819-5.191-7.804-9.29-13.301-9.109l-62.551,2.058
			c-5.497,0.181-8.904,4.695-7.571,10.031l7.413,29.68c1.333,5.336,6.856,8.928,12.274,7.981l63.628-11.115
			c5.418-0.946,8.363-5.968,6.544-11.158L174.978,245.72z"/>
	</g>
	<text transform="matrix(1 0 0 1 100.9127 267.0644)" fill="#5C8F8F" font-family="'OpenSans-Bold'" font-size="20.8958">Raddle</text>
</g>
<g>
	<g>
		<path fill="#334444" d="M734.925,177.288c2.54-4.879,0.119-8.994-5.379-9.146l-105.874-2.918c-5.498-0.152-8.634,4.014-6.97,9.256
			l10.702,33.709c1.664,5.242,7.492,10.084,12.95,10.759l58.55,7.243c5.458,0.675,12.002-2.764,14.542-7.642L734.925,177.288z"/>
	</g>
	<text transform="matrix(1 0 0 1 640.5983 203.9794)" fill="#70B4B4" font-family="'OpenSans-Bold'" font-size="29.0176">D3.js</text>
</g>
<g>
	<g>
		<path fill="#99FFFF" d="M664.389,57.162c-0.167-5.497-4.755-10.662-10.194-11.478L528.564,26.856
			c-5.439-0.815-10.201,3.007-10.581,8.494l-3.228,46.544c-0.38,5.487,3.619,11.268,8.887,12.846l133.62,40.036
			c5.269,1.579,9.442-1.628,9.275-7.125L664.389,57.162z"/>
	</g>
	
		<text transform="matrix(1 0 0 1 535.5016 82.6176)" fill="#70B4B4" font-family="'OpenSans-Bold'" font-size="35.5643" letter-spacing="4">HTML</text>
</g>
<g>
	<g>
		<path fill="#85DADA" d="M246.744,171.229c-2.822-4.721-9.632-8.583-15.132-8.583H173c-5.5,0-11.789,4.129-13.976,9.176
			l-18.941,43.711c-2.187,5.047,0.492,8.643,5.954,7.993l113.27-13.494c5.461-0.651,7.62-5.045,4.798-9.766L246.744,171.229z"/>
	</g>
	<text transform="matrix(1 0 0 1 163.3386 199.8827)" fill="#99FFFF" font-family="'OpenSans-Bold'" font-size="24.7574">Jquery</text>
</g>
<g>
	<g>
		<path fill="#70B4B4" d="M354.862,62.107c0.954-5.417-2.763-9.996-8.26-10.176l-175.844-5.765c-5.497-0.18-8.801,4.011-7.342,9.314
			l11.147,40.51c1.459,5.303,7.146,9.39,12.637,9.082l151.706-8.511c5.491-0.308,10.765-4.992,11.719-10.409L354.862,62.107z"/>
	</g>
	<text transform="matrix(1 0 0 1 178.1442 84.186)" fill="#85DADA" font-family="'OpenSans-Bold'" font-size="30.1365">Wordpress</text>
</g>
<g>
	<polygon fill="#5C8F8F" points="484.542,369.559 441.623,369.559 398.703,369.559 388.867,419.93 441.623,419.93 494.378,419.93 	
		"/>
	<path fill="#85DADA" d="M497.06,415.459c-6.557,0-55.438,0-55.438,0s-48.881,0-55.438,0c-6.557,0-7.749,2.682-7.749,8.942h63.187
		h63.187C504.81,418.141,503.618,415.459,497.06,415.459z"/>
	<path fill="#476969" d="M613.003,138.27c0-6.557-5.365-11.922-11.922-11.922H280.973c-6.557,0-11.922,5.365-11.922,11.922v205.358
		h343.952V138.27z"/>
	<rect x="283.953" y="140.059" fill="#70B4B4" width="315.339" height="189.263"/>
	<path fill="#85DADA" d="M269.05,343.628v20.864c0,6.557,5.365,11.922,11.922,11.922h320.108c6.557,0,11.922-5.365,11.922-11.922
		v-20.864H269.05z"/>
	<g>
		<rect x="283.953" y="140.059" fill="#5C8F8F" width="315.339" height="189.263"/>
		<g>
			
				<line fill="none" stroke="#F97B62" stroke-width="3" stroke-miterlimit="10" x1="307.816" y1="161.112" x2="429.553" y2="161.112"/>
			
				<line fill="none" stroke="#F97B62" stroke-width="3" stroke-miterlimit="10" x1="307.816" y1="308.269" x2="429.553" y2="308.269"/>
			
				<line fill="none" stroke="#70B4B4" stroke-width="3" stroke-miterlimit="10" x1="329.651" y1="169.287" x2="451.388" y2="169.287"/>
			
				<line fill="none" stroke="#70B4B4" stroke-width="3" stroke-miterlimit="10" x1="329.651" y1="201.989" x2="355.067" y2="201.989"/>
			
				<line fill="none" stroke="#70B4B4" stroke-width="3" stroke-miterlimit="10" x1="329.651" y1="210.164" x2="390.519" y2="210.164"/>
			
				<line fill="none" stroke="#70B4B4" stroke-width="3" stroke-miterlimit="10" x1="329.651" y1="251.041" x2="390.519" y2="251.041"/>
			
				<line fill="none" stroke="#85DADA" stroke-width="3" stroke-miterlimit="10" x1="351.486" y1="267.392" x2="412.354" y2="267.392"/>
			
				<line fill="none" stroke="#85DADA" stroke-width="3" stroke-miterlimit="10" x1="351.486" y1="291.918" x2="412.354" y2="291.918"/>
			
				<line fill="none" stroke="#99FFFF" stroke-width="3" stroke-miterlimit="10" x1="373.32" y1="275.567" x2="434.189" y2="275.567"/>
			
				<line fill="none" stroke="#99FFFF" stroke-width="3" stroke-miterlimit="10" x1="373.32" y1="283.743" x2="434.189" y2="283.743"/>
			
				<line fill="none" stroke="#70B4B4" stroke-width="3" stroke-miterlimit="10" x1="329.651" y1="259.216" x2="408.224" y2="259.216"/>
			
				<line fill="none" stroke="#70B4B4" stroke-width="3" stroke-miterlimit="10" x1="329.651" y1="300.093" x2="408.224" y2="300.093"/>
			
				<line fill="none" stroke="#85DADA" stroke-width="3" stroke-miterlimit="10" x1="351.486" y1="177.463" x2="482.054" y2="177.463"/>
			
				<line fill="none" stroke="#85DADA" stroke-width="3" stroke-miterlimit="10" x1="351.486" y1="185.638" x2="511.586" y2="185.638"/>
			
				<line fill="none" stroke="#85DADA" stroke-width="3" stroke-miterlimit="10" x1="351.486" y1="193.813" x2="497.148" y2="193.813"/>
			
				<line fill="none" stroke="#85DADA" stroke-width="3" stroke-miterlimit="10" x1="351.486" y1="218.34" x2="469.913" y2="218.34"/>
			<g>
				
					<line fill="none" stroke="#85DADA" stroke-width="3" stroke-miterlimit="10" x1="351.486" y1="226.515" x2="526.024" y2="226.515"/>
				
					<line fill="none" stroke="#85DADA" stroke-width="3" stroke-miterlimit="10" x1="538.849" y1="226.515" x2="572.947" y2="226.515"/>
			</g>
			
				<line fill="none" stroke="#85DADA" stroke-width="3" stroke-miterlimit="10" x1="351.486" y1="234.69" x2="566.056" y2="234.69"/>
			<g>
				
					<line fill="none" stroke="#85DADA" stroke-width="3" stroke-miterlimit="10" x1="351.486" y1="242.866" x2="454.491" y2="242.866"/>
				
					<line fill="none" stroke="#85DADA" stroke-width="3" stroke-miterlimit="10" x1="460.083" y1="242.866" x2="563.089" y2="242.866"/>
			</g>
		</g>
	</g>
</g>
<g>
	<polygon fill="#85DADA" points="786.088,381.612 797.843,360.447 814.803,388.896 822.789,384.135 774.161,302.564 	"/>
	<polygon fill="#70B4B4" points="774.161,302.564 822.789,384.135 830.776,379.374 813.816,350.924 838.031,350.646 	"/>
</g>
</svg>
