<?xml version="1.0" encoding="utf-8"?>
<!-- Generator: Adobe Illustrator 17.0.0, SVG Export Plug-In . SVG Version: 6.00 Build 0)  -->
<!DOCTYPE svg PUBLIC "-//W3C//DTD SVG 1.1//EN" "http://www.w3.org/Graphics/SVG/1.1/DTD/svg11.dtd">
<svg version="1.1" id="Laag_1" xmlns="http://www.w3.org/2000/svg" xmlns:xlink="http://www.w3.org/1999/xlink" x="0px" y="0px"
	 width="139.726px" height="139.726px" viewBox="0 0 139.726 139.726" enable-background="new 0 0 139.726 139.726"
	 xml:space="preserve">
<rect x="-4749.157" y="558.059" fill="#1D0B00" width="1279.436" height="395.98"/>
<g>
	<polygon fill="#334444" points="20.462,119.263 0,69.863 20.462,20.462 69.863,0 119.263,20.462 139.726,69.863 119.263,119.263 
		69.863,139.726 	"/>
	<polygon fill="#4D4944" points="20.462,119.263 0,69.863 20.462,20.462 62.242,3.157 91.832,43.236 133.485,54.795 139.726,69.863 
		119.263,119.263 69.863,139.726 	"/>
	<polygon fill="#704F45" points="20.462,119.263 0,69.863 20.462,20.462 59.2,27.902 85.258,57.245 117.328,81.419 119.263,119.263 
		69.863,139.726 	"/>
	<path fill="#9D5646" d="M20.462,119.263L0,69.863l16.866-40.718c0,0,13.191,14.403,21.75,22.963S76.819,70.88,76.819,70.88
		s16.373,22.312,19.919,25.858s16.708,24.934,16.708,24.934l-43.584,18.053L20.462,119.263z"/>
	<path fill="#B85B47" d="M20.462,119.263L0,69.863l7.967-19.234c0,0,9.905-0.004,20.847,10.938S37.479,78.1,47.122,87.742
		s18.16,14.537,25.86,22.237s18.851,20.646,18.851,20.646l-21.969,9.1L20.462,119.263z"/>
	<path fill="#EE6644" d="M20.462,119.263L0,69.863l1.407-3.398c0,0,5.623,8.398,12.838,15.613S27.382,86.322,36.97,95.91
		s6.401,10.683,18.937,23.218s20.433,17.915,20.433,17.915l-6.477,2.683L20.462,119.263z"/>
</g>
</svg>
