<?xml version="1.0" encoding="utf-8"?>
<!-- Generator: Adobe Illustrator 17.0.0, SVG Export Plug-In . SVG Version: 6.00 Build 0)  -->
<!DOCTYPE svg PUBLIC "-//W3C//DTD SVG 1.1//EN" "http://www.w3.org/Graphics/SVG/1.1/DTD/svg11.dtd">
<svg version="1.1" id="Laag_1" xmlns="http://www.w3.org/2000/svg" xmlns:xlink="http://www.w3.org/1999/xlink" x="0px" y="0px"
	 width="139.726px" height="139.726px" viewBox="0 0 139.726 139.726" enable-background="new 0 0 139.726 139.726"
	 xml:space="preserve">
<rect x="-4749.157" y="558.059" fill="#1D0B00" width="1279.436" height="395.98"/>
<g>
	<polygon fill="#334444" points="20.462,119.263 0,69.863 20.462,20.462 69.863,0 119.263,20.462 139.726,69.863 119.263,119.263 
		69.863,139.726 	"/>
	<polygon fill="#4D4944" points="20.462,119.263 0,69.863 20.462,20.462 62.242,3.157 91.832,43.236 133.485,54.795 139.726,69.863 
		119.263,119.263 69.863,139.726 	"/>
	<polygon fill="#704F45" points="20.462,119.263 0,69.863 20.462,20.462 59.2,27.902 85.258,57.245 117.328,81.419 119.263,119.263 
		69.863,139.726 	"/>
	<path fill="#9D5646" d="M20.462,119.263L0,69.863l16.866-40.718c0,0,13.191,14.403,21.75,22.963S76.819,70.88,76.819,70.88
		s16.373,22.312,19.919,25.858s16.708,24.934,16.708,24.934l-43.584,18.053L20.462,119.263z"/>
	<path fill="#B85B47" d="M20.462,119.263L0,69.863l7.967-19.234c0,0,9.905-0.004,20.847,10.938S37.479,78.1,47.122,87.742
		s18.16,14.537,25.86,22.237s18.851,20.646,18.851,20.646l-21.969,9.1L20.462,119.263z"/>
	<path fill="#EE6644" d="M20.462,119.263L0,69.863l1.407-3.398c0,0,5.623,8.398,12.838,15.613S27.382,86.322,36.97,95.91
		s6.401,10.683,18.937,23.218s20.433,17.915,20.433,17.915l-6.477,2.683L20.462,119.263z"/>
</g>
<g>
	<g>
		<path fill="#FFFFFF" d="M43.758,80.177l-2.055-6.747H31.37l-2.056,6.747h-6.475l10.004-28.46h7.348l10.043,28.46H43.758z
			 M40.268,68.39c-1.9-6.113-2.97-9.571-3.208-10.372c-0.239-0.801-0.41-1.435-0.514-1.9c-0.426,1.655-1.648,5.746-3.663,12.272
			H40.268z"/>
		<path fill="#FFFFFF" d="M59.248,80.177h-5.913V50.011h5.913V80.177z"/>
		<path fill="#FFFFFF" d="M71.366,80.177h-5.914V50.011h5.914V80.177z"/>
		<path fill="#FFFFFF" d="M97.266,69.301c0,3.528-0.931,6.288-2.793,8.278c-1.859,1.99-4.452,2.985-7.774,2.985
			c-2.081,0-3.916-0.456-5.505-1.367c-1.59-0.911-2.811-2.22-3.665-3.926c-0.852-1.706-1.279-3.696-1.279-5.971
			c0-3.541,0.924-6.294,2.773-8.259c1.848-1.965,4.446-2.947,7.792-2.947c2.082,0,3.917,0.453,5.507,1.357
			c1.59,0.905,2.811,2.204,3.665,3.897C96.84,65.043,97.266,67.026,97.266,69.301z M82.28,69.301c0,2.145,0.352,3.768,1.057,4.866
			c0.705,1.099,1.851,1.648,3.441,1.648c1.577,0,2.71-0.546,3.403-1.638c0.691-1.092,1.037-2.717,1.037-4.876
			c0-2.145-0.35-3.755-1.047-4.828c-0.699-1.073-1.843-1.609-3.432-1.609c-1.577,0-2.714,0.533-3.413,1.599
			C82.629,65.53,82.28,67.143,82.28,69.301z"/>
		<path fill="#FFFFFF" d="M99.049,58.503h6.476l4.091,12.194c0.35,1.06,0.588,2.314,0.718,3.761h0.116
			c0.142-1.331,0.42-2.585,0.834-3.761l4.013-12.194h6.34l-9.17,24.447c-0.841,2.262-2.04,3.955-3.596,5.079
			c-1.558,1.124-3.377,1.686-5.458,1.686c-1.021,0-2.023-0.109-3.006-0.329v-4.691c0.711,0.168,1.487,0.252,2.327,0.252
			c1.047,0,1.961-0.32,2.744-0.959c0.78-0.64,1.392-1.606,1.832-2.899l0.349-1.066L99.049,58.503z"/>
	</g>
</g>
</svg>
