<?xml version="1.0" encoding="utf-8"?>
<!-- Generator: Adobe Illustrator 17.0.0, SVG Export Plug-In . SVG Version: 6.00 Build 0)  -->
<!DOCTYPE svg PUBLIC "-//W3C//DTD SVG 1.1//EN" "http://www.w3.org/Graphics/SVG/1.1/DTD/svg11.dtd">
<svg version="1.1" id="Layer_1" xmlns="http://www.w3.org/2000/svg" xmlns:xlink="http://www.w3.org/1999/xlink" x="0px" y="0px"
	 width="1280px" height="800px" viewBox="0 0 1280 800" enable-background="new 0 0 1280 800" xml:space="preserve">
<path fill="#9D5646" d="M149.416,414.127c0,43.087-35.253,78.34-78.34,78.34s-78.34-35.253-78.34-78.34s35.253-78.34,78.34-78.34
	S149.416,371.04,149.416,414.127z"/>
<rect x="-66.287" y="341.544" transform="matrix(0.9205 0.3907 -0.3907 0.9205 165.0197 28.6692)" fill="#704F45" width="156.679" height="156.679"/>
<rect x="573.7" y="-70.723" transform="matrix(-0.9205 0.3907 -0.3907 -0.9205 1255.2209 -240.1444)" fill="#334444" width="156.679" height="156.679"/>
<rect x="490.457" y="1.25" transform="matrix(0.9205 0.3907 -0.3907 0.9205 76.3146 -215.9196)" fill="#334444" width="156.679" height="156.679"/>
<rect x="264.685" y="19.084" transform="matrix(0.9205 0.3907 -0.3907 0.9205 65.3351 -126.2857)" fill="#334444" width="156.679" height="156.679"/>
<rect x="382.166" y="-50.034" transform="matrix(0.9205 0.3907 -0.3907 0.9205 47.6679 -177.6839)" fill="#334444" width="156.679" height="156.679"/>
<rect x="99.88" y="-73.454" transform="matrix(0.9205 0.3907 -0.3907 0.9205 16.0766 -69.2478)" fill="#334444" width="156.679" height="156.679"/>
<rect x="247.683" y="-40.276" transform="matrix(0.9205 0.3907 -0.3907 0.9205 40.7898 -124.3615)" fill="#334444" width="156.679" height="156.679"/>
<rect x="391.076" y="52.688" transform="matrix(-0.9205 0.3907 -0.3907 -0.9205 952.7111 68.2232)" fill="#334444" width="156.679" height="156.679"/>
<rect x="114.541" y="29.267" transform="matrix(-0.9205 0.3907 -0.3907 -0.9205 412.4745 131.2951)" fill="#334444" width="156.679" height="156.679"/>
<rect x="-2.842" y="-8.387" transform="matrix(-0.9205 0.3907 -0.3907 -0.9205 172.3273 104.8456)" fill="#334444" width="156.679" height="156.679"/>
<rect x="540.368" y="85.333" transform="matrix(-0.9205 0.3907 -0.3907 -0.9205 1252.184 72.5863)" fill="#334444" width="156.679" height="156.679"/>
<rect x="93.138" y="28.157" transform="matrix(-0.9205 0.3907 -0.3907 -0.9205 314.2263 99.9905)" fill="#704F45" width="107.607" height="107.607"/>
<rect x="229.459" y="206.693" transform="matrix(0.9205 0.3907 -0.3907 0.9205 135.8395 -97.6078)" fill="#4D4944" width="156.679" height="156.679"/>
<rect x="135.345" y="114.503" transform="matrix(0.9205 0.3907 -0.3907 0.9205 92.3366 -68.1632)" fill="#4D4944" width="156.679" height="156.679"/>
<rect x="489.575" y="128.661" transform="matrix(0.9205 0.3907 -0.3907 0.9205 101.8408 -189.4369)" fill="#704F45" width="53.804" height="53.804"/>
<rect x="604.653" y="155.409" transform="matrix(0.9205 0.3907 -0.3907 0.9205 145.6275 -248.2845)" fill="#4D4944" width="156.679" height="156.679"/>
<rect x="264.685" y="81.647" transform="matrix(0.9205 0.3907 -0.3907 0.9205 89.7806 -121.3122)" fill="#4D4944" width="156.679" height="156.679"/>
<rect x="493.797" y="179.945" transform="matrix(0.9205 0.3907 -0.3907 0.9205 146.4021 -203.0193)" fill="#4D4944" width="156.679" height="156.679"/>
<rect x="91.487" y="168.566" transform="matrix(-0.9205 0.3907 -0.3907 -0.9205 422.6263 407.8267)" fill="#4D4944" width="156.679" height="156.679"/>
<rect x="-3.401" y="82.744" transform="matrix(-0.9205 0.3907 -0.3907 -0.9205 215.6489 285.8974)" fill="#4D4944" width="164.284" height="164.284"/>
<rect x="384.865" y="162.81" transform="matrix(-0.9205 0.3907 -0.3907 -0.9205 983.811 282.1412)" fill="#4D4944" width="156.679" height="156.679"/>
<path fill="#EE6644" d="M700.741,665.75c0,43.087-35.253,78.34-78.34,78.34c-43.087,0-78.34-35.253-78.34-78.34
	c0-43.087,35.253-78.34,78.34-78.34C665.488,587.41,700.741,622.663,700.741,665.75z"/>
<path fill="#EE6644" d="M547.755,696.453c0,43.087-35.253,78.34-78.34,78.34s-78.34-35.253-78.34-78.34
	c0-43.087,35.253-78.34,78.34-78.34S547.755,653.366,547.755,696.453z"/>
<path fill="#EE6644" d="M644.77,756.997c0,43.087-35.253,78.34-78.34,78.34s-78.34-35.253-78.34-78.34s35.253-78.34,78.34-78.34
	C609.518,678.657,644.77,713.91,644.77,756.997z"/>
<path fill="#EE6644" d="M761.332,774.792c0,43.087-35.253,78.34-78.34,78.34c-43.087,0-78.34-35.253-78.34-78.34
	c0-43.087,35.253-78.34,78.34-78.34C726.079,696.453,761.332,731.705,761.332,774.792z"/>
<path fill="#EE6644" d="M528.566,792.313c0,43.087-35.253,78.34-78.34,78.34s-78.34-35.253-78.34-78.34s35.253-78.34,78.34-78.34
	S528.566,749.227,528.566,792.313z"/>
<path fill="#EE6644" d="M405.221,808.142c0,43.087-35.253,78.34-78.34,78.34s-78.34-35.253-78.34-78.34
	c0-43.087,35.253-78.34,78.34-78.34S405.221,765.055,405.221,808.142z"/>
<path fill="#EE6644" d="M302.124,713.974c0,43.087-35.253,78.34-78.34,78.34s-78.34-35.253-78.34-78.34s35.253-78.34,78.34-78.34
	S302.124,670.887,302.124,713.974z"/>
<path fill="#EE6644" d="M436.124,678.658c0,43.087-35.253,78.34-78.34,78.34s-78.34-35.253-78.34-78.34
	c0-43.087,35.253-78.34,78.34-78.34S436.124,635.571,436.124,678.658z"/>
<path fill="#B85B47" d="M326.506,644.636c0,43.087-35.253,78.34-78.34,78.34s-78.34-35.253-78.34-78.34
	c0-43.087,35.253-78.34,78.34-78.34S326.506,601.549,326.506,644.636z"/>
<path fill="#EE6644" d="M213.963,678.657c0,43.087-35.253,78.34-78.34,78.34s-78.34-35.253-78.34-78.34
	c0-43.087,35.253-78.34,78.34-78.34S213.963,635.57,213.963,678.657z"/>
<path fill="#EE6644" d="M555.004,583.997c0,43.087-35.253,78.34-78.34,78.34s-78.34-35.253-78.34-78.34
	c0-43.087,35.253-78.34,78.34-78.34S555.004,540.91,555.004,583.997z"/>
<path fill="#B85B47" d="M223.784,583.996c0,43.087-35.253,78.34-78.34,78.34s-78.34-35.253-78.34-78.34s35.253-78.34,78.34-78.34
	S223.784,540.909,223.784,583.996z"/>
<path fill="#B85B47" d="M326.506,551.378c0,43.087-35.253,78.34-78.34,78.34s-78.34-35.253-78.34-78.34s35.253-78.34,78.34-78.34
	S326.506,508.291,326.506,551.378z"/>
<path fill="#B85B47" d="M436.124,571.49c0,43.087-35.253,78.34-78.34,78.34s-78.34-35.253-78.34-78.34
	c0-43.087,35.253-78.34,78.34-78.34S436.124,528.403,436.124,571.49z"/>
<path fill="#B85B47" d="M514.464,618.113c0,43.087-35.253,78.34-78.34,78.34s-78.34-35.253-78.34-78.34s35.253-78.34,78.34-78.34
	S514.464,575.026,514.464,618.113z"/>
<path fill="#B85B47" d="M421.364,696.453c0,43.087-35.253,78.34-78.34,78.34s-78.34-35.253-78.34-78.34s35.253-78.34,78.34-78.34
	S421.364,653.366,421.364,696.453z"/>
<path fill="#B85B47" d="M676.359,537.008c0,43.087-35.253,78.34-78.34,78.34c-43.087,0-78.34-35.253-78.34-78.34
	s35.253-78.34,78.34-78.34C641.106,458.668,676.359,493.921,676.359,537.008z"/>
<path fill="#B85B47" d="M566.431,492.185c0,43.087-35.253,78.34-78.34,78.34s-78.34-35.253-78.34-78.34s35.253-78.34,78.34-78.34
	S566.431,449.099,566.431,492.185z"/>
<path fill="#B85B47" d="M775.387,557.294c0,43.087-35.253,78.34-78.34,78.34s-78.34-35.253-78.34-78.34
	c0-43.087,35.253-78.34,78.34-78.34S775.387,514.207,775.387,557.294z"/>
<rect x="145.444" y="255.99" transform="matrix(-0.9205 0.3907 -0.3907 -0.9205 560.4113 554.6415)" fill="#704F45" width="156.679" height="156.679"/>
<path fill="#9D5646" d="M135.624,520.051c0,43.087-35.253,78.34-78.34,78.34s-78.34-35.253-78.34-78.34s35.253-78.34,78.34-78.34
	S135.624,476.965,135.624,520.051z"/>
<path fill="#9D5646" d="M232.177,473.038c0,43.087-35.253,78.34-78.34,78.34s-78.34-35.253-78.34-78.34s35.253-78.34,78.34-78.34
	S232.177,429.951,232.177,473.038z"/>
<rect x="416.958" y="232.384" transform="matrix(0.9205 0.3907 -0.3907 0.9205 160.7833 -168.827)" fill="#704F45" width="156.679" height="156.679"/>
<path fill="#9D5646" d="M676.359,363.372c0,43.087-35.253,78.34-78.34,78.34c-43.087,0-78.34-35.253-78.34-78.34
	s35.253-78.34,78.34-78.34C641.106,285.032,676.359,320.285,676.359,363.372z"/>
<path fill="#9D5646" d="M326.506,487.602c0,43.087-35.253,78.34-78.34,78.34s-78.34-35.253-78.34-78.34s35.253-78.34,78.34-78.34
	S326.506,444.516,326.506,487.602z"/>
<path fill="#9D5646" d="M782.773,431.083c0,43.087-35.253,78.34-78.34,78.34s-78.34-35.253-78.34-78.34s35.253-78.34,78.34-78.34
	C747.521,352.743,782.773,387.996,782.773,431.083z"/>
<path fill="#B85B47" d="M626.094,618.113c0,43.087-35.253,78.34-78.34,78.34s-78.34-35.253-78.34-78.34s35.253-78.34,78.34-78.34
	S626.094,575.026,626.094,618.113z"/>
<path fill="#B85B47" d="M121.063,629.718c0,43.087-35.253,78.34-78.34,78.34s-78.34-35.253-78.34-78.34s35.253-78.34,78.34-78.34
	S121.063,586.631,121.063,629.718z"/>
<path fill="#EE6644" d="M135.624,756.997c0,43.087-35.253,78.34-78.34,78.34s-78.34-35.253-78.34-78.34s35.253-78.34,78.34-78.34
	S135.624,713.91,135.624,756.997z"/>
<path fill="#EE6644" d="M232.177,801.246c0,43.087-35.253,78.34-78.34,78.34s-78.34-35.253-78.34-78.34s35.253-78.34,78.34-78.34
	S232.177,758.159,232.177,801.246z"/>
<path fill="#EE6644" d="M306.495,801.246c0,43.087-35.253,78.34-78.34,78.34s-78.34-35.253-78.34-78.34s35.253-78.34,78.34-78.34
	S306.495,758.159,306.495,801.246z"/>
<rect x="279.444" y="271.287" transform="matrix(0.9205 0.3907 -0.3907 0.9205 165.0522 -112.0037)" fill="#704F45" width="156.679" height="156.679"/>
<rect x="-14.849" y="-10.019" transform="matrix(0.9205 0.3907 -0.3907 0.9205 7.5549 -3.3674)" fill="#4D4944" width="53.804" height="53.804"/>
<rect x="126.936" y="-15.491" transform="matrix(0.9205 0.3907 -0.3907 0.9205 16.688 -59.2022)" fill="#4D4944" width="53.804" height="53.804"/>
<rect x="489.575" y="42.915" transform="matrix(0.9205 0.3907 -0.3907 0.9205 68.3368 -196.2533)" fill="#4D4944" width="53.804" height="53.804"/>
<rect x="-4.184" y="81.711" transform="matrix(0.9205 0.3907 -0.3907 0.9205 44.2443 -0.2423)" fill="#704F45" width="53.804" height="53.804"/>
<rect x="180.165" y="211.598" transform="matrix(0.9205 0.3907 -0.3907 0.9205 109.6501 -61.9481)" fill="#704F45" width="53.804" height="53.804"/>
<rect x="-35.617" y="179.945" transform="matrix(-0.9205 0.3907 -0.3907 -0.9205 182.9696 479.3438)" fill="#704F45" width="156.679" height="156.679"/>
<rect x="344.985" y="-65.982" transform="matrix(-0.9205 0.3907 -0.3907 -0.9205 698.9406 -220.3624)" fill="#4D4944" width="53.804" height="53.804"/>
<rect x="571.118" y="1.404" transform="matrix(-0.9205 0.3907 -0.3907 -0.9205 1159.5591 -179.3035)" fill="#4D4944" width="53.804" height="53.804"/>
<rect x="266.645" y="30.363" transform="matrix(-0.9205 0.3907 -0.3907 -0.9205 586.1343 -4.72)" fill="#4D4944" width="53.804" height="53.804"/>
<rect x="309.711" y="63.604" transform="matrix(-0.9205 0.3907 -0.3907 -0.9205 681.8292 42.2912)" fill="#704F45" width="53.804" height="53.804"/>
<rect x="334.396" y="206.847" transform="matrix(-0.9205 0.3907 -0.3907 -0.9205 785.207 307.7464)" fill="#704F45" width="53.804" height="53.804"/>
<rect x="554.651" y="230.632" transform="matrix(-0.9205 0.3907 -0.3907 -0.9205 1336.386 346.052)" fill="#704F45" width="156.679" height="156.679"/>
<path fill="#9D5646" d="M697.048,441.712c0,43.087-35.253,78.34-78.34,78.34c-43.087,0-78.34-35.253-78.34-78.34
	s35.253-78.34,78.34-78.34C661.795,363.372,697.048,398.625,697.048,441.712z"/>
<rect x="643.09" y="291.976" transform="matrix(-0.9205 0.3907 -0.3907 -0.9205 1530.2025 429.309)" fill="#704F45" width="156.679" height="156.679"/>
<path fill="#9D5646" d="M566.431,401.017c0,43.087-35.253,78.34-78.34,78.34s-78.34-35.253-78.34-78.34s35.253-78.34,78.34-78.34
	S566.431,357.931,566.431,401.017z"/>
<path fill="#9D5646" d="M450.227,458.668c0,43.087-35.253,78.34-78.34,78.34s-78.34-35.253-78.34-78.34s35.253-78.34,78.34-78.34
	S450.227,415.581,450.227,458.668z"/>
<rect x="217.263" y="311.124" transform="matrix(-0.9205 0.3907 -0.3907 -0.9205 719.8816 632.4652)" fill="#704F45" width="156.679" height="156.679"/>
<path fill="#9D5646" d="M269.051,412.669c0,43.087-35.253,78.34-78.34,78.34s-78.34-35.253-78.34-78.34s35.253-78.34,78.34-78.34
	S269.051,369.582,269.051,412.669z"/>
<rect x="4.119" y="298.157" transform="matrix(0.9205 0.3907 -0.3907 0.9205 153.664 -2.2896)" fill="#704F45" width="156.679" height="156.679"/>
<path fill="#B85B47" d="M541.895,662.336c0,29.592-24.212,53.804-53.804,53.804c-29.592,0-53.804-24.212-53.804-53.804
	c0-29.592,24.212-53.804,53.804-53.804C517.683,608.533,541.895,632.744,541.895,662.336z"/>
<path fill="#B85B47" d="M389.522,550.801c0,29.592-24.212,53.804-53.804,53.804c-29.592,0-53.804-24.212-53.804-53.804
	s24.212-53.804,53.804-53.804C365.31,496.997,389.522,521.209,389.522,550.801z"/>
<path fill="#EE6644" d="M672.511,587.844c0,29.592-24.212,53.804-53.804,53.804s-53.804-24.212-53.804-53.804
	c0-29.592,24.212-53.804,53.804-53.804S672.511,558.252,672.511,587.844z"/>
<path fill="#EE6644" d="M397.313,641.647c0,29.592-24.212,53.804-53.804,53.804c-29.592,0-53.804-24.212-53.804-53.804
	c0-29.592,24.212-53.804,53.804-53.804C373.101,587.844,397.313,612.055,397.313,641.647z"/>
<path fill="#EE6644" d="M306.347,557.294c0,14.796-12.106,26.902-26.902,26.902c-14.796,0-26.902-12.106-26.902-26.902
	c0-14.796,12.106-26.902,26.902-26.902C294.241,530.393,306.347,542.498,306.347,557.294z"/>
<path fill="#EE6644" d="M501.511,571.489c0,14.796-12.106,26.902-26.902,26.902c-14.796,0-26.902-12.106-26.902-26.902
	s12.106-26.902,26.902-26.902C489.405,544.588,501.511,556.693,501.511,571.489z"/>
<path fill="#EE6644" d="M696.365,508.495c0,14.796-12.106,26.902-26.902,26.902c-14.796,0-26.902-12.106-26.902-26.902
	s12.106-26.902,26.902-26.902C684.259,481.593,696.365,493.699,696.365,508.495z"/>
<path fill="#EE6644" d="M135.624,557.294c0,14.796-12.106,26.902-26.902,26.902S81.82,572.09,81.82,557.294
	s12.106-26.902,26.902-26.902S135.624,542.498,135.624,557.294z"/>
<path fill="#EE6644" d="M61.81,611.098c0,14.796-12.106,26.902-26.902,26.902S8.006,625.894,8.006,611.098
	s12.106-26.902,26.902-26.902S61.81,596.302,61.81,611.098z"/>
<path fill="#B85B47" d="M76.521,451.369c0,14.796-12.106,26.902-26.902,26.902s-26.902-12.106-26.902-26.902
	s12.106-26.902,26.902-26.902S76.521,436.573,76.521,451.369z"/>
<path fill="#B85B47" d="M490.921,424.468c0,14.796-12.106,26.902-26.902,26.902c-14.796,0-26.902-12.106-26.902-26.902
	c0-14.796,12.106-26.902,26.902-26.902C478.815,397.566,490.921,409.672,490.921,424.468z"/>
<path fill="#B85B47" d="M607.173,361.006c0,14.796-12.106,26.902-26.902,26.902s-26.902-12.106-26.902-26.902
	s12.106-26.902,26.902-26.902S607.173,346.21,607.173,361.006z"/>
<path fill="#B85B47" d="M162.526,708.058c0,14.796-12.106,26.902-26.902,26.902s-26.902-12.106-26.902-26.902
	s12.106-26.902,26.902-26.902S162.526,693.262,162.526,708.058z"/>
<path fill="#EE6644" d="M423.474,662.336c0,14.796-12.106,26.902-26.902,26.902s-26.902-12.106-26.902-26.902
	s12.106-26.902,26.902-26.902S423.474,647.54,423.474,662.336z"/>
<rect x="94.929" y="241.078" transform="matrix(0.9205 0.3907 -0.3907 0.9205 114.3931 -26.3001)" fill="#4D4944" width="53.804" height="53.804"/>
<rect x="165.979" y="307.203" transform="matrix(-0.9205 0.3907 -0.3907 -0.9205 500.9741 566.285)" fill="#4D4944" width="53.804" height="53.804"/>
<rect x="528.102" y="221.956" transform="matrix(-0.9205 0.3907 -0.3907 -0.9205 1163.1245 261.0751)" fill="#4D4944" width="53.804" height="53.804"/>
<rect x="330.882" y="349.595" transform="matrix(-0.9205 0.3907 -0.3907 -0.9205 834.2352 583.2664)" fill="#4D4944" width="53.804" height="53.804"/>
<rect x="677.836" y="278.824" transform="matrix(0.9205 0.3907 -0.3907 0.9205 175.48 -251.0591)" fill="#4D4944" width="53.804" height="53.804"/>
<rect x="635.782" y="14.831" transform="matrix(0.9205 0.3907 -0.3907 0.9205 93.174 -271.6228)" fill="#334444" width="156.679" height="156.679"/>
<rect x="1215.68" y="-15.918" transform="matrix(0.9205 0.3907 -0.3907 0.9205 127.2585 -500.6514)" fill="#334444" width="156.679" height="156.679"/>
<rect x="989.908" y="1.916" transform="matrix(0.9205 0.3907 -0.3907 0.9205 116.2789 -411.0175)" fill="#334444" width="156.679" height="156.679"/>
<rect x="1107.389" y="-67.201" transform="matrix(0.9205 0.3907 -0.3907 0.9205 98.6117 -462.4156)" fill="#334444" width="156.679" height="156.679"/>
<rect x="949.426" y="-43.798" transform="matrix(0.9205 0.3907 -0.3907 0.9205 95.1989 -398.8341)" fill="#334444" width="156.679" height="156.679"/>
<rect x="1116.299" y="35.52" transform="matrix(-0.9205 0.3907 -0.3907 -0.9205 2338.7969 -248.1141)" fill="#334444" width="156.679" height="156.679"/>
<rect x="839.764" y="12.1" transform="matrix(-0.9205 0.3907 -0.3907 -0.9205 1798.5603 -185.0421)" fill="#334444" width="156.679" height="156.679"/>
<rect x="722.381" y="-25.554" transform="matrix(-0.9205 0.3907 -0.3907 -0.9205 1558.4132 -211.4917)" fill="#334444" width="156.679" height="156.679"/>
<rect x="818.361" y="10.989" transform="matrix(-0.9205 0.3907 -0.3907 -0.9205 1700.3121 -216.3467)" fill="#704F45" width="107.607" height="107.607"/>
<rect x="954.682" y="189.525" transform="matrix(0.9205 0.3907 -0.3907 0.9205 186.7834 -382.3396)" fill="#4D4944" width="156.679" height="156.679"/>
<rect x="860.568" y="97.336" transform="matrix(0.9205 0.3907 -0.3907 0.9205 143.2805 -352.8951)" fill="#4D4944" width="156.679" height="156.679"/>
<rect x="1214.797" y="111.494" transform="matrix(0.9205 0.3907 -0.3907 0.9205 152.7846 -474.1687)" fill="#704F45" width="53.804" height="53.804"/>
<rect x="658.936" y="86.804" transform="matrix(0.9205 0.3907 -0.3907 0.9205 123.1365 -274.9484)" fill="#4D4944" width="156.679" height="156.679"/>
<rect x="989.908" y="64.48" transform="matrix(0.9205 0.3907 -0.3907 0.9205 140.7244 -406.044)" fill="#4D4944" width="156.679" height="156.679"/>
<rect x="816.71" y="151.398" transform="matrix(-0.9205 0.3907 -0.3907 -0.9205 1808.7123 91.4894)" fill="#4D4944" width="156.679" height="156.679"/>
<rect x="555.096" y="143.281" transform="matrix(-0.9205 0.3907 -0.3907 -0.9205 1303.1101 178.1209)" fill="#4D4944" width="156.679" height="156.679"/>
<rect x="732.674" y="66.53" transform="matrix(-0.9205 0.3907 -0.3907 -0.9205 1614.1609 -38.6646)" fill="#4D4944" width="156.679" height="156.679"/>
<rect x="1110.902" y="144.502" transform="matrix(-0.9205 0.3907 -0.3907 -0.9205 2371.0159 -36.7051)" fill="#4D4944" width="156.679" height="156.679"/>
<rect x="1194.638" y="127.91" transform="matrix(-0.9205 0.3907 -0.3907 -0.9205 2525.3472 -101.2884)" fill="#4D4944" width="156.679" height="156.679"/>
<path fill="#EE6644" d="M1272.977,679.285c0,43.087-35.253,78.34-78.34,78.34s-78.34-35.253-78.34-78.34
	c0-43.087,35.253-78.34,78.34-78.34S1272.977,636.199,1272.977,679.285z"/>
<path fill="#EE6644" d="M1369.993,739.83c0,43.087-35.253,78.34-78.34,78.34s-78.34-35.253-78.34-78.34s35.253-78.34,78.34-78.34
	S1369.993,696.743,1369.993,739.83z"/>
<path fill="#EE6644" d="M1253.789,775.146c0,43.087-35.253,78.34-78.34,78.34s-78.34-35.253-78.34-78.34s35.253-78.34,78.34-78.34
	C1218.536,696.806,1253.789,732.059,1253.789,775.146z"/>
<path fill="#EE6644" d="M1130.444,790.974c0,43.087-35.253,78.34-78.34,78.34c-43.087,0-78.34-35.253-78.34-78.34
	s35.253-78.34,78.34-78.34C1095.191,712.635,1130.444,747.888,1130.444,790.974z"/>
<path fill="#EE6644" d="M1043.865,784.078c0,43.087-35.253,78.34-78.34,78.34c-43.087,0-78.34-35.253-78.34-78.34
	s35.253-78.34,78.34-78.34C1008.612,705.739,1043.865,740.992,1043.865,784.078z"/>
<path fill="#EE6644" d="M1027.347,696.806c0,43.087-35.253,78.34-78.34,78.34c-43.087,0-78.34-35.253-78.34-78.34
	c0-43.087,35.253-78.34,78.34-78.34C992.094,618.466,1027.347,653.719,1027.347,696.806z"/>
<path fill="#EE6644" d="M1161.347,661.49c0,43.087-35.253,78.34-78.34,78.34s-78.34-35.253-78.34-78.34
	c0-43.087,35.253-78.34,78.34-78.34S1161.347,618.403,1161.347,661.49z"/>
<path fill="#B85B47" d="M1051.729,627.468c0,43.087-35.253,78.34-78.34,78.34c-43.087,0-78.34-35.253-78.34-78.34
	s35.253-78.34,78.34-78.34C1016.476,549.129,1051.729,584.381,1051.729,627.468z"/>
<path fill="#EE6644" d="M751.957,679.285c0,43.087-35.253,78.34-78.34,78.34c-43.087,0-78.34-35.253-78.34-78.34
	s35.253-78.34,78.34-78.34C716.704,600.946,751.957,636.198,751.957,679.285z"/>
<path fill="#EE6644" d="M939.186,661.49c0,43.087-35.253,78.34-78.34,78.34c-43.087,0-78.34-35.253-78.34-78.34
	c0-43.087,35.253-78.34,78.34-78.34C903.933,583.15,939.186,618.403,939.186,661.49z"/>
<path fill="#EE6644" d="M1280.227,566.829c0,43.087-35.253,78.34-78.34,78.34c-43.087,0-78.34-35.253-78.34-78.34
	c0-43.087,35.253-78.34,78.34-78.34C1244.974,488.489,1280.227,523.742,1280.227,566.829z"/>
<path fill="#B85B47" d="M949.007,566.829c0,43.087-35.253,78.34-78.34,78.34c-43.087,0-78.34-35.253-78.34-78.34
	s35.253-78.34,78.34-78.34C913.754,488.489,949.007,523.742,949.007,566.829z"/>
<path fill="#B85B47" d="M1051.729,534.21c0,43.087-35.253,78.34-78.34,78.34s-78.34-35.253-78.34-78.34
	c0-43.087,35.253-78.34,78.34-78.34C1016.476,455.871,1051.729,491.124,1051.729,534.21z"/>
<path fill="#B85B47" d="M1161.347,554.322c0,43.087-35.253,78.34-78.34,78.34c-43.087,0-78.34-35.253-78.34-78.34
	c0-43.087,35.253-78.34,78.34-78.34C1126.094,475.983,1161.347,511.235,1161.347,554.322z"/>
<path fill="#B85B47" d="M1239.687,600.945c0,43.087-35.253,78.34-78.34,78.34s-78.34-35.253-78.34-78.34
	c0-43.087,35.253-78.34,78.34-78.34S1239.687,557.858,1239.687,600.945z"/>
<path fill="#B85B47" d="M1146.587,679.285c0,43.087-35.253,78.34-78.34,78.34s-78.34-35.253-78.34-78.34
	c0-43.087,35.253-78.34,78.34-78.34S1146.587,636.198,1146.587,679.285z"/>
<path fill="#B85B47" d="M1291.653,475.018c0,43.087-35.253,78.34-78.34,78.34c-43.087,0-78.34-35.253-78.34-78.34
	s35.253-78.34,78.34-78.34C1256.401,396.678,1291.653,431.931,1291.653,475.018z"/>
<rect x="557.596" y="251.707" transform="matrix(-0.9205 0.3907 -0.3907 -0.9205 1293.568 347.841)" fill="#704F45" width="107.607" height="107.607"/>
<rect x="870.667" y="238.822" transform="matrix(-0.9205 0.3907 -0.3907 -0.9205 1946.4972 238.3043)" fill="#704F45" width="156.679" height="156.679"/>
<path fill="#9D5646" d="M860.846,502.884c0,43.087-35.253,78.34-78.34,78.34s-78.34-35.253-78.34-78.34s35.253-78.34,78.34-78.34
	S860.846,459.797,860.846,502.884z"/>
<path fill="#9D5646" d="M957.4,455.871c0,43.087-35.253,78.34-78.34,78.34c-43.087,0-78.34-35.253-78.34-78.34
	s35.253-78.34,78.34-78.34C922.147,377.531,957.4,412.784,957.4,455.871z"/>
<rect x="1142.18" y="215.217" transform="matrix(0.9205 0.3907 -0.3907 0.9205 211.7271 -453.5588)" fill="#704F45" width="156.679" height="156.679"/>
<path fill="#9D5646" d="M1051.729,470.435c0,43.087-35.253,78.34-78.34,78.34c-43.087,0-78.34-35.253-78.34-78.34
	s35.253-78.34,78.34-78.34S1051.729,427.348,1051.729,470.435z"/>
<path fill="#B85B47" d="M1351.317,600.945c0,43.087-35.253,78.34-78.34,78.34c-43.087,0-78.34-35.253-78.34-78.34
	c0-43.087,35.253-78.34,78.34-78.34C1316.064,522.606,1351.317,557.858,1351.317,600.945z"/>
<path fill="#B85B47" d="M701.692,475.982c0,43.087-35.253,78.34-78.34,78.34s-78.34-35.253-78.34-78.34s35.253-78.34,78.34-78.34
	C666.44,397.642,701.692,432.895,701.692,475.982z"/>
<path fill="#B85B47" d="M737.275,554.322c0,43.087-35.253,78.34-78.34,78.34c-43.087,0-78.34-35.253-78.34-78.34
	s35.253-78.34,78.34-78.34C702.023,475.982,737.275,511.235,737.275,554.322z"/>
<path fill="#B85B47" d="M846.285,612.55c0,43.087-35.253,78.34-78.34,78.34s-78.34-35.253-78.34-78.34
	c0-43.087,35.253-78.34,78.34-78.34S846.285,569.463,846.285,612.55z"/>
<path fill="#9D5646" d="M658.936,397.642c0,43.087-35.253,78.34-78.34,78.34c-43.087,0-78.34-35.253-78.34-78.34
	s35.253-78.34,78.34-78.34C623.683,319.303,658.936,354.556,658.936,397.642z"/>
<path fill="#EE6644" d="M860.847,739.83c0,43.087-35.253,78.34-78.34,78.34c-43.087,0-78.34-35.253-78.34-78.34
	c0-43.087,35.253-78.34,78.34-78.34C825.594,661.49,860.847,696.743,860.847,739.83z"/>
<path fill="#EE6644" d="M957.4,784.078c0,43.087-35.253,78.34-78.34,78.34s-78.34-35.253-78.34-78.34s35.253-78.34,78.34-78.34
	S957.4,740.992,957.4,784.078z"/>
<path fill="#9D5646" d="M874.639,396.959c0,43.087-35.253,78.34-78.34,78.34c-43.087,0-78.34-35.253-78.34-78.34
	s35.253-78.34,78.34-78.34C839.386,318.62,874.639,353.872,874.639,396.959z"/>
<rect x="1004.667" y="254.12" transform="matrix(0.9205 0.3907 -0.3907 0.9205 215.9961 -396.7355)" fill="#704F45" width="156.679" height="156.679"/>
<rect x="619.659" y="265.499" transform="matrix(0.9205 0.3907 -0.3907 0.9205 189.836 -245.3964)" fill="#704F45" width="156.679" height="156.679"/>
<rect x="710.374" y="-27.186" transform="matrix(0.9205 0.3907 -0.3907 0.9205 58.4987 -288.0992)" fill="#4D4944" width="53.804" height="53.804"/>
<rect x="852.159" y="-32.658" transform="matrix(0.9205 0.3907 -0.3907 0.9205 67.6318 -343.934)" fill="#4D4944" width="53.804" height="53.804"/>
<rect x="876.541" y="-32.658" transform="matrix(0.9205 0.3907 -0.3907 0.9205 69.5701 -353.4608)" fill="#4D4944" width="53.804" height="53.804"/>
<rect x="632.034" y="74.814" transform="matrix(0.9205 0.3907 -0.3907 0.9205 92.1257 -249.3808)" fill="#4D4944" width="53.804" height="53.804"/>
<rect x="1214.797" y="25.747" transform="matrix(0.9205 0.3907 -0.3907 0.9205 119.2806 -480.9851)" fill="#4D4944" width="53.804" height="53.804"/>
<rect x="733.229" y="66.269" transform="matrix(0.9205 0.3907 -0.3907 0.9205 96.8315 -289.6001)" fill="#704F45" width="53.804" height="53.804"/>
<rect x="905.388" y="194.431" transform="matrix(0.9205 0.3907 -0.3907 0.9205 160.594 -346.6799)" fill="#704F45" width="53.804" height="53.804"/>
<rect x="689.606" y="162.778" transform="matrix(-0.9205 0.3907 -0.3907 -0.9205 1569.0555 163.0065)" fill="#704F45" width="156.679" height="156.679"/>
<rect x="991.868" y="13.196" transform="matrix(-0.9205 0.3907 -0.3907 -0.9205 1972.2202 -321.0572)" fill="#4D4944" width="53.804" height="53.804"/>
<rect x="1034.933" y="46.436" transform="matrix(-0.9205 0.3907 -0.3907 -0.9205 2067.915 -274.0461)" fill="#704F45" width="53.804" height="53.804"/>
<rect x="1059.619" y="189.68" transform="matrix(-0.9205 0.3907 -0.3907 -0.9205 2171.293 -8.5909)" fill="#704F45" width="53.804" height="53.804"/>
<path fill="#9D5646" d="M1291.653,383.85c0,43.087-35.253,78.34-78.34,78.34s-78.34-35.253-78.34-78.34s35.253-78.34,78.34-78.34
	S1291.653,340.763,1291.653,383.85z"/>
<path fill="#9D5646" d="M1175.449,441.501c0,43.087-35.253,78.34-78.34,78.34s-78.34-35.253-78.34-78.34s35.253-78.34,78.34-78.34
	S1175.449,398.414,1175.449,441.501z"/>
<rect x="942.486" y="293.956" transform="matrix(-0.9205 0.3907 -0.3907 -0.9205 2105.9675 316.1279)" fill="#704F45" width="156.679" height="156.679"/>
<path fill="#EE6644" d="M705.843,491.327c0,29.592-24.212,53.804-53.804,53.804c-29.592,0-53.804-24.212-53.804-53.804
	c0-29.592,24.212-53.804,53.804-53.804C681.631,437.523,705.843,461.735,705.843,491.327z"/>
<path fill="#9D5646" d="M994.274,395.501c0,43.087-35.253,78.34-78.34,78.34c-43.087,0-78.34-35.253-78.34-78.34
	s35.253-78.34,78.34-78.34C959.021,317.162,994.274,352.415,994.274,395.501z"/>
<rect x="742.342" y="280.989" transform="matrix(0.9205 0.3907 -0.3907 0.9205 205.6412 -292.1009)" fill="#704F45" width="156.679" height="156.679"/>
<path fill="#9D5646" d="M780.032,424.544c0,43.087-35.253,78.34-78.34,78.34s-78.34-35.253-78.34-78.34s35.253-78.34,78.34-78.34
	S780.032,381.457,780.032,424.544z"/>
<path fill="#9D5646" d="M735.194,297.965c0,14.796-12.106,26.902-26.902,26.902s-26.902-12.106-26.902-26.902
	s12.106-26.902,26.902-26.902S735.194,283.169,735.194,297.965z"/>
<path fill="#B85B47" d="M1267.117,645.169c0,29.592-24.212,53.804-53.804,53.804c-29.592,0-53.804-24.212-53.804-53.804
	c0-29.592,24.212-53.804,53.804-53.804C1242.906,591.365,1267.117,615.577,1267.117,645.169z"/>
<path fill="#B85B47" d="M1114.745,533.633c0,29.592-24.212,53.804-53.804,53.804s-53.804-24.212-53.804-53.804
	s24.212-53.804,53.804-53.804S1114.745,504.041,1114.745,533.633z"/>
<path fill="#EE6644" d="M1122.535,624.48c0,29.592-24.212,53.804-53.804,53.804s-53.804-24.212-53.804-53.804
	c0-29.592,24.212-53.804,53.804-53.804S1122.535,594.888,1122.535,624.48z"/>
<path fill="#EE6644" d="M1031.569,540.127c0,14.796-12.106,26.902-26.902,26.902s-26.902-12.106-26.902-26.902
	c0-14.796,12.106-26.902,26.902-26.902S1031.569,525.331,1031.569,540.127z"/>
<path fill="#EE6644" d="M1226.734,554.322c0,14.796-12.106,26.902-26.902,26.902s-26.902-12.106-26.902-26.902
	s12.106-26.902,26.902-26.902S1226.734,539.526,1226.734,554.322z"/>
<path fill="#EE6644" d="M860.847,540.127c0,14.796-12.106,26.902-26.902,26.902s-26.902-12.106-26.902-26.902
	s12.106-26.902,26.902-26.902S860.847,525.331,860.847,540.127z"/>
<path fill="#EE6644" d="M787.033,593.93c0,14.796-12.106,26.902-26.902,26.902s-26.902-12.106-26.902-26.902
	s12.106-26.902,26.902-26.902S787.033,579.134,787.033,593.93z"/>
<path fill="#B85B47" d="M801.744,434.202c0,14.796-12.106,26.902-26.902,26.902s-26.902-12.106-26.902-26.902
	c0-14.796,12.106-26.902,26.902-26.902S801.744,419.406,801.744,434.202z"/>
<path fill="#B85B47" d="M659.141,396.959c0,14.796-12.106,26.902-26.902,26.902s-26.902-12.106-26.902-26.902
	c0-14.796,12.106-26.902,26.902-26.902S659.141,382.163,659.141,396.959z"/>
<path fill="#B85B47" d="M1216.144,407.3c0,14.796-12.106,26.902-26.902,26.902s-26.902-12.106-26.902-26.902
	c0-14.796,12.106-26.902,26.902-26.902S1216.144,392.504,1216.144,407.3z"/>
<path fill="#B85B47" d="M887.748,690.89c0,14.796-12.106,26.902-26.902,26.902c-14.796,0-26.902-12.106-26.902-26.902
	s12.106-26.902,26.902-26.902C875.642,663.988,887.748,676.094,887.748,690.89z"/>
<path fill="#EE6644" d="M1148.697,645.169c0,14.796-12.106,26.902-26.902,26.902s-26.902-12.106-26.902-26.902
	s12.106-26.902,26.902-26.902S1148.697,630.373,1148.697,645.169z"/>
<rect x="820.152" y="223.911" transform="matrix(0.9205 0.3907 -0.3907 0.9205 165.3369 -311.032)" fill="#4D4944" width="53.804" height="53.804"/>
<rect x="891.202" y="290.035" transform="matrix(-0.9205 0.3907 -0.3907 -0.9205 1887.0599 249.9477)" fill="#4D4944" width="53.804" height="53.804"/>
<rect x="1253.325" y="204.788" transform="matrix(-0.9205 0.3907 -0.3907 -0.9205 2549.2104 -55.2622)" fill="#4D4944" width="53.804" height="53.804"/>
<rect x="1056.105" y="332.427" transform="matrix(-0.9205 0.3907 -0.3907 -0.9205 2220.321 266.9292)" fill="#4D4944" width="53.804" height="53.804"/>
</svg>
