<?xml version="1.0" encoding="utf-8"?>
<!-- Generator: Adobe Illustrator 17.0.0, SVG Export Plug-In . SVG Version: 6.00 Build 0)  -->
<!DOCTYPE svg PUBLIC "-//W3C//DTD SVG 1.1//EN" "http://www.w3.org/Graphics/SVG/1.1/DTD/svg11.dtd">
<svg version="1.1" id="Layer_1" xmlns="http://www.w3.org/2000/svg" xmlns:xlink="http://www.w3.org/1999/xlink" x="0px" y="0px"
	 width="277.559px" height="159px" viewBox="-31.559 7 277.559 159" enable-background="new -31.559 7 277.559 159"
	 xml:space="preserve">
<g id="Layer_1_1_" display="none">
	<rect x="-419.023" y="-247.89" display="inline" fill="#FF02FF" width="1911.191" height="1569.157"/>
</g>
<g>
	<circle fill="none" stroke="#FFFFFF" stroke-width="2" stroke-miterlimit="10" cx="190" cy="150.1" r="4"/>
	<circle fill="#FFFFFF" cx="190" cy="20.099" r="2"/>
	<rect x="150" y="31" fill="none" stroke="#FFFFFF" stroke-width="2" stroke-miterlimit="10" width="79" height="107"/>
	<polyline fill="none" stroke="#FFFFFF" stroke-width="4" stroke-miterlimit="10" points="-6.765,145.765 -6.765,9 221.176,9 	"/>
	<polyline fill="none" stroke="#FFFFFF" stroke-width="4" stroke-miterlimit="10" points="148.97,164 -29.559,164 -29.559,145.765 
		134.97,145.765 	"/>
	<g>
		<path fill="none" stroke="#FFFFFF" stroke-width="4" stroke-miterlimit="10" d="M135,133.228V158c0,3.314,2.686,6,6,6h97
			c3.314,0,6-2.686,6-6V15c0-3.314-2.686-6-6-6h-97c-3.314,0-6,2.686-6,6v8.816"/>
		
			<rect x="6.911" y="23.816" fill="none" stroke="#FFFFFF" stroke-width="2" stroke-miterlimit="10" width="128.089" height="109.412"/>
		<line fill="none" stroke="#FFFFFF" stroke-width="4" stroke-miterlimit="10" x1="135" y1="23.816" x2="135" y2="133.228"/>
	</g>
	<rect x="82.132" y="146.904" fill="#FFFFFF" width="45.588" height="4.559"/>
</g>
</svg>
